<mxfile host="Electron" agent="Mozilla/5.0 (Windows NT 10.0; Win64; x64) AppleWebKit/537.36 (KHTML, like Gecko) draw.io/28.0.4 Chrome/138.0.7204.97 Electron/37.2.1 Safari/537.36" version="28.0.4">
  <diagram name="Seite-1" id="Ul3aRqIEvuwvDgEJjYV_">
    <mxGraphModel dx="16384" dy="7174" grid="1" gridSize="10" guides="1" tooltips="1" connect="1" arrows="1" fold="1" page="1" pageScale="1" pageWidth="827" pageHeight="1169" math="0" shadow="0">
      <root>
        <mxCell id="0" />
        <mxCell id="1" parent="0" />
        <mxCell id="oyaKjV_WXcEfCoysOoAM-279" value="" style="rounded=1;whiteSpace=wrap;html=1;rotation=60;fillColor=none;fontColor=#333333;strokeColor=#666666;arcSize=50;strokeWidth=8;dashed=1;dashPattern=8 8;" parent="1" vertex="1">
          <mxGeometry x="2156.78" y="1214.72" width="1501.42" height="675.95" as="geometry" />
        </mxCell>
        <mxCell id="oyaKjV_WXcEfCoysOoAM-83" value="" style="endArrow=classic;html=1;rounded=0;fontFamily=Helvetica;fontSize=18;fontColor=default;strokeWidth=20;fillColor=#f5f5f5;strokeColor=#666666;exitX=0.221;exitY=0.921;exitDx=0;exitDy=0;entryX=0.702;entryY=0.041;entryDx=0;entryDy=0;exitPerimeter=0;entryPerimeter=0;" parent="1" edge="1">
          <mxGeometry width="50" height="50" relative="1" as="geometry">
            <mxPoint x="5050" y="940" as="sourcePoint" />
            <mxPoint x="5450" y="1640" as="targetPoint" />
          </mxGeometry>
        </mxCell>
        <mxCell id="oyaKjV_WXcEfCoysOoAM-64" value="" style="endArrow=classic;html=1;rounded=0;fontFamily=Helvetica;fontSize=18;fontColor=default;strokeWidth=20;fillColor=#d5e8d4;strokeColor=#82b366;exitX=0.221;exitY=0.921;exitDx=0;exitDy=0;entryX=0.702;entryY=0.041;entryDx=0;entryDy=0;exitPerimeter=0;entryPerimeter=0;flowAnimation=0;" parent="1" edge="1">
          <mxGeometry width="50" height="50" relative="1" as="geometry">
            <mxPoint x="2550" y="940" as="sourcePoint" />
            <mxPoint x="2950" y="1640" as="targetPoint" />
          </mxGeometry>
        </mxCell>
        <mxCell id="oyaKjV_WXcEfCoysOoAM-112" style="edgeStyle=orthogonalEdgeStyle;rounded=0;orthogonalLoop=1;jettySize=auto;html=1;exitX=0.5;exitY=1;exitDx=0;exitDy=0;strokeWidth=20;flowAnimation=0;fillColor=#d5e8d4;strokeColor=#82b366;curved=1;dashed=1;dashPattern=1 1;" parent="1" edge="1">
          <mxGeometry relative="1" as="geometry">
            <mxPoint x="5600" y="2560" as="targetPoint" />
            <mxPoint x="5599.97" y="2200" as="sourcePoint" />
            <Array as="points">
              <mxPoint x="5600" y="2240" />
              <mxPoint x="5460" y="2240" />
              <mxPoint x="5460" y="2290" />
              <mxPoint x="5740" y="2290" />
              <mxPoint x="5740" y="2340" />
              <mxPoint x="5500" y="2340" />
              <mxPoint x="5500" y="2390" />
              <mxPoint x="5690" y="2390" />
              <mxPoint x="5690" y="2440" />
              <mxPoint x="5600" y="2440" />
            </Array>
          </mxGeometry>
        </mxCell>
        <mxCell id="oyaKjV_WXcEfCoysOoAM-110" value="" style="endArrow=classic;html=1;rounded=0;fontFamily=Helvetica;fontSize=18;fontColor=default;strokeWidth=20;fillColor=#d5e8d4;strokeColor=#82b366;exitX=0.221;exitY=0.921;exitDx=0;exitDy=0;entryX=0.702;entryY=0.041;entryDx=0;entryDy=0;exitPerimeter=0;entryPerimeter=0;flowAnimation=0;" parent="1" edge="1">
          <mxGeometry width="50" height="50" relative="1" as="geometry">
            <mxPoint x="7550" y="1460" as="sourcePoint" />
            <mxPoint x="7950" y="760" as="targetPoint" />
          </mxGeometry>
        </mxCell>
        <mxCell id="oyaKjV_WXcEfCoysOoAM-111" value="" style="endArrow=classic;html=1;rounded=0;fontFamily=Helvetica;fontSize=18;fontColor=default;strokeWidth=20;fillColor=#d5e8d4;strokeColor=#82b366;exitX=0.221;exitY=0.921;exitDx=0;exitDy=0;entryX=0.702;entryY=0.041;entryDx=0;entryDy=0;exitPerimeter=0;entryPerimeter=0;flowAnimation=0;" parent="1" edge="1">
          <mxGeometry width="50" height="50" relative="1" as="geometry">
            <mxPoint x="8250" y="2160" as="sourcePoint" />
            <mxPoint x="7850" y="1460" as="targetPoint" />
          </mxGeometry>
        </mxCell>
        <mxCell id="oyaKjV_WXcEfCoysOoAM-6" value="" style="endArrow=classic;html=1;rounded=0;fontFamily=Helvetica;fontSize=18;fontColor=default;strokeWidth=20;fillColor=#f5f5f5;strokeColor=#666666;exitX=0.221;exitY=0.921;exitDx=0;exitDy=0;entryX=0.702;entryY=0.041;entryDx=0;entryDy=0;exitPerimeter=0;entryPerimeter=0;" parent="1" edge="1">
          <mxGeometry width="50" height="50" relative="1" as="geometry">
            <mxPoint x="750" y="235" as="sourcePoint" />
            <mxPoint x="350" y="935" as="targetPoint" />
          </mxGeometry>
        </mxCell>
        <mxCell id="oyaKjV_WXcEfCoysOoAM-1" style="edgeStyle=orthogonalEdgeStyle;rounded=0;orthogonalLoop=1;jettySize=auto;html=1;exitX=1;exitY=0.5;exitDx=0;exitDy=0;entryX=0;entryY=0.5;entryDx=0;entryDy=0;strokeWidth=20;fillColor=#f5f5f5;strokeColor=#666666;flowAnimation=0;" parent="1" source="mhYo0zj6bfY33cigUTVe-2" target="mhYo0zj6bfY33cigUTVe-4" edge="1">
          <mxGeometry relative="1" as="geometry" />
        </mxCell>
        <mxCell id="mhYo0zj6bfY33cigUTVe-2" value="Selection" style="text;html=1;align=center;verticalAlign=middle;whiteSpace=wrap;rounded=0;fontStyle=1;fontSize=128;fillColor=#f5f5f5;strokeColor=#666666;fontColor=#333333;strokeWidth=8;" parent="1" vertex="1">
          <mxGeometry y="-160" width="1199" height="200" as="geometry" />
        </mxCell>
        <mxCell id="oyaKjV_WXcEfCoysOoAM-2" style="edgeStyle=orthogonalEdgeStyle;rounded=0;orthogonalLoop=1;jettySize=auto;html=1;exitX=1;exitY=0.5;exitDx=0;exitDy=0;entryX=0;entryY=0.5;entryDx=0;entryDy=0;strokeWidth=20;fillColor=#f5f5f5;strokeColor=#666666;flowAnimation=0;" parent="1" source="mhYo0zj6bfY33cigUTVe-4" target="mhYo0zj6bfY33cigUTVe-5" edge="1">
          <mxGeometry relative="1" as="geometry" />
        </mxCell>
        <mxCell id="mhYo0zj6bfY33cigUTVe-4" value="Expansion" style="text;html=1;align=center;verticalAlign=middle;whiteSpace=wrap;rounded=0;fontStyle=1;fontSize=128;fillColor=#f5f5f5;fontColor=#333333;strokeColor=#666666;strokeWidth=8;" parent="1" vertex="1">
          <mxGeometry x="2500" y="-160" width="1200" height="200" as="geometry" />
        </mxCell>
        <mxCell id="mhYo0zj6bfY33cigUTVe-5" value="Simulation" style="text;html=1;align=center;verticalAlign=middle;whiteSpace=wrap;rounded=0;fontStyle=1;fontSize=128;fillColor=#f5f5f5;fontColor=#333333;strokeColor=#666666;strokeWidth=8;" parent="1" vertex="1">
          <mxGeometry x="5000" y="-160" width="1200" height="200" as="geometry" />
        </mxCell>
        <mxCell id="mhYo0zj6bfY33cigUTVe-6" value="&lt;font&gt;Backpropagation&lt;/font&gt;" style="text;html=1;align=center;verticalAlign=middle;whiteSpace=wrap;rounded=0;fontStyle=1;fontSize=128;fillColor=#f5f5f5;fontColor=#333333;strokeColor=#666666;strokeWidth=8;" parent="1" vertex="1">
          <mxGeometry x="7500" y="-160" width="1200" height="200" as="geometry" />
        </mxCell>
        <mxCell id="mhYo0zj6bfY33cigUTVe-22" value="" style="group" parent="1" vertex="1" connectable="0">
          <mxGeometry x="300" y="200" width="600" height="600" as="geometry" />
        </mxCell>
        <mxCell id="oyaKjV_WXcEfCoysOoAM-8" value="" style="endArrow=classic;html=1;rounded=0;fontFamily=Helvetica;fontSize=18;fontColor=default;strokeWidth=20;fillColor=#f5f5f5;strokeColor=#666666;exitX=0.221;exitY=0.921;exitDx=0;exitDy=0;entryX=0.702;entryY=0.041;entryDx=0;entryDy=0;exitPerimeter=0;entryPerimeter=0;" parent="mhYo0zj6bfY33cigUTVe-22" edge="1">
          <mxGeometry width="50" height="50" relative="1" as="geometry">
            <mxPoint x="150" y="35" as="sourcePoint" />
            <mxPoint x="550" y="735" as="targetPoint" />
          </mxGeometry>
        </mxCell>
        <mxCell id="mhYo0zj6bfY33cigUTVe-17" value="" style="ellipse;whiteSpace=wrap;html=1;aspect=fixed;strokeWidth=20;fillColor=#f5f5f5;fontColor=#333333;strokeColor=#666666;" parent="mhYo0zj6bfY33cigUTVe-22" vertex="1">
          <mxGeometry width="600" height="600" as="geometry" />
        </mxCell>
        <mxCell id="mhYo0zj6bfY33cigUTVe-7" value="" style="shape=image;verticalLabelPosition=bottom;labelBackgroundColor=default;verticalAlign=top;aspect=fixed;imageAspect=0;image=data:image/png,iVBORw0KGgoAAAANSUhEUgAABFQAAARUCAYAAABY/UdQAAAAOnRFWHRTb2Z0d2FyZQBNYXRwbG90bGliIHZlcnNpb24zLjEwLjEsIGh0dHBzOi8vbWF0cGxvdGxpYi5vcmcvc2/+5QAAAAlwSFlzAAAuIwAALiMBeKU/dgAAIslJREFUeJzt2jFuG9mWgGFqwIyRFSjQDrwBZ95DQznTnlyzjQHzccpkIkF76MwLGGM2wECBHDl7gAYdNvzetP4rukpV/L78oC55Srb04149ft68bPir/WFs7nh/7pNcLju4PHY+Pzu4PHY+Pzu4PHY+Pzu4LPa93D0c3/8O/m3uAwAAAAAsjaACAAAAEAkqAAAAAJGgAgAAABAJKgAAAACRoAIAAAAQCSoAAAAAkaACAAAAEAkqAAAAAJGgAgAAABAJKgAAAACRoAIAAAAQCSoAAAAAkaACAAAAEAkqAAAAAJGgAgAAABAJKgAAAACRoAIAAAAQCSoAAAAAkaACAAAAEAkqAAAAAJGgAgAAABAJKgAAAACRoAIAAAAQCSoAAAAAkaACAAAAEAkqAAAAAJGgAgAAABAJKgAAAACRoAIAAAAQCSoAAAAAkaACAAAAEAkqAAAAAJGgAgAAABAJKgAAAACRoAIAAAAQCSoAAAAAkaACAAAAEAkqAAAAAJGgAgAAABAJKgAAAACRoAIAAAAQCSoAAAAAkaACAAAAEAkqAAAAAJGgAgAAABAJKgAAAACRoAIAAAAQCSoAAAAAkaACAAAAEAkqAAAAAJGgAgAAABAJKgAAAADR1eOXw0sdAgAAALhkbqgAAAAARIIKAAAAQCSoAAAAAESCCgAAAEAkqAAAAABEggoAAABAJKgAAAAARIIKAAAAQCSoAAAAAESCCgAAAEAkqAAAAABEggoAAABAJKgAAAAARIIKAAAAQCSoAAAAAESCCgAAAEAkqAAAAABEggoAAABAJKgAAAAARIIKAAAAQCSoAAAAAESCCgAAAEAkqAAAAABEggoAAABAJKgAAAAARIIKAAAAQCSoAAAAAERXj583L5sl2B/6zPH+V5yEX723P9nd/OxuuexuuexuuexuuexuuexuuexuuezuL9xQAQAAAIgEFQAAAIBIUAEAAACIBBUAAACASFABAAAAiAQVAAAAgEhQAQAAAIgEFQAAAIBIUAEAAACIBBUAAACASFABAAAAiAQVAAAAgEhQAQAAAIgEFQAAAIBIUAEAAACIBBUAAACASFABAAAAiAQVAAAAgEhQAQAAAIgEFQAAAIBIUAEAAACIBBUAAACASFABAAAAiAQVAAAAgEhQAQAAAIgEFQAAAIBIUAEAAACIBBUAAACASFABAAAAiAQVAAAAgEhQAQAAAIgEFQAAAIBIUAEAAACIBBUAAACASFABAAAAiAQVAAAAgEhQAQAAAIgEFQAAAIBIUAEAAACIBBUAAACASFABAAAAiAQVAAAAgEhQAQAAAIgEFQAAAIBIUAEAAACIBBUAAACASFABAAAAiAQVAAAAgEhQAQAAAIgEFQAAAIBIUAEAAACIBBUAAACASFABAAAAiAQVAAAAgEhQAQAAAIiuHr8cXuoQAAAAwCVzQwUAAAAgElQAAAAAIkEFAAAAIBJUAAAAACJBBQAAACASVAAAAAAiQQUAAAAgElQAAAAAIkEFAAAAIBJUAAAAACJBBQAAACASVAAAAAAiQQUAAAAgElQAAAAAIkEFAAAAIBJUAAAAACJBBQAAACASVAAAAAAiQQUAAAAgElQAAAAAIkEFAAAAIBJUAAAAACJBBQAAACASVAAAAAAiQQUAAAAgElQAAAAAoqvHz5uXOrR6+8PY3PH+3Ce5XHZweex8fnZweex8fnZweex8fnZwWex7uXs4vv8duKECAAAAEAkqAAAAAJGgAgAAABAJKgAAAACRoAIAAAAQCSoAAAAAkaACAAAAEAkqAAAAAJGgAgAAABAJKgAAAACRoAIAAAAQCSoAAAAAkaACAAAAEAkqAAAAAJGgAgAAABAJKgAAAACRoAIAAAAQCSoAAAAAkaACAAAAEAkqAAAAAJGgAgAAABAJKgAAAACRoAIAAAAQCSoAAAAAkaACAAAAEAkqAAAAAJGgAgAAABAJKgAAAACRoAIAAAAQCSoAAAAAkaACAAAAEAkqAAAAAJGgAgAAABAJKgAAAACRoAIAAAAQCSoAAAAAkaACAAAAEAkqAAAAAJGgAgAAABAJKgAAAACRoAIAAAAQCSoAAAAAkaACAAAAEAkqAAAAAJGgAgAAABAJKgAAAACRoAIAAAAQCSoAAAAAkaACAAAAEAkqAAAAAJGgAgAAABAJKgAAAACRoAIAAAAQCSoAAAAAkaACAAAAEG3rAPB2v/0x9wneoT/u5z4BdnB57Hx+dnB57Hx+K97B4+e5TwCXxQ0VAAAAgEhQAQAAAIgEFQAAAIBIUAEAAACIBBUAAACASFABAAAAiAQVAAAAgEhQAQAAAIgEFQAAAIBIUAEAAACIBBUAAACASFABAAAAiAQVAAAAgEhQAQAAAIgEFQAAAIBIUAEAAACIBBUAAACASFABAAAAiAQVAAAAgEhQAQAAAIgEFQAAAIBIUAEAAACIBBUAAACASFABAAAAiAQVAAAAgEhQAQAAAIgEFQAAAIBIUAEAAACIBBUAAACASFABAAAAiAQVAAAAgEhQAQAAAIgEFQAAAIBIUAEAAACIBBUAAACASFABAAAAiAQVAAAAgEhQAQAAAIgEFQAAAIBIUAEAAACIBBUAAACASFABAAAAiAQVAAAAgEhQAQAAAIgEFQAAAIBIUAEAAACIBBUAAACASFABAAAAiAQVAAAAgEhQAQAAAIgEFQAAAIBIUAEAAACIBBUAAACASFABAAAAiK4evxxe6hDwNr/9fj/3EQAAWJnHL4e5jwAXxQ0VAAAAgEhQAQAAAIgEFQAAAIBIUAEAAACIBBUAAACASFABAAAAiAQVAAAAgEhQAQAAAIgEFQAAAIBIUAEAAACIBBUAAACASFABAAAAiAQVAAAAgEhQAQAAAIgEFQAAAIBIUAEAAACIBBUAAACASFABAAAAiAQVAAAAgEhQAQAAAIgEFQAAAIBIUAEAAACIBBUAAACASFABAAAAiAQVAAAAgEhQAQAAAIgEFQAAAIBouznebxZhf+gzS/lsazaytz/ZHQAArPN3aH8jLJfd/YUbKgAAAACRoAIAAAAQCSoAAAAAkaACAAAAEAkqAAAAAJGgAgAAABAJKgAAAACRoAIAAAAQCSoAAAAAkaACAAAAEAkqAAAAAJGgAgAAABAJKgAAAACRoAIAAAAQCSoAAAAAkaACAAAAEAkqAAAAAJGgAgAAABAJKgAAAACRoAIAAAAQCSoAAAAAkaACAAAAEAkqAAAAAJGgAgAAABAJKgAAAACRoAIAAAAQCSoAAAAAkaACAAAAEAkqAAAAAJGgAgAAABAJKgAAAACRoAIAAAAQCSoAAAAAkaACAAAAEAkqAAAAAJGgAgAAABAJKgAAAACRoAIAAAAQCSoAAAAAkaACAAAAEAkqAAAAAJGgAgAAABAJKgAAAACRoAIAAAAQCSoAAAAAkaACAAAAEAkqAAAAAJGgAgAAABAJKgAAAACRoAIAAAAQCSoAAAAAkaACAAAAEAkqAAAAAJGgAgAAABBdPX45vNQh4G1++/1+7iMAALAyj18Ocx8BLoobKgAAAACRoAIAAAAQCSoAAAAAkaACAAAAEAkqAAAAAJGgAgAAABAJKgAAAACRoAIAAAAQCSoAAAAAkaACAAAAEAkqAAAAAJGgAgAAABAJKgAAAACRoAIAAAAQCSoAAAAAkaACAAAAEAkqAAAAAJGgAgAAABAJKgAAAACRoAIAAAAQCSoAAAAAkaACAAAAEAkqAAAAAJGgAgAAABAJKgAAAACRoAIAAAAQCSoAAAAA0XZzvK8z67c/jM35Ls/HDgAAoPG78M/8XbHcPRzf/w7cUAEAAACIBBUAAACASFABAAAAiAQVAAAAgEhQAQAAAIgEFQAAAIBIUAEAAACIBBUAAACASFABAAAAiAQVAAAAgEhQAQAAAIgEFQAAAIBIUAEAAACIBBUAAACASFABAAAAiAQVAAAAgEhQAQAAAIgEFQAAAIBIUAEAAACIBBUAAACASFABAAAAiAQVAAAAgEhQAQAAAIgEFQAAAIBIUAEAAACIBBUAAACASFABAAAAiAQVAAAAgEhQAQAAAIgEFQAAAIBIUAEAAACIBBUAAACASFABAAAAiAQVAAAAgEhQAQAAAIgEFQAAAIBIUAEAAACIBBUAAACASFABAAAAiAQVAAAAgEhQAQAAAIgEFQAAAIBIUAEAAACIBBUAAACASFABAAAAiAQVAAAAgEhQAQAAAIgEFQAAAIBIUAEAAACIBBUAAACASFABAAAAiAQVAAAAgEhQAQAAAIgEFQAAAIBIUAEAAACItnUAAJbo279v1ms39wFYjB/TPerjf033LACYgxsqAAAAAJGgAgAAABAJKgAAAACRoAIAAAAQCSoAAAAAkaACAAAAEAkqAAAAAJGgAgAAABAJKgAAAACRoAIAAAAQCSoAAAAAkaACAAAAEG3rAADwN3YTP+9u4udxPg8LeTd/bCbz/eZmuofBO/Xh6WnuIwCv4IYKAAAAQCSoAAAAAESCCgAAAEAkqAAAAABEggoAAABAJKgAAAAARIIKAAAAQCSoAAAAAESCCgAAAEAkqAAAAABEggoAAABAJKgAAAAARIIKAAAAQLStAwBwMXZzH4DVuxucO078Ti/gZ+HD09PcR4CffL+5mfsIwC/khgoAAABAJKgAAAAARIIKAAAAQCSoAAAAAESCCgAAAEAkqAAAAABEggoAAABAJKgAAAAARIIKAAAAQCSoAAAAAESCCgAAAEAkqAAAAABEggoAAABAtK0DALBIuwmfdTc49zA4dxyc2w/OcT4PE7/PU7+bALBibqgAAAAARIIKAAAAQCSoAAAAAESCCgAAAEAkqAAAAABEggoAAABAJKgAAAAARIIKAAAAQCSoAAAAAESCCgAAAEAkqAAAAABEggoAAABAJKgAAAAARNvN/lBn+Fd8l/Nbyg7+uJ/7BMBr3G2WYTc4dxyc2w/OrdnDxM9byrsJTGspvwsvge9yfvv3vwM3VAAAAAAiQQUAAAAgElQAAAAAIkEFAAAAIBJUAAAAACJBBQAAACASVAAAAAAiQQUAAAAgElQAAAAAIkEFAAAAIBJUAAAAACJBBQAAACASVAAAAACibR0AAH6Ru8G5h8G53cTPG/18Uxr9bJsVfycs1vPg3PWZzwGwVm6oAAAAAESCCgAAAEAkqAAAAABEggoAAABAJKgAAAAARIIKAAAAQCSoAAAAAESCCgAAAEAkqAAAAABEggoAAABAJKgAAAAARIIKAAAAQCSoAAAAAETbzfF+swj7Q59Zymdbs5G9/cnuAF7vbnDuODi3G5x7mPCzjTzrLUbPCa/0PDCzvb0de9bpNDR3PTTFWS3ld2h/IyyX3f2FGyoAAAAAkaACAAAAEAkqAAAAAJGgAgAAABAJKgAAAACRoAIAAAAQCSoAAAAAkaACAAAAEAkqAAAAAJGgAgAAABAJKgAAAACRoAIAAAAQCSoAAAAA0bYOAAArsR+cO575HO/lWW/5TuCVngfntre3Zz7J+Z/1fDoNzV0PTQHMzw0VAAAAgEhQAQAAAIgEFQAAAIBIUAEAAACIBBUAAACASFABAAAAiAQVAAAAgEhQAQAAAIgEFQAAAIBIUAEAAACIBBUAAACASFABAAAAiLZ1AAAAGHM9OPd8OuWZ7e3t0LP+MfCst3w2gKVyQwUAAAAgElQAAAAAIkEFAAAAIBJUAAAAACJBBQAAACASVAAAAAAiQQUAAAAgElQAAAAAIkEFAAAAIBJUAAAAACJBBQAAACASVAAAAAAiQQUAAAAg2tYBAODC7SZ81t3g3MPEc6PnhFe6Hph5Pp0mexbAJXJDBQAAACASVAAAAAAiQQUAAAAgElQAAAAAIkEFAAAAIBJUAAAAACJBBQAAACASVAAAAAAiQQUAAAAgElQAAAAAIkEFAAAAIBJUAAAAACJBBQAAACDabvaHzWqt+bOt3dp398f93CcA2GweJn7e3Wa9Rr/LNX8nzO567gMwvbX/Dr32z7dm+3Xuzg0VAAAAgEhQAQAAAIgEFQAAAIBIUAEAAACIBBUAAACASFABAAAAiAQVAAAAgEhQAQAAAIgEFQAAAIBIUAEAAACIBBUAAACASFABAAAAiAQVAAAAgGhbBwDgYjwMzt0Nzh0H53abaY1+viktZQdTv2MAwNm4oQIAAAAQCSoAAAAAkaACAAAAEAkqAAAAAJGgAgAAABAJKgAAAACRoAIAAAAQCSoAAAAAkaACAAAAEAkqAAAAAJGgAgAAABAJKgAAAACRoAIAAAAQbTfH+zqzfvvD2Jzv8nzsAFiy42YZ7uY+wDu0n3jnu8G5h8E5YN38Lvwzf1csdw/H978DN1QAAAAAIkEFAAAAIBJUAAAAACJBBQAAACASVAAAAAAiQQUAAAAgElQAAAAAIkEFAAAAIBJUAAAAACJBBQAAACASVAAAAAAiQQUAAAAgElQAAAAAom0dAIBF+jEwsxt81ujcqLuJn8fP9oNzx4W8YyM/PwCwcm6oAAAAAESCCgAAAEAkqAAAAABEggoAAABAJKgAAAAARIIKAAAAQCSoAAAAAESCCgAAAEAkqAAAAABEggoAAABAJKgAAAAARIIKAAAAQCSoAAAAAETbOgAAF+PH4NzuzOdgvXYLeacX4PvNzdxHAODCuKECAAAAEAkqAAAAAJGgAgAAABAJKgAAAACRoAIAAAAQCSoAAAAAkaACAAAAEAkqAAAAAJGgAgAAABAJKgAAAACRoAIAAAAQCSoAAAAAkaACAAAAEG3rAADwN34Mzu0G5x4G57i8d2wBPjw9zX0EAHgVN1QAAAAAIkEFAAAAIBJUAAAAACJBBQAAACASVAAAAAAiQQUAAAAgElQAAAAAIkEFAAAAIBJUAAAAACJBBQAAACASVAAAAAAiQQUAAAAg2tYB4DJ8/Ho7NPft0+nsZ2Eadv4O/Bic2535HLx/u4nfMQDgJ26oAAAAAESCCgAAAEAkqAAAAABEggoAAABAJKgAAAAARIIKAAAAQCSoAAAAAESCCgAAAEAkqAAAAABEggoAAABAJKgAAAAARIIKAAAAQCSoAAAAAETbOgDw//n49XZo7tun09nPcqlGd8AZ7SZ+3t3Ez+N8Hhbybv7YTOb7zc10D4N36sPT09xHAF7BDRUAAACASFABAAAAiAQVAAAAgEhQAQAAAIgEFQAAAIBIUAEAAACIBBUAAACASFABAAAAiAQVAAAAgEhQAQAAAIgEFQAAAIBIUAEAAACIBBUAAACAaFsHgMvw7dNpaO7j19tJ55h/56u2m/sArN7d4Nxx4nd6AT8LH56e5j4C/OT7zc3cRwB+ITdUAAAAACJBBQAAACASVAAAAAAiQQUAAAAgElQAAAAAIkEFAAAAIBJUAAAAACJBBQAAACASVAAAAAAiQQUAAAAgElQAAAAAIkEFAAAAIBJUAAAAAKJtHQCARdpN+Ky7wbmHwbnj4Nx+cI7zeZj4fZ763QSAFXNDBQAAACASVAAAAAAiQQUAAAAgElQAAAAAIkEFAAAAIBJUAAAAACJBBQAAACASVAAAAAAiQQUAAAAgElQAAAAAIkEFAAAAIBJUAAAAACJBBQAAACC6evxyeKlDwNv89vv95r37+PV20ud9+3Sa9Hlr/nxr/mxv8W3kx+5uM62HiZ/3Y3Buf+ZzrMHUu1vAu/nxMPao7zc3Q3Mfnp7GHgi/0NTv8+OXwR88YIgbKgAAAACRoAIAAAAQCSoAAAAAkaACAAAAEAkqAAAAAJGgAgAAABAJKgAAAACRoAIAAAAQCSoAAAAAkaACAAAAEAkqAAAAAJGgAgAAABAJKgAAAADRtg4Ay/Px6+3cR2DFRt+vb59OZz/L4t0Nzj0Mzu0mft7o55vS6GfbrPg7YbGeB+euz3wOgLVyQwUAAAAgElQAAAAAIkEFAAAAIBJUAAAAACJBBQAAACASVAAAAAAiQQUAAAAgElQAAAAAIkEFAAAAIBJUAAAAACJBBQAAACASVAAAAAAiQQUAAAAg2m6O95tF2B/6zFI+25qN7O1PdvdPffx6u1mrNX+2S/h8U34n3z6dzn6WxbsbnDsOzu0G5x4m/Gwjz3qL0XPCKz0PzGxvx/6dfT6N/Tt7PTTFWS3ld2h/IyyX3f2FGyoAAAAAkaACAAAAEAkqAAAAAJGgAgAAABAJKgAAAACRoAIAAAAQCSoAAAAAkaACAAAAEAkqAAAAAJGgAgAAABAJKgAAAACRoAIAAAAQbesA8HYfv97OfQS4vJ+f/z6d+yjLtx+cO575HO/lWW/5TuCVngfntrfT/e4w+qzn09i/s9dDUwDzc0MFAAAAIBJUAAAAACJBBQAAACASVAAAAAAiQQUAAAAgElQAAAAAIkEFAAAAIBJUAAAAACJBBQAAACASVAAAAAAiQQUAAAAgElQAAAAAIkEFAAAAINrWAQAAYMz14Nzz6ZRntre3Q8/6x8Cz3vLZAJbKDRUAAACASFABAAAAiAQVAAAAgEhQAQAAAIgEFQAAAIBIUAEAAACIBBUAAACASFABAAAAiAQVAAAAgEhQAQAAAIgEFQAAAIBIUAEAAACIBBUAAACAaFsHAIALt5vwWXeDcw8Tz42eE17pemDm+XSa7FkAl8gNFQAAAIBIUAEAAACIBBUAAACASFABAAAAiAQVAAAAgEhQAQAAAIgEFQAAAIBIUAEAAACIBBUAAACASFABAAAAiAQVAAAAgEhQAQAAAIgEFQAAAIBou9kfNqu15s+2dqvf3X/OfQCAzeZh4ufdbdZr9Ltc83fC7K7nPgDTW/vv0Gv/fGu2X+fu3FABAAAAiAQVAAAAgEhQAQAAAIgEFQAAAIBIUAEAAACIBBUAAACASFABAAAAiAQVAAAAgEhQAQAAAIgEFQAAAIBIUAEAAACIBBUAAACASFABAAAAiLZ1AAAuxsPg3N3g3HFwbreZ1ujnm9JSdjD1OwYAnI0bKgAAAACRoAIAAAAQCSoAAAAAkaACAAAAEAkqAAAAAJGgAgAAABAJKgAAAACRoAIAAAAQCSoAAAAAkaACAAAAEAkqAAAAAJGgAgAAABAJKgAAAADRdnO8rzPrtz+Mzfkuz2flO/j2+7TP+/j1dtoHwit8+3Sa9oFT/vNw3CzD3dwHeIf2E+98Nzj3MDgHrNtCfhee1Mr/rlj1Ho7vfwduqAAAAABEggoAAABAJKgAAAAARIIKAAAAQCSoAAAAAESCCgAAAEAkqAAAAABEggoAAABAJKgAAAAARIIKAAAAQCSoAAAAAESCCgAAAEAkqAAAAABE2zoALM+3T6fJnvXx6+27P+Pa2cG/8GNgZjf4rNG5UXcTP4+f7Qfnjgt5x0Z+fgBg5dxQAQAAAIgEFQAAAIBIUAEAAACIBBUAAACASFABAAAAiAQVAAAAgEhQAQAAAIgEFQAAAIBIUAEAAACIBBUAAACASFABAAAAiAQVAAAAgGhbBwDgYvwYnNud+Rys124h7/QCfL+5mfsIAFwYN1QAAAAAIkEFAAAAIBJUAAAAACJBBQAAACASVAAAAAAiQQUAAAAgElQAAAAAIkEFAAAAIBJUAAAAACJBBQAAACASVAAAAAAiQQUAAAAgElQAAAAAom0dAAD+xo/Bud3g3MPgHJf3ji3Ah6enuY8AAK/ihgoAAABAJKgAAAAARIIKAAAAQCSoAAAAAESCCgAAAEAkqAAAAABEggoAAABAJKgAAAAARIIKAAAAQCSoAAAAAESCCgAAAEAkqAAAAABEggoAAABAtK0DwNs9ft6s13+cxua+HMbmjvdjc2tmB//U//7P3Cd4h/br3vkirHgHq/6/7i1WvPPFsAPgTNxQAQAAAIgEFQAAAIBIUAEAAACIBBUAAACASFABAAAAiAQVAAAAgEhQAQAAAIgEFQAAAIBIUAEAAACIBBUAAACASFABAAAAiAQVAAAAgEhQAQAAAIgEFQAAAIBIUAEAAACIBBUAAACASFABAAAAiAQVAAAAgEhQAQAAAIgEFQAAAIBIUAEAAACIBBUAAACASFABAAAAiAQVAAAAgEhQAQAAAIgEFQAAAIBIUAEAAACIBBUAAACASFABAAAAiAQVAAAAgEhQAQAAAIgEFQAAAIBIUAEAAACIBBUAAACASFABAAAAiAQVAAAAgEhQAQAAAIgEFQAAAIBIUAEAAACIBBUAAACASFABAAAAiAQVAAAAgEhQAQAAAIgEFQAAAIBIUAEAAACIBBUAAACASFABAAAAiAQVAAAAgEhQAQAAAIgEFQAAAIBIUAEAAACIBBUAAACASFABAAAAiAQVAAAAgEhQAQAAAIiuHr8cXuoQAAAAwCVzQwUAAAAgElQAAAAAIkEFAAAAIBJUAAAAACJBBQAAACASVAAAAAAiQQUAAAAgElQAAAAAIkEFAAAAIBJUAAAAACJBBQAAACASVAAAAAAiQQUAAAAgElQAAAAAIkEFAAAAIBJUAAAAACJBBQAAACASVAAAAAAiQQUAAAAgElQAAAAAIkEFAAAAIBJUAAAAACJBBQAAACASVAAAAAAiQQUAAAAgElQAAAAAoqvHz5uXzRLsD33meP8rTsKv3tuf7G5+drdcdrdcdrdcdrdcdrdcdrdcdrdcdvcXbqgAAAAARIIKAAAAQCSoAAAAAESCCgAAAEAkqAAAAABEggoAAABAJKgAAAAARIIKAAAAQCSoAAAAAESCCgAAAEAkqAAAAABEggoAAABAJKgAAAAARIIKAAAAQCSoAAAAAESCCgAAAEAkqAAAAABEggoAAABAJKgAAAAARIIKAAAAQCSoAAAAAESCCgAAAEAkqAAAAABEggoAAABAJKgAAAAARIIKAAAAQCSoAAAAAESCCgAAAEAkqAAAAABEggoAAABAJKgAAAAARIIKAAAAQCSoAAAAAESCCgAAAEAkqAAAAABEggoAAABAJKgAAAAARIIKAAAAQCSoAAAAAESCCgAAAEAkqAAAAABEggoAAABAJKgAAAAARIIKAAAAQCSoAAAAAESCCgAAAEAkqAAAAABEggoAAABAJKgAAAAARIIKAAAAQCSoAAAAAESCCgAAAEAkqAAAAABEggoAAABAJKgAAAAARFePXw4vdQgAAADgkrmhAgAAABAJKgAAAACRoAIAAAAQCSoAAAAAkaACAAAAEAkqAAAAAJGgAgAAABAJKgAAAACRoAIAAAAQCSoAAAAAkaACAAAAEAkqAAAAAJGgAgAAABAJKgAAAACRoAIAAAAQCSoAAAAAkaACAAAAEAkqAAAAAJGgAgAAABAJKgAAAACRoAIAAAAQCSoAAAAAkaACAAAAEAkqAAAAAJGgAgAAABAJKgAAAACRoAIAAAAQXT1+3rzUodXbH8bmjvfnPsnlsoPLY+fzs4PLY+fzs4PLY+fzs4PLYt/L3cPx/e/ADRUAAACASFABAAAAiAQVAAAAgEhQAQAAAIgEFQAAAIBIUAEAAACIBBUAAACASFABAAAAiAQVAAAAgEhQAQAAAIgEFQAAAIBIUAEAAACIBBUAAACASFABAAAAiAQVAAAAgEhQAQAAAIgEFQAAAIBIUAEAAACIBBUAAACASFABAAAAiAQVAAAAgEhQAQAAAIgEFQAAAIBIUAEAAACIBBUAAACASFABAAAAiAQVAAAAgEhQAQAAAIgEFQAAAIBIUAEAAACIBBUAAACASFABAAAAiAQVAAAAgEhQAQAAAIgEFQAAAIBIUAEAAACIBBUAAACASFABAAAAiAQVAAAAgEhQAQAAAIgEFQAAAIBIUAEAAACIBBUAAACASFABAAAAiAQVAAAAgEhQAQAAAIgEFQAAAIBIUAEAAACIBBUAAACASFABAAAAiAQVAAAAgEhQAQAAAIgEFQAAAIBIUAEAAADYNP8HN7i/6PAfGicAAAAASUVORK5CYII=;clipPath=inset(0% 0% 0% 0% round 49%);" parent="mhYo0zj6bfY33cigUTVe-22" vertex="1">
          <mxGeometry x="50" y="50" width="500" height="500" as="geometry" />
        </mxCell>
        <mxCell id="oyaKjV_WXcEfCoysOoAM-3" style="edgeStyle=orthogonalEdgeStyle;rounded=0;orthogonalLoop=1;jettySize=auto;html=1;exitX=1;exitY=0.5;exitDx=0;exitDy=0;strokeWidth=20;fillColor=#f5f5f5;strokeColor=#666666;flowAnimation=0;entryX=0;entryY=0.5;entryDx=0;entryDy=0;" parent="1" source="mhYo0zj6bfY33cigUTVe-5" target="mhYo0zj6bfY33cigUTVe-6" edge="1">
          <mxGeometry relative="1" as="geometry">
            <mxPoint x="6220" y="210" as="sourcePoint" />
            <mxPoint x="7070" y="-80" as="targetPoint" />
          </mxGeometry>
        </mxCell>
        <mxCell id="oyaKjV_WXcEfCoysOoAM-4" style="edgeStyle=orthogonalEdgeStyle;rounded=0;orthogonalLoop=1;jettySize=auto;html=1;exitX=1;exitY=0.5;exitDx=0;exitDy=0;strokeWidth=20;fillColor=#f5f5f5;strokeColor=#666666;flowAnimation=0;entryX=0;entryY=0.5;entryDx=0;entryDy=0;" parent="1" source="mhYo0zj6bfY33cigUTVe-6" target="mhYo0zj6bfY33cigUTVe-2" edge="1">
          <mxGeometry relative="1" as="geometry">
            <mxPoint x="6720" y="630" as="sourcePoint" />
            <mxPoint x="3270" y="-810" as="targetPoint" />
            <Array as="points">
              <mxPoint x="8900" y="-60" />
              <mxPoint x="8900" y="-360" />
              <mxPoint x="-200" y="-360" />
              <mxPoint x="-200" y="-60" />
            </Array>
          </mxGeometry>
        </mxCell>
        <mxCell id="oyaKjV_WXcEfCoysOoAM-48" value="" style="endArrow=classic;html=1;rounded=0;fontFamily=Helvetica;fontSize=18;fontColor=default;strokeWidth=20;fillColor=#f5f5f5;strokeColor=#666666;exitX=0.221;exitY=0.921;exitDx=0;exitDy=0;entryX=0.702;entryY=0.041;entryDx=0;entryDy=0;exitPerimeter=0;entryPerimeter=0;" parent="1" edge="1">
          <mxGeometry width="50" height="50" relative="1" as="geometry">
            <mxPoint x="3250" y="235" as="sourcePoint" />
            <mxPoint x="2850" y="935" as="targetPoint" />
          </mxGeometry>
        </mxCell>
        <mxCell id="oyaKjV_WXcEfCoysOoAM-67" value="" style="endArrow=classic;html=1;rounded=0;fontFamily=Helvetica;fontSize=18;fontColor=default;strokeWidth=20;fillColor=#f5f5f5;strokeColor=#666666;exitX=0.221;exitY=0.921;exitDx=0;exitDy=0;entryX=0.702;entryY=0.041;entryDx=0;entryDy=0;exitPerimeter=0;entryPerimeter=0;" parent="1" edge="1">
          <mxGeometry width="50" height="50" relative="1" as="geometry">
            <mxPoint x="5750" y="235" as="sourcePoint" />
            <mxPoint x="5350" y="935" as="targetPoint" />
          </mxGeometry>
        </mxCell>
        <mxCell id="oyaKjV_WXcEfCoysOoAM-60" value="" style="ellipse;whiteSpace=wrap;html=1;aspect=fixed;strokeWidth=20;fillColor=#f5f5f5;fontColor=#333333;strokeColor=#666666;" parent="1" vertex="1">
          <mxGeometry x="2000" y="1600" width="600" height="600" as="geometry" />
        </mxCell>
        <mxCell id="oyaKjV_WXcEfCoysOoAM-50" value="" style="endArrow=classic;html=1;rounded=0;fontFamily=Helvetica;fontSize=18;fontColor=default;strokeWidth=20;fillColor=#f5f5f5;strokeColor=#666666;exitX=0.221;exitY=0.921;exitDx=0;exitDy=0;entryX=0.702;entryY=0.041;entryDx=0;entryDy=0;exitPerimeter=0;entryPerimeter=0;" parent="1" edge="1">
          <mxGeometry width="50" height="50" relative="1" as="geometry">
            <mxPoint x="2950" y="235" as="sourcePoint" />
            <mxPoint x="3350" y="935" as="targetPoint" />
          </mxGeometry>
        </mxCell>
        <mxCell id="oyaKjV_WXcEfCoysOoAM-51" value="" style="ellipse;whiteSpace=wrap;html=1;aspect=fixed;strokeWidth=20;fillColor=#f5f5f5;fontColor=#333333;strokeColor=#666666;" parent="1" vertex="1">
          <mxGeometry x="2800" y="200" width="600" height="600" as="geometry" />
        </mxCell>
        <mxCell id="oyaKjV_WXcEfCoysOoAM-63" value="" style="endArrow=classic;html=1;rounded=0;fontFamily=Helvetica;fontSize=18;fontColor=default;strokeWidth=20;fillColor=#f5f5f5;strokeColor=#666666;exitX=0.221;exitY=0.921;exitDx=0;exitDy=0;entryX=0.702;entryY=0.041;entryDx=0;entryDy=0;exitPerimeter=0;entryPerimeter=0;" parent="1" edge="1">
          <mxGeometry width="50" height="50" relative="1" as="geometry">
            <mxPoint x="2850" y="940" as="sourcePoint" />
            <mxPoint x="2450" y="1640" as="targetPoint" />
          </mxGeometry>
        </mxCell>
        <mxCell id="oyaKjV_WXcEfCoysOoAM-54" value="" style="ellipse;whiteSpace=wrap;html=1;aspect=fixed;strokeWidth=20;fillColor=#f5f5f5;fontColor=#333333;strokeColor=#666666;" parent="1" vertex="1">
          <mxGeometry x="3200" y="900" width="600" height="600" as="geometry" />
        </mxCell>
        <mxCell id="oyaKjV_WXcEfCoysOoAM-79" value="" style="ellipse;whiteSpace=wrap;html=1;aspect=fixed;strokeWidth=20;fillColor=#f5f5f5;fontColor=#333333;strokeColor=#666666;" parent="1" vertex="1">
          <mxGeometry x="4500" y="1600" width="600" height="600" as="geometry" />
        </mxCell>
        <mxCell id="oyaKjV_WXcEfCoysOoAM-82" value="" style="endArrow=classic;html=1;rounded=0;fontFamily=Helvetica;fontSize=18;fontColor=default;strokeWidth=20;fillColor=#f5f5f5;strokeColor=#666666;exitX=0.221;exitY=0.921;exitDx=0;exitDy=0;entryX=0.702;entryY=0.041;entryDx=0;entryDy=0;exitPerimeter=0;entryPerimeter=0;" parent="1" edge="1">
          <mxGeometry width="50" height="50" relative="1" as="geometry">
            <mxPoint x="5350" y="940" as="sourcePoint" />
            <mxPoint x="4950" y="1640" as="targetPoint" />
          </mxGeometry>
        </mxCell>
        <mxCell id="oyaKjV_WXcEfCoysOoAM-84" value="" style="ellipse;whiteSpace=wrap;html=1;aspect=fixed;strokeWidth=20;fillColor=#f5f5f5;strokeColor=#666666;fontColor=#333333;" parent="1" vertex="1">
          <mxGeometry x="4900" y="900" width="600" height="600" as="geometry" />
        </mxCell>
        <mxCell id="oyaKjV_WXcEfCoysOoAM-69" value="" style="endArrow=classic;html=1;rounded=0;fontFamily=Helvetica;fontSize=18;fontColor=default;strokeWidth=20;fillColor=#f5f5f5;strokeColor=#666666;exitX=0.221;exitY=0.921;exitDx=0;exitDy=0;entryX=0.702;entryY=0.041;entryDx=0;entryDy=0;exitPerimeter=0;entryPerimeter=0;" parent="1" edge="1">
          <mxGeometry width="50" height="50" relative="1" as="geometry">
            <mxPoint x="5450" y="235" as="sourcePoint" />
            <mxPoint x="5850" y="935" as="targetPoint" />
          </mxGeometry>
        </mxCell>
        <mxCell id="oyaKjV_WXcEfCoysOoAM-70" value="" style="ellipse;whiteSpace=wrap;html=1;aspect=fixed;strokeWidth=20;fillColor=#f5f5f5;fontColor=#333333;strokeColor=#666666;" parent="1" vertex="1">
          <mxGeometry x="5300" y="200" width="600" height="600" as="geometry" />
        </mxCell>
        <mxCell id="oyaKjV_WXcEfCoysOoAM-73" value="" style="ellipse;whiteSpace=wrap;html=1;aspect=fixed;strokeWidth=20;fillColor=#f5f5f5;fontColor=#333333;strokeColor=#666666;" parent="1" vertex="1">
          <mxGeometry x="5700" y="900" width="600" height="600" as="geometry" />
        </mxCell>
        <mxCell id="oyaKjV_WXcEfCoysOoAM-98" value="" style="ellipse;whiteSpace=wrap;html=1;aspect=fixed;strokeWidth=20;fillColor=#f5f5f5;fontColor=#333333;strokeColor=#666666;" parent="1" vertex="1">
          <mxGeometry x="6990" y="1600" width="600" height="600" as="geometry" />
        </mxCell>
        <mxCell id="oyaKjV_WXcEfCoysOoAM-95" value="" style="ellipse;whiteSpace=wrap;html=1;aspect=fixed;strokeWidth=20;fillColor=#d5e8d4;strokeColor=#82b366;" parent="1" vertex="1">
          <mxGeometry x="7790" y="1600" width="600" height="600" as="geometry" />
        </mxCell>
        <mxCell id="oyaKjV_WXcEfCoysOoAM-101" value="" style="endArrow=classic;html=1;rounded=0;fontFamily=Helvetica;fontSize=18;fontColor=default;strokeWidth=20;fillColor=#f5f5f5;strokeColor=#666666;exitX=0.221;exitY=0.921;exitDx=0;exitDy=0;entryX=0.702;entryY=0.041;entryDx=0;entryDy=0;exitPerimeter=0;entryPerimeter=0;" parent="1" edge="1">
          <mxGeometry width="50" height="50" relative="1" as="geometry">
            <mxPoint x="7850" y="940" as="sourcePoint" />
            <mxPoint x="7450" y="1640" as="targetPoint" />
          </mxGeometry>
        </mxCell>
        <mxCell id="oyaKjV_WXcEfCoysOoAM-103" value="" style="ellipse;whiteSpace=wrap;html=1;aspect=fixed;strokeWidth=20;fillColor=#d5e8d4;strokeColor=#82b366;" parent="1" vertex="1">
          <mxGeometry x="7400" y="900" width="600" height="600" as="geometry" />
        </mxCell>
        <mxCell id="oyaKjV_WXcEfCoysOoAM-88" value="" style="endArrow=classic;html=1;rounded=0;fontFamily=Helvetica;fontSize=18;fontColor=default;strokeWidth=20;fillColor=#f5f5f5;strokeColor=#666666;exitX=0.221;exitY=0.921;exitDx=0;exitDy=0;entryX=0.702;entryY=0.041;entryDx=0;entryDy=0;exitPerimeter=0;entryPerimeter=0;" parent="1" edge="1">
          <mxGeometry width="50" height="50" relative="1" as="geometry">
            <mxPoint x="7950" y="235" as="sourcePoint" />
            <mxPoint x="8350" y="935" as="targetPoint" />
          </mxGeometry>
        </mxCell>
        <mxCell id="oyaKjV_WXcEfCoysOoAM-89" value="" style="ellipse;whiteSpace=wrap;html=1;aspect=fixed;strokeWidth=20;fillColor=#d5e8d4;strokeColor=#82b366;" parent="1" vertex="1">
          <mxGeometry x="7800" y="200" width="600" height="600" as="geometry" />
        </mxCell>
        <mxCell id="oyaKjV_WXcEfCoysOoAM-92" value="" style="ellipse;whiteSpace=wrap;html=1;aspect=fixed;strokeWidth=20;fillColor=#f5f5f5;fontColor=#333333;strokeColor=#666666;" parent="1" vertex="1">
          <mxGeometry x="8200" y="900" width="600" height="600" as="geometry" />
        </mxCell>
        <mxCell id="oyaKjV_WXcEfCoysOoAM-114" value="&lt;span style=&quot;font-size:125%;line-height:1em&quot;&gt;V(s)&lt;/span&gt;" style="text;html=1;align=center;verticalAlign=middle;whiteSpace=wrap;rounded=0;fontSize=128;fontColor=#82B366;fontStyle=1" parent="1" vertex="1">
          <mxGeometry x="7820" y="1800" width="540" height="200" as="geometry" />
        </mxCell>
        <mxCell id="oyaKjV_WXcEfCoysOoAM-115" value="&lt;span style=&quot;font-size:125%;line-height:1em&quot;&gt;V(s)&lt;/span&gt;" style="text;html=1;align=center;verticalAlign=middle;whiteSpace=wrap;rounded=0;fontSize=128;fontColor=#82B366;fontStyle=1" parent="1" vertex="1">
          <mxGeometry x="7430" y="1100" width="540" height="200" as="geometry" />
        </mxCell>
        <mxCell id="oyaKjV_WXcEfCoysOoAM-118" value="&lt;b&gt;V(s)&lt;/b&gt;" style="text;html=1;align=center;verticalAlign=middle;whiteSpace=wrap;rounded=0;fontSize=128;fontColor=#82B366;" parent="1" vertex="1">
          <mxGeometry x="5450" y="2520" width="300" height="200" as="geometry" />
        </mxCell>
        <mxCell id="oyaKjV_WXcEfCoysOoAM-119" value="&lt;span style=&quot;font-size: 160px;&quot;&gt;&lt;b&gt;V(s)&lt;/b&gt;&lt;/span&gt;" style="text;html=1;align=center;verticalAlign=middle;whiteSpace=wrap;rounded=0;fontSize=128;fontColor=#82B366;" parent="1" vertex="1">
          <mxGeometry x="7830" y="400" width="540" height="200" as="geometry" />
        </mxCell>
        <mxCell id="oyaKjV_WXcEfCoysOoAM-320" value="&lt;font style=&quot;font-size: 160px;&quot;&gt;Expansion&lt;/font&gt;" style="swimlane;horizontal=0;whiteSpace=wrap;html=1;startSize=200;fillColor=#f5f5f5;fontColor=#333333;strokeColor=#666666;strokeWidth=8;" parent="1" vertex="1">
          <mxGeometry x="-830" y="2790" width="9860" height="1710" as="geometry" />
        </mxCell>
        <mxCell id="oyaKjV_WXcEfCoysOoAM-412" value="&lt;font&gt;Backpropagation&lt;/font&gt;" style="text;html=1;align=center;verticalAlign=middle;whiteSpace=wrap;rounded=0;fontStyle=1;fontSize=128;fillColor=#f5f5f5;fontColor=#333333;strokeColor=#666666;strokeWidth=8;" parent="oyaKjV_WXcEfCoysOoAM-320" vertex="1">
          <mxGeometry x="2730" y="1400" width="1200" height="200" as="geometry" />
        </mxCell>
        <mxCell id="oyaKjV_WXcEfCoysOoAM-398" value="&lt;div&gt;&lt;br/&gt;&lt;/div&gt;" style="rounded=0;whiteSpace=wrap;html=1;fillColor=#f5f5f5;strokeColor=#666666;strokeWidth=20;fontColor=#333333;" parent="oyaKjV_WXcEfCoysOoAM-320" vertex="1">
          <mxGeometry x="1790" y="180" width="1080" height="1080" as="geometry" />
        </mxCell>
        <mxCell id="oyaKjV_WXcEfCoysOoAM-214" value="&lt;font style=&quot;font-size: 128px;&quot;&gt;Knowledge Graph&lt;/font&gt;" style="swimlane;whiteSpace=wrap;html=1;startSize=200;strokeWidth=20;fillColor=#d5e8d4;strokeColor=#82b366;container=0;fontColor=#82B366;" parent="oyaKjV_WXcEfCoysOoAM-320" vertex="1">
          <mxGeometry x="3830" y="180" width="2000" height="1080" as="geometry" />
        </mxCell>
        <mxCell id="oyaKjV_WXcEfCoysOoAM-233" value="&lt;font style=&quot;font-size: 128px;&quot;&gt;LLM Agent&lt;/font&gt;" style="swimlane;whiteSpace=wrap;html=1;startSize=200;strokeWidth=20;fillColor=#d5e8d4;strokeColor=#82b366;container=0;fontColor=#82B366;" parent="oyaKjV_WXcEfCoysOoAM-320" vertex="1">
          <mxGeometry x="6730" y="180" width="1010" height="1080" as="geometry" />
        </mxCell>
        <mxCell id="oyaKjV_WXcEfCoysOoAM-215" value="&lt;font style=&quot;&quot;&gt;Environment&lt;/font&gt;" style="text;html=1;align=center;verticalAlign=middle;whiteSpace=wrap;rounded=0;fontSize=128;container=0;fontColor=#82B366;fontStyle=1" parent="oyaKjV_WXcEfCoysOoAM-320" vertex="1">
          <mxGeometry x="4830" y="382" width="1000" height="200" as="geometry" />
        </mxCell>
        <mxCell id="oyaKjV_WXcEfCoysOoAM-216" value="&lt;font style=&quot;&quot;&gt;MCTS&lt;/font&gt;" style="text;html=1;align=center;verticalAlign=middle;whiteSpace=wrap;rounded=0;fontSize=128;container=0;fontStyle=1;fontColor=#82B366;" parent="oyaKjV_WXcEfCoysOoAM-320" vertex="1">
          <mxGeometry x="3830" y="382" width="1000" height="200" as="geometry" />
        </mxCell>
        <mxCell id="oyaKjV_WXcEfCoysOoAM-164" value="" style="endArrow=classic;html=1;rounded=0;fontFamily=Helvetica;fontSize=18;fontColor=default;strokeWidth=8;fillColor=#f5f5f5;strokeColor=#666666;exitX=0.221;exitY=0.921;exitDx=0;exitDy=0;entryX=0.702;entryY=0.041;entryDx=0;entryDy=0;exitPerimeter=0;entryPerimeter=0;" parent="oyaKjV_WXcEfCoysOoAM-320" edge="1">
          <mxGeometry width="50" height="50" relative="1" as="geometry">
            <mxPoint x="4377.5" y="601.4499999999998" as="sourcePoint" />
            <mxPoint x="4269.5" y="790.4499999999998" as="targetPoint" />
          </mxGeometry>
        </mxCell>
        <mxCell id="oyaKjV_WXcEfCoysOoAM-168" value="" style="ellipse;whiteSpace=wrap;html=1;aspect=fixed;strokeWidth=8;fillColor=#f5f5f5;fontColor=#333333;strokeColor=#666666;container=0;" parent="oyaKjV_WXcEfCoysOoAM-320" vertex="1">
          <mxGeometry x="4040" y="970" width="162.00000000000003" height="162.00000000000003" as="geometry" />
        </mxCell>
        <mxCell id="oyaKjV_WXcEfCoysOoAM-169" value="" style="endArrow=classic;html=1;rounded=0;fontFamily=Helvetica;fontSize=18;fontColor=default;strokeWidth=8;fillColor=#f5f5f5;strokeColor=#666666;exitX=0.221;exitY=0.921;exitDx=0;exitDy=0;entryX=0.702;entryY=0.041;entryDx=0;entryDy=0;exitPerimeter=0;entryPerimeter=0;" parent="oyaKjV_WXcEfCoysOoAM-320" edge="1">
          <mxGeometry width="50" height="50" relative="1" as="geometry">
            <mxPoint x="4269.5" y="791.8000000000002" as="sourcePoint" />
            <mxPoint x="4161.5" y="980.8000000000002" as="targetPoint" />
          </mxGeometry>
        </mxCell>
        <mxCell id="oyaKjV_WXcEfCoysOoAM-170" value="" style="ellipse;whiteSpace=wrap;html=1;aspect=fixed;strokeWidth=8;fillColor=#f5f5f5;strokeColor=#666666;fontColor=#333333;container=0;" parent="oyaKjV_WXcEfCoysOoAM-320" vertex="1">
          <mxGeometry x="4148" y="781" width="162.00000000000003" height="162.00000000000003" as="geometry" />
        </mxCell>
        <mxCell id="oyaKjV_WXcEfCoysOoAM-171" value="" style="endArrow=classic;html=1;rounded=0;fontFamily=Helvetica;fontSize=18;fontColor=default;strokeWidth=8;fillColor=#f5f5f5;strokeColor=#666666;exitX=0.221;exitY=0.921;exitDx=0;exitDy=0;entryX=0.702;entryY=0.041;entryDx=0;entryDy=0;exitPerimeter=0;entryPerimeter=0;" parent="oyaKjV_WXcEfCoysOoAM-320" edge="1">
          <mxGeometry width="50" height="50" relative="1" as="geometry">
            <mxPoint x="4296.5" y="601.4499999999998" as="sourcePoint" />
            <mxPoint x="4404.5" y="790.4499999999998" as="targetPoint" />
          </mxGeometry>
        </mxCell>
        <mxCell id="oyaKjV_WXcEfCoysOoAM-172" value="" style="ellipse;whiteSpace=wrap;html=1;aspect=fixed;strokeWidth=8;fillColor=#f5f5f5;fontColor=#333333;strokeColor=#666666;container=0;" parent="oyaKjV_WXcEfCoysOoAM-320" vertex="1">
          <mxGeometry x="4256" y="592" width="162.00000000000003" height="162.00000000000003" as="geometry" />
        </mxCell>
        <mxCell id="oyaKjV_WXcEfCoysOoAM-173" value="" style="ellipse;whiteSpace=wrap;html=1;aspect=fixed;strokeWidth=8;fillColor=#f5f5f5;fontColor=#333333;strokeColor=#666666;container=0;" parent="oyaKjV_WXcEfCoysOoAM-320" vertex="1">
          <mxGeometry x="4364" y="781" width="162.00000000000003" height="162.00000000000003" as="geometry" />
        </mxCell>
        <mxCell id="oyaKjV_WXcEfCoysOoAM-178" value="" style="ellipse;whiteSpace=wrap;html=1;aspect=fixed;strokeWidth=8;fillColor=#f5f5f5;fontColor=#333333;strokeColor=#666666;container=0;" parent="oyaKjV_WXcEfCoysOoAM-320" vertex="1">
          <mxGeometry x="5020" y="1050" width="162.00000000000003" height="162.00000000000003" as="geometry" />
        </mxCell>
        <mxCell id="oyaKjV_WXcEfCoysOoAM-179" value="" style="endArrow=classic;html=1;rounded=0;fontFamily=Helvetica;fontSize=18;fontColor=default;strokeWidth=8;fillColor=#f5f5f5;strokeColor=#666666;exitX=0.5;exitY=1;exitDx=0;exitDy=0;entryX=0.5;entryY=0;entryDx=0;entryDy=0;startArrow=classic;startFill=1;" parent="oyaKjV_WXcEfCoysOoAM-320" source="oyaKjV_WXcEfCoysOoAM-180" target="oyaKjV_WXcEfCoysOoAM-178" edge="1">
          <mxGeometry width="50" height="50" relative="1" as="geometry">
            <mxPoint x="5249.5" y="871.8000000000002" as="sourcePoint" />
            <mxPoint x="5141.5" y="1060.8000000000002" as="targetPoint" />
          </mxGeometry>
        </mxCell>
        <mxCell id="oyaKjV_WXcEfCoysOoAM-180" value="" style="ellipse;whiteSpace=wrap;html=1;aspect=fixed;strokeWidth=8;fillColor=#f5f5f5;strokeColor=#666666;fontColor=#333333;container=0;" parent="oyaKjV_WXcEfCoysOoAM-320" vertex="1">
          <mxGeometry x="5020" y="822" width="162.00000000000003" height="162.00000000000003" as="geometry" />
        </mxCell>
        <mxCell id="oyaKjV_WXcEfCoysOoAM-182" value="" style="ellipse;whiteSpace=wrap;html=1;aspect=fixed;strokeWidth=8;fillColor=#f5f5f5;fontColor=#333333;strokeColor=#666666;container=0;" parent="oyaKjV_WXcEfCoysOoAM-320" vertex="1">
          <mxGeometry x="5020" y="592" width="162.00000000000003" height="162.00000000000003" as="geometry" />
        </mxCell>
        <mxCell id="oyaKjV_WXcEfCoysOoAM-184" value="" style="endArrow=classic;html=1;rounded=0;fontFamily=Helvetica;fontSize=18;fontColor=default;strokeWidth=8;fillColor=#f5f5f5;strokeColor=#666666;exitX=0.5;exitY=1;exitDx=0;exitDy=0;entryX=0.5;entryY=0;entryDx=0;entryDy=0;startArrow=classic;startFill=1;" parent="oyaKjV_WXcEfCoysOoAM-320" edge="1">
          <mxGeometry width="50" height="50" relative="1" as="geometry">
            <mxPoint x="5100.73" y="756" as="sourcePoint" />
            <mxPoint x="5100.73" y="822" as="targetPoint" />
          </mxGeometry>
        </mxCell>
        <mxCell id="oyaKjV_WXcEfCoysOoAM-185" value="" style="endArrow=classic;html=1;rounded=0;fontFamily=Helvetica;fontSize=18;fontColor=default;strokeWidth=8;fillColor=#f5f5f5;strokeColor=#666666;entryX=1;entryY=0.5;entryDx=0;entryDy=0;startArrow=classic;startFill=1;" parent="oyaKjV_WXcEfCoysOoAM-320" target="oyaKjV_WXcEfCoysOoAM-180" edge="1">
          <mxGeometry width="50" height="50" relative="1" as="geometry">
            <mxPoint x="5250" y="903" as="sourcePoint" />
            <mxPoint x="5250" y="888" as="targetPoint" />
          </mxGeometry>
        </mxCell>
        <mxCell id="oyaKjV_WXcEfCoysOoAM-187" value="" style="endArrow=classic;html=1;rounded=0;fontFamily=Helvetica;fontSize=18;fontColor=default;strokeWidth=8;fillColor=#f5f5f5;strokeColor=#666666;entryX=1;entryY=0.5;entryDx=0;entryDy=0;startArrow=classic;startFill=1;" parent="oyaKjV_WXcEfCoysOoAM-320" edge="1">
          <mxGeometry width="50" height="50" relative="1" as="geometry">
            <mxPoint x="5250" y="662" as="sourcePoint" />
            <mxPoint x="5182" y="662" as="targetPoint" />
          </mxGeometry>
        </mxCell>
        <mxCell id="oyaKjV_WXcEfCoysOoAM-189" value="" style="endArrow=classic;html=1;rounded=0;fontFamily=Helvetica;fontSize=18;fontColor=default;strokeWidth=8;fillColor=#f5f5f5;strokeColor=#666666;entryX=1;entryY=0.5;entryDx=0;entryDy=0;startArrow=classic;startFill=1;" parent="oyaKjV_WXcEfCoysOoAM-320" edge="1">
          <mxGeometry width="50" height="50" relative="1" as="geometry">
            <mxPoint x="5250" y="1130.8000000000002" as="sourcePoint" />
            <mxPoint x="5182" y="1130.8000000000002" as="targetPoint" />
          </mxGeometry>
        </mxCell>
        <mxCell id="oyaKjV_WXcEfCoysOoAM-198" value="" style="ellipse;whiteSpace=wrap;html=1;aspect=fixed;strokeWidth=8;fillColor=#f5f5f5;fontColor=#333333;strokeColor=#666666;container=0;" parent="oyaKjV_WXcEfCoysOoAM-320" vertex="1">
          <mxGeometry x="5250" y="1050" width="162.00000000000003" height="162.00000000000003" as="geometry" />
        </mxCell>
        <mxCell id="oyaKjV_WXcEfCoysOoAM-199" value="" style="endArrow=classic;html=1;rounded=0;fontFamily=Helvetica;fontSize=18;fontColor=default;strokeWidth=8;fillColor=#f5f5f5;strokeColor=#666666;exitX=0.5;exitY=1;exitDx=0;exitDy=0;entryX=0.5;entryY=0;entryDx=0;entryDy=0;startArrow=classic;startFill=1;" parent="oyaKjV_WXcEfCoysOoAM-320" source="oyaKjV_WXcEfCoysOoAM-200" target="oyaKjV_WXcEfCoysOoAM-198" edge="1">
          <mxGeometry width="50" height="50" relative="1" as="geometry">
            <mxPoint x="5479.5" y="871.8000000000002" as="sourcePoint" />
            <mxPoint x="5371.5" y="1060.8000000000002" as="targetPoint" />
          </mxGeometry>
        </mxCell>
        <mxCell id="oyaKjV_WXcEfCoysOoAM-200" value="" style="ellipse;whiteSpace=wrap;html=1;aspect=fixed;strokeWidth=8;fillColor=#f5f5f5;strokeColor=#666666;fontColor=#333333;container=0;" parent="oyaKjV_WXcEfCoysOoAM-320" vertex="1">
          <mxGeometry x="5250" y="822" width="162.00000000000003" height="162.00000000000003" as="geometry" />
        </mxCell>
        <mxCell id="oyaKjV_WXcEfCoysOoAM-201" value="" style="ellipse;whiteSpace=wrap;html=1;aspect=fixed;strokeWidth=8;fillColor=#f5f5f5;fontColor=#333333;strokeColor=#666666;container=0;" parent="oyaKjV_WXcEfCoysOoAM-320" vertex="1">
          <mxGeometry x="5250" y="592" width="162.00000000000003" height="162.00000000000003" as="geometry" />
        </mxCell>
        <mxCell id="oyaKjV_WXcEfCoysOoAM-202" value="" style="endArrow=classic;html=1;rounded=0;fontFamily=Helvetica;fontSize=18;fontColor=default;strokeWidth=8;fillColor=#f5f5f5;strokeColor=#666666;exitX=0.5;exitY=1;exitDx=0;exitDy=0;entryX=0.5;entryY=0;entryDx=0;entryDy=0;startArrow=classic;startFill=1;" parent="oyaKjV_WXcEfCoysOoAM-320" edge="1">
          <mxGeometry width="50" height="50" relative="1" as="geometry">
            <mxPoint x="5330.73" y="756" as="sourcePoint" />
            <mxPoint x="5330.73" y="822" as="targetPoint" />
          </mxGeometry>
        </mxCell>
        <mxCell id="oyaKjV_WXcEfCoysOoAM-203" value="" style="endArrow=classic;html=1;rounded=0;fontFamily=Helvetica;fontSize=18;fontColor=default;strokeWidth=8;fillColor=#f5f5f5;strokeColor=#666666;entryX=1;entryY=0.5;entryDx=0;entryDy=0;startArrow=classic;startFill=1;" parent="oyaKjV_WXcEfCoysOoAM-320" edge="1">
          <mxGeometry width="50" height="50" relative="1" as="geometry">
            <mxPoint x="5480" y="903" as="sourcePoint" />
            <mxPoint x="5412" y="903" as="targetPoint" />
          </mxGeometry>
        </mxCell>
        <mxCell id="oyaKjV_WXcEfCoysOoAM-204" value="" style="endArrow=classic;html=1;rounded=0;fontFamily=Helvetica;fontSize=18;fontColor=default;strokeWidth=8;fillColor=#f5f5f5;strokeColor=#666666;entryX=1;entryY=0.5;entryDx=0;entryDy=0;startArrow=classic;startFill=1;" parent="oyaKjV_WXcEfCoysOoAM-320" edge="1">
          <mxGeometry width="50" height="50" relative="1" as="geometry">
            <mxPoint x="5480" y="662" as="sourcePoint" />
            <mxPoint x="5412" y="662" as="targetPoint" />
          </mxGeometry>
        </mxCell>
        <mxCell id="oyaKjV_WXcEfCoysOoAM-205" value="" style="endArrow=classic;html=1;rounded=0;fontFamily=Helvetica;fontSize=18;fontColor=default;strokeWidth=8;fillColor=#f5f5f5;strokeColor=#666666;entryX=1;entryY=0.5;entryDx=0;entryDy=0;startArrow=classic;startFill=1;" parent="oyaKjV_WXcEfCoysOoAM-320" edge="1">
          <mxGeometry width="50" height="50" relative="1" as="geometry">
            <mxPoint x="5480" y="1130.8000000000002" as="sourcePoint" />
            <mxPoint x="5412" y="1130.8000000000002" as="targetPoint" />
          </mxGeometry>
        </mxCell>
        <mxCell id="oyaKjV_WXcEfCoysOoAM-206" value="" style="ellipse;whiteSpace=wrap;html=1;aspect=fixed;strokeWidth=8;fillColor=#f5f5f5;fontColor=#333333;strokeColor=#666666;container=0;" parent="oyaKjV_WXcEfCoysOoAM-320" vertex="1">
          <mxGeometry x="5480" y="1050" width="162.00000000000003" height="162.00000000000003" as="geometry" />
        </mxCell>
        <mxCell id="oyaKjV_WXcEfCoysOoAM-207" value="" style="endArrow=classic;html=1;rounded=0;fontFamily=Helvetica;fontSize=18;fontColor=default;strokeWidth=8;fillColor=#f5f5f5;strokeColor=#666666;exitX=0.5;exitY=1;exitDx=0;exitDy=0;entryX=0.5;entryY=0;entryDx=0;entryDy=0;startArrow=classic;startFill=1;" parent="oyaKjV_WXcEfCoysOoAM-320" source="oyaKjV_WXcEfCoysOoAM-208" target="oyaKjV_WXcEfCoysOoAM-206" edge="1">
          <mxGeometry width="50" height="50" relative="1" as="geometry">
            <mxPoint x="5709.5" y="871.8000000000002" as="sourcePoint" />
            <mxPoint x="5601.5" y="1060.8000000000002" as="targetPoint" />
          </mxGeometry>
        </mxCell>
        <mxCell id="oyaKjV_WXcEfCoysOoAM-208" value="" style="ellipse;whiteSpace=wrap;html=1;aspect=fixed;strokeWidth=8;fillColor=#f5f5f5;strokeColor=#666666;fontColor=#333333;container=0;" parent="oyaKjV_WXcEfCoysOoAM-320" vertex="1">
          <mxGeometry x="5480" y="822" width="162.00000000000003" height="162.00000000000003" as="geometry" />
        </mxCell>
        <mxCell id="oyaKjV_WXcEfCoysOoAM-209" value="" style="ellipse;whiteSpace=wrap;html=1;aspect=fixed;strokeWidth=8;fillColor=#f5f5f5;fontColor=#333333;strokeColor=#666666;container=0;" parent="oyaKjV_WXcEfCoysOoAM-320" vertex="1">
          <mxGeometry x="5480" y="592" width="162.00000000000003" height="162.00000000000003" as="geometry" />
        </mxCell>
        <mxCell id="oyaKjV_WXcEfCoysOoAM-210" value="" style="endArrow=classic;html=1;rounded=0;fontFamily=Helvetica;fontSize=18;fontColor=default;strokeWidth=8;fillColor=#f5f5f5;strokeColor=#666666;exitX=0.5;exitY=1;exitDx=0;exitDy=0;entryX=0.5;entryY=0;entryDx=0;entryDy=0;startArrow=classic;startFill=1;" parent="oyaKjV_WXcEfCoysOoAM-320" edge="1">
          <mxGeometry width="50" height="50" relative="1" as="geometry">
            <mxPoint x="5560.73" y="756" as="sourcePoint" />
            <mxPoint x="5560.73" y="822" as="targetPoint" />
          </mxGeometry>
        </mxCell>
        <mxCell id="oyaKjV_WXcEfCoysOoAM-211" value="" style="ellipse;whiteSpace=wrap;html=1;aspect=fixed;strokeWidth=8;fillColor=#d5e8d4;strokeColor=#82b366;container=0;" parent="oyaKjV_WXcEfCoysOoAM-320" vertex="1">
          <mxGeometry x="5271" y="1071" width="120" height="120" as="geometry" />
        </mxCell>
        <mxCell id="oyaKjV_WXcEfCoysOoAM-212" value="" style="ellipse;whiteSpace=wrap;html=1;aspect=fixed;strokeWidth=8;fillColor=#ffe6cc;strokeColor=#d79b00;container=0;" parent="oyaKjV_WXcEfCoysOoAM-320" vertex="1">
          <mxGeometry x="5501" y="1071" width="120" height="120" as="geometry" />
        </mxCell>
        <mxCell id="oyaKjV_WXcEfCoysOoAM-213" value="" style="ellipse;whiteSpace=wrap;html=1;aspect=fixed;strokeWidth=8;fillColor=#ffe6cc;strokeColor=#d79b00;container=0;" parent="oyaKjV_WXcEfCoysOoAM-320" vertex="1">
          <mxGeometry x="5271" y="843" width="120" height="120" as="geometry" />
        </mxCell>
        <mxCell id="oyaKjV_WXcEfCoysOoAM-228" value="" style="sketch=0;outlineConnect=0;fillColor=#82B366;strokeColor=#82b366;dashed=0;verticalLabelPosition=bottom;verticalAlign=top;align=center;html=1;fontSize=12;fontStyle=0;aspect=fixed;pointerEvents=1;shape=mxgraph.aws4.sagemaker_model;container=0;" parent="oyaKjV_WXcEfCoysOoAM-320" vertex="1">
          <mxGeometry x="6935" y="520" width="600" height="600" as="geometry" />
        </mxCell>
        <mxCell id="oyaKjV_WXcEfCoysOoAM-289" value="&lt;font style=&quot;font-size: 128px;&quot;&gt;Selection&lt;/font&gt;" style="text;html=1;align=center;verticalAlign=middle;whiteSpace=wrap;rounded=0;fillColor=#f5f5f5;fontColor=#333333;strokeColor=#666666;strokeWidth=5;fontStyle=1;container=0;" parent="oyaKjV_WXcEfCoysOoAM-320" vertex="1">
          <mxGeometry x="350" y="622" width="1200" height="200" as="geometry" />
        </mxCell>
        <mxCell id="oyaKjV_WXcEfCoysOoAM-291" value="&lt;font style=&quot;font-size: 128px;&quot;&gt;Simulation&lt;/font&gt;" style="text;html=1;align=center;verticalAlign=middle;whiteSpace=wrap;rounded=0;fillColor=#f5f5f5;fontColor=#333333;strokeColor=#666666;strokeWidth=5;fontStyle=1;container=0;" parent="oyaKjV_WXcEfCoysOoAM-320" vertex="1">
          <mxGeometry x="350" y="1400" width="1200" height="200" as="geometry" />
        </mxCell>
        <mxCell id="oyaKjV_WXcEfCoysOoAM-287" value="&lt;div&gt;&lt;br/&gt;&lt;/div&gt;" style="rounded=0;whiteSpace=wrap;html=1;fillColor=#d5e8d4;strokeColor=#82b366;strokeWidth=20;" parent="oyaKjV_WXcEfCoysOoAM-320" vertex="1">
          <mxGeometry x="8610" y="180" width="1080" height="1080" as="geometry" />
        </mxCell>
        <mxCell id="oyaKjV_WXcEfCoysOoAM-382" value="" style="endArrow=classic;html=1;rounded=0;fontFamily=Helvetica;fontSize=18;fontColor=default;strokeWidth=20;fillColor=#f5f5f5;strokeColor=#666666;entryX=0.25;entryY=1;entryDx=0;entryDy=0;exitX=1;exitY=0.5;exitDx=0;exitDy=0;" parent="oyaKjV_WXcEfCoysOoAM-320" source="oyaKjV_WXcEfCoysOoAM-412" target="oyaKjV_WXcEfCoysOoAM-214" edge="1">
          <mxGeometry width="50" height="50" relative="1" as="geometry">
            <mxPoint x="4050" y="1570" as="sourcePoint" />
            <mxPoint x="4310" y="1460" as="targetPoint" />
            <Array as="points">
              <mxPoint x="4330" y="1500" />
            </Array>
          </mxGeometry>
        </mxCell>
        <mxCell id="oyaKjV_WXcEfCoysOoAM-383" value="" style="endArrow=none;html=1;rounded=0;fontFamily=Helvetica;fontSize=18;fontColor=default;strokeWidth=20;fillColor=#f5f5f5;strokeColor=#666666;endFill=0;exitX=0;exitY=0.5;exitDx=0;exitDy=0;entryX=1;entryY=0.5;entryDx=0;entryDy=0;" parent="oyaKjV_WXcEfCoysOoAM-320" source="oyaKjV_WXcEfCoysOoAM-412" target="oyaKjV_WXcEfCoysOoAM-413" edge="1">
          <mxGeometry width="50" height="50" relative="1" as="geometry">
            <mxPoint x="2680" y="1540" as="sourcePoint" />
            <mxPoint x="2580" y="1410" as="targetPoint" />
          </mxGeometry>
        </mxCell>
        <mxCell id="oyaKjV_WXcEfCoysOoAM-384" value="&lt;font style=&quot;&quot;&gt;Update&lt;/font&gt;" style="text;html=1;align=center;verticalAlign=middle;whiteSpace=wrap;rounded=0;fontSize=128;container=0;fontStyle=1;fontColor=#333333;" parent="oyaKjV_WXcEfCoysOoAM-320" vertex="1">
          <mxGeometry x="3090" y="620" width="480" height="200" as="geometry" />
        </mxCell>
        <mxCell id="oyaKjV_WXcEfCoysOoAM-385" value="" style="endArrow=classic;html=1;rounded=0;fontFamily=Helvetica;fontSize=18;fontColor=default;strokeWidth=20;fillColor=#f5f5f5;strokeColor=#666666;exitX=1;exitY=0.5;exitDx=0;exitDy=0;entryX=0;entryY=0.5;entryDx=0;entryDy=0;" parent="oyaKjV_WXcEfCoysOoAM-320" source="oyaKjV_WXcEfCoysOoAM-384" target="oyaKjV_WXcEfCoysOoAM-214" edge="1">
          <mxGeometry width="50" height="50" relative="1" as="geometry">
            <mxPoint x="3387" y="698" as="sourcePoint" />
            <mxPoint x="3677" y="650" as="targetPoint" />
          </mxGeometry>
        </mxCell>
        <mxCell id="oyaKjV_WXcEfCoysOoAM-386" value="" style="endArrow=none;html=1;rounded=0;fontFamily=Helvetica;fontSize=18;fontColor=default;strokeWidth=20;fillColor=#f5f5f5;strokeColor=#666666;endFill=0;exitX=0;exitY=0.5;exitDx=0;exitDy=0;entryX=1;entryY=0.5;entryDx=0;entryDy=0;" parent="oyaKjV_WXcEfCoysOoAM-320" source="oyaKjV_WXcEfCoysOoAM-384" target="oyaKjV_WXcEfCoysOoAM-398" edge="1">
          <mxGeometry width="50" height="50" relative="1" as="geometry">
            <mxPoint x="2637" y="658" as="sourcePoint" />
            <mxPoint x="2637" y="650" as="targetPoint" />
          </mxGeometry>
        </mxCell>
        <mxCell id="oyaKjV_WXcEfCoysOoAM-387" value="&lt;font style=&quot;&quot;&gt;Pro&lt;/font&gt;&lt;span style=&quot;background-color: transparent;&quot;&gt;mpt&lt;/span&gt;" style="text;html=1;align=center;verticalAlign=middle;whiteSpace=wrap;rounded=0;fontSize=128;container=0;fontStyle=1;fontColor=#82B366;" parent="oyaKjV_WXcEfCoysOoAM-320" vertex="1">
          <mxGeometry x="5997" y="620" width="523" height="200" as="geometry" />
        </mxCell>
        <mxCell id="oyaKjV_WXcEfCoysOoAM-388" value="" style="endArrow=classic;html=1;rounded=0;fontFamily=Helvetica;fontSize=18;fontColor=default;strokeWidth=20;fillColor=#d5e8d4;strokeColor=#82b366;exitX=1;exitY=0.5;exitDx=0;exitDy=0;entryX=0;entryY=0.5;entryDx=0;entryDy=0;flowAnimation=0;" parent="oyaKjV_WXcEfCoysOoAM-320" source="oyaKjV_WXcEfCoysOoAM-387" target="oyaKjV_WXcEfCoysOoAM-233" edge="1">
          <mxGeometry width="50" height="50" relative="1" as="geometry">
            <mxPoint x="5907" y="1478" as="sourcePoint" />
            <mxPoint x="6667" y="660" as="targetPoint" />
          </mxGeometry>
        </mxCell>
        <mxCell id="oyaKjV_WXcEfCoysOoAM-389" value="" style="endArrow=none;html=1;rounded=0;fontFamily=Helvetica;fontSize=18;fontColor=default;strokeWidth=20;fillColor=#d5e8d4;strokeColor=#82b366;endFill=0;exitX=1;exitY=0.5;exitDx=0;exitDy=0;entryX=0;entryY=0.5;entryDx=0;entryDy=0;flowAnimation=0;" parent="oyaKjV_WXcEfCoysOoAM-320" source="oyaKjV_WXcEfCoysOoAM-214" target="oyaKjV_WXcEfCoysOoAM-387" edge="1">
          <mxGeometry width="50" height="50" relative="1" as="geometry">
            <mxPoint x="5887" y="670" as="sourcePoint" />
            <mxPoint x="5157" y="1438" as="targetPoint" />
          </mxGeometry>
        </mxCell>
        <mxCell id="oyaKjV_WXcEfCoysOoAM-390" value="&lt;font style=&quot;&quot;&gt;Action&lt;/font&gt;" style="text;html=1;align=center;verticalAlign=middle;whiteSpace=wrap;rounded=0;fontSize=128;container=0;fontStyle=1;fontColor=#82B366;" parent="oyaKjV_WXcEfCoysOoAM-320" vertex="1">
          <mxGeometry x="7927" y="620" width="480" height="200" as="geometry" />
        </mxCell>
        <mxCell id="oyaKjV_WXcEfCoysOoAM-392" value="" style="endArrow=none;html=1;rounded=0;fontFamily=Helvetica;fontSize=18;fontColor=default;strokeWidth=20;fillColor=#d5e8d4;strokeColor=#82b366;endFill=0;exitX=1;exitY=0.5;exitDx=0;exitDy=0;entryX=0;entryY=0.5;entryDx=0;entryDy=0;flowAnimation=0;" parent="oyaKjV_WXcEfCoysOoAM-320" source="oyaKjV_WXcEfCoysOoAM-233" target="oyaKjV_WXcEfCoysOoAM-390" edge="1">
          <mxGeometry width="50" height="50" relative="1" as="geometry">
            <mxPoint x="8197" y="1140" as="sourcePoint" />
            <mxPoint x="8197" y="1148" as="targetPoint" />
          </mxGeometry>
        </mxCell>
        <mxCell id="oyaKjV_WXcEfCoysOoAM-391" value="" style="endArrow=classic;html=1;rounded=0;fontFamily=Helvetica;fontSize=18;fontColor=default;strokeWidth=20;fillColor=#d5e8d4;strokeColor=#82b366;exitX=1;exitY=0.5;exitDx=0;exitDy=0;entryX=0;entryY=0.5;entryDx=0;entryDy=0;flowAnimation=0;" parent="oyaKjV_WXcEfCoysOoAM-320" source="oyaKjV_WXcEfCoysOoAM-390" target="oyaKjV_WXcEfCoysOoAM-287" edge="1">
          <mxGeometry width="50" height="50" relative="1" as="geometry">
            <mxPoint x="8947" y="1188" as="sourcePoint" />
            <mxPoint x="9237" y="1140" as="targetPoint" />
          </mxGeometry>
        </mxCell>
        <mxCell id="oyaKjV_WXcEfCoysOoAM-393" value="&lt;font style=&quot;&quot;&gt;Reasoning&lt;/font&gt;" style="text;html=1;align=center;verticalAlign=middle;whiteSpace=wrap;rounded=0;fontSize=128;container=0;fontStyle=1;fontColor=#82B366;" parent="oyaKjV_WXcEfCoysOoAM-320" vertex="1">
          <mxGeometry x="6888.5" y="1340" width="693" height="200" as="geometry" />
        </mxCell>
        <mxCell id="oyaKjV_WXcEfCoysOoAM-394" value="" style="endArrow=classic;html=1;rounded=0;fontFamily=Helvetica;fontSize=18;fontColor=default;strokeWidth=20;fillColor=#d5e8d4;strokeColor=#82b366;entryX=0;entryY=0.75;entryDx=0;entryDy=0;exitX=0;exitY=0.5;exitDx=0;exitDy=0;flowAnimation=0;" parent="oyaKjV_WXcEfCoysOoAM-320" source="oyaKjV_WXcEfCoysOoAM-393" target="oyaKjV_WXcEfCoysOoAM-233" edge="1">
          <mxGeometry width="50" height="50" relative="1" as="geometry">
            <mxPoint x="7687" y="1550" as="sourcePoint" />
            <mxPoint x="8487" y="1610" as="targetPoint" />
            <Array as="points">
              <mxPoint x="6527" y="1440" />
              <mxPoint x="6527" y="990" />
            </Array>
          </mxGeometry>
        </mxCell>
        <mxCell id="oyaKjV_WXcEfCoysOoAM-395" value="" style="endArrow=none;html=1;rounded=0;fontFamily=Helvetica;fontSize=18;fontColor=default;strokeWidth=20;fillColor=#d5e8d4;strokeColor=#82b366;endFill=0;exitX=1;exitY=0.75;exitDx=0;exitDy=0;entryX=1;entryY=0.5;entryDx=0;entryDy=0;flowAnimation=0;" parent="oyaKjV_WXcEfCoysOoAM-320" source="oyaKjV_WXcEfCoysOoAM-233" target="oyaKjV_WXcEfCoysOoAM-393" edge="1">
          <mxGeometry width="50" height="50" relative="1" as="geometry">
            <mxPoint x="8197" y="1240" as="sourcePoint" />
            <mxPoint x="8177" y="1420" as="targetPoint" />
            <Array as="points">
              <mxPoint x="7937" y="990" />
              <mxPoint x="7937" y="1440" />
            </Array>
          </mxGeometry>
        </mxCell>
        <mxCell id="oyaKjV_WXcEfCoysOoAM-399" value="" style="endArrow=classic;html=1;rounded=0;fontFamily=Helvetica;fontSize=18;fontColor=default;strokeWidth=20;fillColor=#f5f5f5;strokeColor=#666666;exitX=1;exitY=0.5;exitDx=0;exitDy=0;entryX=0;entryY=0.5;entryDx=0;entryDy=0;" parent="oyaKjV_WXcEfCoysOoAM-320" source="oyaKjV_WXcEfCoysOoAM-289" target="oyaKjV_WXcEfCoysOoAM-398" edge="1">
          <mxGeometry width="50" height="50" relative="1" as="geometry">
            <mxPoint x="3620" y="1090" as="sourcePoint" />
            <mxPoint x="1780" y="710" as="targetPoint" />
          </mxGeometry>
        </mxCell>
        <mxCell id="oyaKjV_WXcEfCoysOoAM-401" value="" style="endArrow=classic;html=1;rounded=0;fontFamily=Helvetica;fontSize=18;fontColor=default;strokeWidth=20;fillColor=#f5f5f5;strokeColor=#666666;exitX=1;exitY=0.5;exitDx=0;exitDy=0;entryX=0;entryY=0.5;entryDx=0;entryDy=0;" parent="oyaKjV_WXcEfCoysOoAM-320" source="oyaKjV_WXcEfCoysOoAM-291" target="oyaKjV_WXcEfCoysOoAM-413" edge="1">
          <mxGeometry width="50" height="50" relative="1" as="geometry">
            <mxPoint x="1490" y="1252" as="sourcePoint" />
            <mxPoint x="2040" y="1430" as="targetPoint" />
          </mxGeometry>
        </mxCell>
        <mxCell id="oyaKjV_WXcEfCoysOoAM-413" value="&lt;b&gt;V(s)&lt;/b&gt;" style="text;html=1;align=center;verticalAlign=middle;whiteSpace=wrap;rounded=0;fontSize=128;fontColor=#333333;fillColor=none;strokeColor=none;" parent="oyaKjV_WXcEfCoysOoAM-320" vertex="1">
          <mxGeometry x="2180" y="1400" width="300" height="200" as="geometry" />
        </mxCell>
        <mxCell id="jAts5uLWIWUShjtWvATc-8" value="" style="shape=image;verticalLabelPosition=bottom;labelBackgroundColor=default;verticalAlign=top;aspect=fixed;imageAspect=0;image=data:image/png,iVBORw0KGgoAAAANSUhEUgAABFQAAARUCAYAAABY/UdQAAAAOnRFWHRTb2Z0d2FyZQBNYXRwbG90bGliIHZlcnNpb24zLjEwLjEsIGh0dHBzOi8vbWF0cGxvdGxpYi5vcmcvc2/+5QAAAAlwSFlzAAAuIwAALiMBeKU/dgAAIjBJREFUeJzt2jFuVFmbgOHyqDJHTQCSd0A2EVGzB+S80u7cE80eRpW308otrwE6YgPegSUI6IjslzzqELVmft5Dca/vvc+Tfzqn6isk8+pc3L/dPe341uE4Nne6OfdNtssOtsfO52cH22Pn87OD7bHz+dnBttj3cvdwev47+I+5LwAAAACwNIIKAAAAQCSoAAAAAESCCgAAAEAkqAAAAABEggoAAABAJKgAAAAARIIKAAAAQCSoAAAAAESCCgAAAEAkqAAAAABEggoAAABAJKgAAAAARIIKAAAAQCSoAAAAAESCCgAAAEAkqAAAAABEggoAAABAJKgAAAAARIIKAAAAQCSoAAAAAESCCgAAAEAkqAAAAABEggoAAABAJKgAAAAARIIKAAAAQCSoAAAAAESCCgAAAEAkqAAAAABEggoAAABAJKgAAAAARIIKAAAAQCSoAAAAAESCCgAAAEAkqAAAAABEggoAAABAJKgAAAAARIIKAAAAQCSoAAAAAESCCgAAAEAkqAAAAABEggoAAABAJKgAAAAARIIKAAAAQCSoAAAAAESCCgAAAEAkqAAAAABEggoAAABAJKgAAAAARIIKAAAAQCSoAAAAAESCCgAAAEAkqAAAAABEF/e3x6c6BAAAALBlXqgAAAAARIIKAAAAQCSoAAAAAESCCgAAAEAkqAAAAABEggoAAABAJKgAAAAARIIKAAAAQCSoAAAAAESCCgAAAEAkqAAAAABEggoAAABAJKgAAAAARIIKAAAAQCSoAAAAAESCCgAAAEAkqAAAAABEggoAAABAJKgAAAAARIIKAAAAQCSoAAAAAESCCgAAAEAkqAAAAABEggoAAABAJKgAAAAARIIKAAAAQCSoAAAAAEQX9293T7slOBz7zOnmZ9yEn723v9nd/OxuuexuuexuuexuuexuuexuuexuuezuG16oAAAAAESCCgAAAEAkqAAAAABEggoAAABAJKgAAAAARIIKAAAAQCSoAAAAAESCCgAAAEAkqAAAAABEggoAAABAJKgAAAAARIIKAAAAQCSoAAAAAESCCgAAAEAkqAAAAABEggoAAABAJKgAAAAARIIKAAAAQCSoAAAAAESCCgAAAEAkqAAAAABEggoAAABAJKgAAAAARIIKAAAAQCSoAAAAAESCCgAAAEAkqAAAAABEggoAAABAJKgAAAAARIIKAAAAQCSoAAAAAESCCgAAAEAkqAAAAABEggoAAABAJKgAAAAARIIKAAAAQCSoAAAAAESCCgAAAEAkqAAAAABEggoAAABAJKgAAAAARIIKAAAAQCSoAAAAAESCCgAAAEAkqAAAAABEggoAAABAJKgAAAAARIIKAAAAQCSoAAAAAESCCgAAAEAkqAAAAABEggoAAABAJKgAAAAARIIKAAAAQCSoAAAAAEQX97fHpzoEAAAAsGVeqAAAAABEggoAAABAJKgAAAAARIIKAAAAQCSoAAAAAESCCgAAAEAkqAAAAABEggoAAABAJKgAAAAARIIKAAAAQCSoAAAAAESCCgAAAEAkqAAAAABEggoAAABAJKgAAAAARIIKAAAAQCSoAAAAAESCCgAAAEAkqAAAAABEggoAAABAJKgAAAAARIIKAAAAQCSoAAAAAESCCgAAAEAkqAAAAABEggoAAABAdHH/dvdUh1bvcBybO92c+ybbZQfbY+fzs4PtsfP52cH22Pn87GBb7Hu5ezg9/x14oQIAAAAQCSoAAAAAkaACAAAAEAkqAAAAAJGgAgAAABAJKgAAAACRoAIAAAAQCSoAAAAAkaACAAAAEAkqAAAAAJGgAgAAABAJKgAAAACRoAIAAAAQCSoAAAAAkaACAAAAEAkqAAAAAJGgAgAAABAJKgAAAACRoAIAAAAQCSoAAAAAkaACAAAAEAkqAAAAAJGgAgAAABAJKgAAAACRoAIAAAAQCSoAAAAAkaACAAAAEAkqAAAAAJGgAgAAABAJKgAAAACRoAIAAAAQCSoAAAAAkaACAAAAEAkqAAAAAJGgAgAAABAJKgAAAACRoAIAAAAQCSoAAAAAkaACAAAAEAkqAAAAAJGgAgAAABAJKgAAAACRoAIAAAAQCSoAAAAAkaACAAAAEAkqAAAAAJGgAgAAABAJKgAAAACRoAIAAAAQCSoAAAAAkaACAAAAEAkqAAAAAJGgAgAAABAJKgAAAACRoAIAAAAQ7esA8OPefZj7Bs/Qh5u5b4AdbI+dz88OtsfO57fiHdy/nfsGsC1eqAAAAABEggoAAABAJKgAAAAARIIKAAAAQCSoAAAAAESCCgAAAEAkqAAAAABEggoAAABAJKgAAAAARIIKAAAAQCSoAAAAAESCCgAAAEAkqAAAAABEggoAAABAJKgAAAAARIIKAAAAQCSoAAAAAESCCgAAAEAkqAAAAABEggoAAABAJKgAAAAARIIKAAAAQCSoAAAAAESCCgAAAEAkqAAAAABEggoAAABAJKgAAAAARIIKAAAAQCSoAAAAAESCCgAAAEAkqAAAAABEggoAAABAJKgAAAAARIIKAAAAQCSoAAAAAESCCgAAAEAkqAAAAABEggoAAABAJKgAAAAARIIKAAAAQCSoAAAAAESCCgAAAEAkqAAAAABEggoAAABAJKgAAAAARIIKAAAAQCSoAAAAAESCCgAAAEAkqAAAAABEggoAAABAJKgAAAAARIIKAAAAQCSoAAAAAESCCgAAAEB0cX97fKpDwI9599vN3FcAAGBl7m+Pc18BNsULFQAAAIBIUAEAAACIBBUAAACASFABAAAAiAQVAAAAgEhQAQAAAIgEFQAAAIBIUAEAAACIBBUAAACASFABAAAAiAQVAAAAgEhQAQAAAIgEFQAAAIBIUAEAAACIBBUAAACASFABAAAAiAQVAAAAgEhQAQAAAIgEFQAAAIBIUAEAAACIBBUAAACASFABAAAAiAQVAAAAgEhQAQAAAIgEFQAAAIBIUAEAAACIBBUAAACAaL873ewW4XDsM0v5bGs2sre/2R0AAKzzb2j/R1guu/uGFyoAAAAAkaACAAAAEAkqAAAAAJGgAgAAABAJKgAAAACRoAIAAAAQCSoAAAAAkaACAAAAEAkqAAAAAJGgAgAAABAJKgAAAACRoAIAAAAQCSoAAAAAkaACAAAAEAkqAAAAAJGgAgAAABAJKgAAAACRoAIAAAAQCSoAAAAAkaACAAAAEAkqAAAAAJGgAgAAABAJKgAAAACRoAIAAAAQCSoAAAAAkaACAAAAEAkqAAAAAJGgAgAAABAJKgAAAACRoAIAAAAQCSoAAAAAkaACAAAAEAkqAAAAAJGgAgAAABAJKgAAAACRoAIAAAAQCSoAAAAAkaACAAAAEAkqAAAAAJGgAgAAABAJKgAAAACRoAIAAAAQCSoAAAAAkaACAAAAEAkqAAAAAJGgAgAAABAJKgAAAACRoAIAAAAQCSoAAAAAkaACAAAAEAkqAAAAAJGgAgAAABAJKgAAAACRoAIAAAAQXdzfHp/qEPBj3v12M/cVAABYmfvb49xXgE3xQgUAAAAgElQAAAAAIkEFAAAAIBJUAAAAACJBBQAAACASVAAAAAAiQQUAAAAgElQAAAAAIkEFAAAAIBJUAAAAACJBBQAAACASVAAAAAAiQQUAAAAgElQAAAAAIkEFAAAAIBJUAAAAACJBBQAAACASVAAAAAAiQQUAAAAgElQAAAAAIkEFAAAAIBJUAAAAACJBBQAAACASVAAAAAAiQQUAAAAgElQAAAAAIkEFAAAAINrvTjd1Zv0Ox7E53+X52AEAADT+Fv4n/69Y7h5Oz38HXqgAAAAARIIKAAAAQCSoAAAAAESCCgAAAEAkqAAAAABEggoAAABAJKgAAAAARIIKAAAAQCSoAAAAAESCCgAAAEAkqAAAAABEggoAAABAJKgAAAAARIIKAAAAQCSoAAAAAESCCgAAAEAkqAAAAABEggoAAABAJKgAAAAARIIKAAAAQCSoAAAAAESCCgAAAEAkqAAAAABEggoAAABAJKgAAAAARIIKAAAAQCSoAAAAAESCCgAAAEAkqAAAAABEggoAAABAJKgAAAAARIIKAAAAQCSoAAAAAESCCgAAAEAkqAAAAABEggoAAABAJKgAAAAARIIKAAAAQCSoAAAAAESCCgAAAEAkqAAAAABEggoAAABAJKgAAAAARIIKAAAAQCSoAAAAAESCCgAAAEAkqAAAAABEggoAAABAJKgAAAAARIIKAAAAQCSoAAAAAESCCgAAAEAkqAAAAABEggoAAABAJKgAAAAARPs6AABL9PD7br0u574Ai/F1uqNe/zHdWQAwBy9UAAAAACJBBQAAACASVAAAAAAiQQUAAAAgElQAAAAAIkEFAAAAIBJUAAAAACJBBQAAACASVAAAAAAiQQUAAAAgElQAAAAAIkEFAAAAINrXAQDg37ic+Lzric/jfO4W8tv8upvMXy9fTncYPFO/fP489xWA7+CFCgAAAEAkqAAAAABEggoAAABAJKgAAAAARIIKAAAAQCSoAAAAAESCCgAAAEAkqAAAAABEggoAAABAJKgAAAAARIIKAAAAQCSoAAAAAESCCgAAAEC0rwMAsBmXc1+A1bsenDtN/JtewL+FXz5/nvsK8A9/vXw59xWAn8gLFQAAAIBIUAEAAACIBBUAAACASFABAAAAiAQVAAAAgEhQAQAAAIgEFQAAAIBIUAEAAACIBBUAAACASFABAAAAiAQVAAAAgEhQAQAAAIgEFQAAAIBoXwcAYJEuJzzrenDubnDuNDh3GJzjfO4m/j1P/dsEgBXzQgUAAAAgElQAAAAAIkEFAAAAIBJUAAAAACJBBQAAACASVAAAAAAiQQUAAAAgElQAAAAAIkEFAAAAIBJUAAAAACJBBQAAACASVAAAAAAiQQUAAAAg2u8OxzrD/8V3Ob+l7ODDzdw3AL7H9W4ZLgfnToNzh8G5Nbub+Lyl/DaBaS3lb+El8F3O7/D8d+CFCgAAAEAkqAAAAABEggoAAABAJKgAAAAARIIKAAAAQCSoAAAAAESCCgAAAEAkqAAAAABEggoAAABAJKgAAAAARIIKAAAAQCSoAAAAAESCCgAAAEC0rwMAwE9yPTh3Nzh3OfF5o59vSqOfbbfi74TF+jI49+LM9wBYKy9UAAAAACJBBQAAACASVAAAAAAiQQUAAAAgElQAAAAAIkEFAAAAIBJUAAAAACJBBQAAACASVAAAAAAiQQUAAAAgElQAAAAAIkEFAAAAIBJUAAAAAKL97nSzW4TDsc8s5bOt2cje/mZ3AN/venDuNDh3OTh3N+FnGznrR4zeE77Tl4GZ/dXV2FmPj0NzL4amOKul/A3t/wjLZXff8EIFAAAAIBJUAAAAACJBBQAAACASVAAAAAAiQQUAAAAgElQAAAAAIkEFAAAAIBJUAAAAACJBBQAAACASVAAAAAAiQQUAAAAgElQAAAAAIkEFAAAAINrXAQBgJQ6Dc6cz3+O5nPUj3wl8py+Dc/urqzPf5PxnfXl8HJp7MTQFMD8vVAAAAAAiQQUAAAAgElQAAAAAIkEFAAAAIBJUAAAAACJBBQAAACASVAAAAAAiQQUAAAAgElQAAAAAIkEFAAAAIBJUAAAAACJBBQAAACDa1wEAAGDMi8G5L4+PeWZ/dTV01r8GzvqRzwawVF6oAAAAAESCCgAAAEAkqAAAAABEggoAAABAJKgAAAAARIIKAAAAQCSoAAAAAESCCgAAAEAkqAAAAABEggoAAABAJKgAAAAARIIKAAAAQCSoAAAAAET7OgAAbNzlhGddD87dTTw3ek/4Ti8GZr48Pk52FsAWeaECAAAAEAkqAAAAAJGgAgAAABAJKgAAAACRoAIAAAAQCSoAAAAAkaACAAAAEAkqAAAAAJGgAgAAABAJKgAAAACRoAIAAAAQCSoAAAAAkaACAAAAEO13h+Nutdb82dZu7bv7cDP3DQB2u7uJz7verdfod7nm74TZvZj7Akxv7X9Dr/3zrdlhnbvzQgUAAAAgElQAAAAAIkEFAAAAIBJUAAAAACJBBQAAACASVAAAAAAiQQUAAAAgElQAAAAAIkEFAAAAIBJUAAAAACJBBQAAACASVAAAAAAiQQUAAAAg2tcBANiMu8G568G50+Dc5W5ao59vSkvZwdS/MQDgbLxQAQAAAIgEFQAAAIBIUAEAAACIBBUAAACASFABAAAAiAQVAAAAgEhQAQAAAIgEFQAAAIBIUAEAAACIBBUAAACASFABAAAAiAQVAAAAgEhQAQAAAIj2u9NNnVm/w3Fsznd5PnYALNlptwzXc1/gGTpMvPPLwbm7wTlg3fwt/E/+X7HcPZye/w68UAEAAACIBBUAAACASFABAAAAiAQVAAAAgEhQAQAAAIgEFQAAAIBIUAEAAACIBBUAAACASFABAAAAiAQVAAAAgEhQAQAAAIgEFQAAAIBIUAEAAACI9nUAABbp68DM5eBZo3Ojric+j386DM6dFvIbG/n3AwAr54UKAAAAQCSoAAAAAESCCgAAAEAkqAAAAABEggoAAABAJKgAAAAARIIKAAAAQCSoAAAAAESCCgAAAEAkqAAAAABEggoAAABAJKgAAAAARIIKAAAAQLSvAwCwGV8H5y7PfA/W63Ihv+kF+Ovly7mvAMDGeKECAAAAEAkqAAAAAJGgAgAAABAJKgAAAACRoAIAAAAQCSoAAAAAkaACAAAAEAkqAAAAAJGgAgAAABAJKgAAAACRoAIAAAAQCSoAAAAAkaACAAAAEO3rAADwb3wdnLscnLsbnGN7v7EF+OXz57mvAADfxQsVAAAAgEhQAQAAAIgEFQAAAIBIUAEAAACIBBUAAACASFABAAAAiAQVAAAAgEhQAQAAAIgEFQAAAIBIUAEAAACIBBUAAACASFABAAAAiPZ1ANiG1x+vhuYe3jye/S5MY+07f/3H3DeAbfky9wVgg97PfQHYGC9UAAAAACJBBQAAACASVAAAAAAiQQUAAAAgElQAAAAAIkEFAAAAIBJUAAAAACJBBQAAACASVAAAAAAiQQUAAAAgElQAAAAAIkEFAAAAIBJUAAAAAKJ9HQD4/7z+eDU09/Dm8ex32arRHQAAAN/PCxUAAACASFABAAAAiAQVAAAAgEhQAQAAAIgEFQAAAIBIUAEAAACIBBUAAACASFABAAAAiAQVAAAAgEhQAQAAAIgEFQAAAIBIUAEAAACIBBUAAACAaF8HgG14ePM4NPf649Wkc8y/c4Dn4NPNxAdeT3we8zv1kVd//IyLAM+FFyoAAAAAkaACAAAAEAkqAAAAAJGgAgAAABAJKgAAAACRoAIAAAAQCSoAAAAAkaACAAAAEAkqAAAAAJGgAgAAABAJKgAAAACRoAIAAAAQCSoAAAAA0b4OAADAs3M9OHc3OHcanDsMznE+ozu/PPM9gMXzQgUAAAAgElQAAAAAIkEFAAAAIBJUAAAAACJBBQAAACASVAAAAAAiQQUAAAAgElQAAAAAIkEFAAAAIBJUAAAAACJBBQAAACASVAAAAAAiQQUAAAAguri/PT7VIeDHvPvtZvfcvf54Nel5D28eJz1vzZ9vzZ8NWI4vE5/36c/BwbvdtL4Ozh3OfI81mHp3133k1a+7Sb2/PU57IGycFyoAAAAAkaACAAAAEAkqAAAAAJGgAgAAABAJKgAAAACRoAIAAAAQCSoAAAAAkaACAAAAEAkqAAAAAJGgAgAAABAJKgAAAACRoAIAAAAQCSoAAAAA0b4OAMvz+uPV3FdgxUZ/Xw9vHs9+F4DsenDubnDucsLzRj/b1Ea/y1FL+V6AZ88LFQAAAIBIUAEAAACIBBUAAACASFABAAAAiAQVAAAAgEhQAQAAAIgEFQAAAIBIUAEAAACIBBUAAACASFABAAAAiAQVAAAAgEhQAQAAAIgEFQAAAIDo4v7t7mm3BIdjnznd/Iyb8LP3toHdvfswNvf649W5rwKL8/Dmce4rAN/hy8TnffpztwynwbnL3XSuB+fudtMaveeEXv067Xnv3+6Wwf8RlsvuvuGFCgAAAEAkqAAAAABEggoAAABAJKgAAAAARIIKAAAAQCSoAAAAAESCCgAAAEAkqAAAAABEggoAAABAJKgAAAAARIIKAAAAQCSoAAAAAET7OgD8uNcfr+a+Amzu38/Dm8ez3wUgOwzOnfrIqz8GzzqOjX36feLvBGBmXqgAAAAARIIKAAAAQCSoAAAAAESCCgAAAEAkqAAAAABEggoAAABAJKgAAAAARIIKAAAAQCSoAAAAAESCCgAAAEAkqAAAAABEggoAAABAJKgAAAAARIIKAAAAQCSoAAAAAESCCgAAAEAkqAAAAABEggoAAABAJKgAAAAARIIKAAAAQCSoAAAAAESCCgAAAEAkqAAAAABEggoAAABAJKgAAAAARIIKAAAAQCSoAAAAAET7OgAAAEzsso98uhk863pw7m7iudF7ApyJFyoAAAAAkaACAAAAEAkqAAAAAJGgAgAAABAJKgAAAACRoAIAAAAQCSoAAAAAkaACAAAAEAkqAAAAAJGgAgAAABAJKgAAAACRoAIAAAAQCSoAAAAA0cX97fGpDgE/5r//83/mvgJszsObx7mvAJvyZeLzPv25W4a7Cc+63q33sy3ke3n1625S72+P0x4IG+eFCgAAAEAkqAAAAABEggoAAABAJKgAAAAARIIKAAAAQCSoAAAAAESCCgAAAEAkqAAAAABEggoAAABAJKgAAAAARIIKAAAAQCSoAAAAAESCCgAAAEC0rwMAALAap8G5y920rnfP3/VCdnC34h0Ak/JCBQAAACASVAAAAAAiQQUAAAAgElQAAAAAIkEFAAAAIBJUAAAAACJBBQAAACASVAAAAAAiQQUAAAAgElQAAAAAIkEFAAAAIBJUAAAAACJBBQAAACC6uH+7e6pDq3c4js2dbs59k+1a+Q7efZj2vNcfr6Y9EL7Dw5vHua8A/ERfJj7v0+8TH3g5OHd95nts2Wni3Q14Nfgn7aj3b6c9bxFW/v+KVe/h9Px34IUKAAAAQCSoAAAAAESCCgAAAEAkqAAAAABEggoAAABAJKgAAAAARIIKAAAAQCSoAAAAAESCCgAAAEAkqAAAAABEggoAAABAJKgAAAAARIIKAAAAQLSvA8DyPLx5nOys1x+vnv0d184OgE26nPi864nP458Og3OnhfzGgGfPCxUAAACASFABAAAAiAQVAAAAgEhQAQAAAIgEFQAAAIBIUAEAAACIBBUAAACASFABAAAAiAQVAAAAgEhQAQAAAIgEFQAAAIBIUAEAAACI9nUAAACem1fHiQ+c+jwAnh0vVAAAAAAiQQUAAAAgElQAAAAAIkEFAAAAIBJUAAAAACJBBQAAACASVAAAAAAiQQUAAAAgElQAAAAAIkEFAAAAIBJUAAAAACJBBQAAACASVAAAAAAiQQUAAAAgElQAAAAAIkEFAAAAIBJUAAAAACJBBQAAACASVAAAAAAiQQUAAAAgElQAAAAAIkEFAAAAIBJUAAAAACJBBQAAACASVAAAAAAiQQUAAAAgElQAAAAAon0dAH7c/dvdev3X49jc7XFs7nQzNrdmdsD3Otj57Fa8g/dzX+C5WvHOF8MOgDPxQgUAAAAgElQAAAAAIkEFAAAAIBJUAAAAACJBBQAAACASVAAAAAAiQQUAAAAgElQAAAAAIkEFAAAAIBJUAAAAACJBBQAAACASVAAAAAAiQQUAAAAgElQAAAAAIkEFAAAAIBJUAAAAACJBBQAAACASVAAAAAAiQQUAAAAgElQAAAAAIkEFAAAAIBJUAAAAACJBBQAAACASVAAAAAAiQQUAAAAgElQAAAAAIkEFAAAAIBJUAAAAACJBBQAAACASVAAAAAAiQQUAAAAgElQAAAAAIkEFAAAAIBJUAAAAACJBBQAAACASVAAAAAAiQQUAAAAgElQAAAAAIkEFAAAAIBJUAAAAACJBBQAAACASVAAAAAAiQQUAAAAgElQAAAAAIkEFAAAAIBJUAAAAACJBBQAAACASVAAAAAAiQQUAAAAgElQAAAAAIkEFAAAAIBJUAAAAACJBBQAAACASVAAAAAAiQQUAAAAguri/PT7VIQAAAIAt80IFAAAAIBJUAAAAACJBBQAAACASVAAAAAAiQQUAAAAgElQAAAAAIkEFAAAAIBJUAAAAACJBBQAAACASVAAAAAAiQQUAAAAgElQAAAAAIkEFAAAAIBJUAAAAACJBBQAAACASVAAAAAAiQQUAAAAgElQAAAAAIkEFAAAAIBJUAAAAACJBBQAAACASVAAAAAAiQQUAAAAgElQAAAAAIkEFAAAAIBJUAAAAAKKL+7e7p90SHI595nTzM27Cz97b3+xufna3XHa3XHa3XHa3XHa3XHa3XHa3XHb3DS9UAAAAACJBBQAAACASVAAAAAAiQQUAAAAgElQAAAAAIkEFAAAAIBJUAAAAACJBBQAAACASVAAAAAAiQQUAAAAgElQAAAAAIkEFAAAAIBJUAAAAACJBBQAAACASVAAAAAAiQQUAAAAgElQAAAAAIkEFAAAAIBJUAAAAACJBBQAAACASVAAAAAAiQQUAAAAgElQAAAAAIkEFAAAAIBJUAAAAACJBBQAAACASVAAAAAAiQQUAAAAgElQAAAAAIkEFAAAAIBJUAAAAACJBBQAAACASVAAAAAAiQQUAAAAgElQAAAAAIkEFAAAAIBJUAAAAACJBBQAAACASVAAAAAAiQQUAAAAgElQAAAAAIkEFAAAAIBJUAAAAACJBBQAAACASVAAAAAAiQQUAAAAgElQAAAAAIkEFAAAAIBJUAAAAACJBBQAAACASVAAAAAAiQQUAAAAgElQAAAAAIkEFAAAAIBJUAAAAAKKL+9vjUx0CAAAA2DIvVAAAAAAiQQUAAAAgElQAAAAAIkEFAAAAIBJUAAAAACJBBQAAACASVAAAAAAiQQUAAAAgElQAAAAAIkEFAAAAIBJUAAAAACJBBQAAACASVAAAAAAiQQUAAAAgElQAAAAAIkEFAAAAIBJUAAAAACJBBQAAACASVAAAAAAiQQUAAAAgElQAAAAAIkEFAAAAIBJUAAAAACJBBQAAACASVAAAAAAiQQUAAAAgElQAAAAAoov7t7unOrR6h+PY3Onm3DfZLjvYHjufnx1sj53Pzw62x87nZwfbYt/L3cPp+e/ACxUAAACASFABAAAAiAQVAAAAgEhQAQAAAIgEFQAAAIBIUAEAAACIBBUAAACASFABAAAAiAQVAAAAgEhQAQAAAIgEFQAAAIBIUAEAAACIBBUAAACASFABAAAAiAQVAAAAgEhQAQAAAIgEFQAAAIBIUAEAAACIBBUAAACASFABAAAAiAQVAAAAgEhQAQAAAIgEFQAAAIBIUAEAAACIBBUAAACASFABAAAAiAQVAAAAgEhQAQAAAIgEFQAAAIBIUAEAAACIBBUAAACASFABAAAAiAQVAAAAgEhQAQAAAIgEFQAAAIBIUAEAAACIBBUAAACASFABAAAAiAQVAAAAgEhQAQAAAIgEFQAAAIBIUAEAAACIBBUAAACASFABAAAAiAQVAAAAgEhQAQAAAIgEFQAAAIBIUAEAAACIBBUAAACASFABAAAAiAQVAAAAgEhQAQAAAIgEFQAAAIBIUAEAAADYNf8LRHmgbIU/sWoAAAAASUVORK5CYII=;" vertex="1" parent="oyaKjV_WXcEfCoysOoAM-320">
          <mxGeometry x="8650" y="222" width="1000" height="1000" as="geometry" />
        </mxCell>
        <mxCell id="jAts5uLWIWUShjtWvATc-7" value="" style="shape=image;verticalLabelPosition=bottom;labelBackgroundColor=default;verticalAlign=top;aspect=fixed;imageAspect=0;image=data:image/png,iVBORw0KGgoAAAANSUhEUgAABFQAAARUCAYAAABY/UdQAAAAOnRFWHRTb2Z0d2FyZQBNYXRwbG90bGliIHZlcnNpb24zLjEwLjEsIGh0dHBzOi8vbWF0cGxvdGxpYi5vcmcvc2/+5QAAAAlwSFlzAAAuIwAALiMBeKU/dgAAIjJJREFUeJzt2jFuW1ebgOGrATtVSWED2oE24Crag6GebdJr9sE+atkLWoOdabwB70CAXTiVux/QIKXhmf/3e0zdy0s+T//hHPJjAvnFuXi8mZ4nvrXdjc3t7w59k/NlB+fHzpdnB+fHzpdnB+fHzpdnB+fFvte7h/3x7+C/lr4AAAAAwNoIKgAAAACRoAIAAAAQCSoAAAAAkaACAAAAEAkqAAAAAJGgAgAAABAJKgAAAACRoAIAAAAQCSoAAAAAkaACAAAAEAkqAAAAAJGgAgAAABAJKgAAAACRoAIAAAAQCSoAAAAAkaACAAAAEAkqAAAAAJGgAgAAABAJKgAAAACRoAIAAAAQCSoAAAAAkaACAAAAEAkqAAAAAJGgAgAAABAJKgAAAACRoAIAAAAQCSoAAAAAkaACAAAAEAkqAAAAAJGgAgAAABAJKgAAAACRoAIAAAAQCSoAAAAAkaACAAAAEAkqAAAAAJGgAgAAABAJKgAAAACRoAIAAAAQCSoAAAAAkaACAAAAEAkqAAAAAJGgAgAAABAJKgAAAACRoAIAAAAQCSoAAAAAkaACAAAAEAkqAAAAAJGgAgAAABAJKgAAAACRoAIAAAAQCSoAAAAAkaACAAAAEF083u+e6xAAAADAOfNCBQAAACASVAAAAAAiQQUAAAAgElQAAAAAIkEFAAAAIBJUAAAAACJBBQAAACASVAAAAAAiQQUAAAAgElQAAAAAIkEFAAAAIBJUAAAAACJBBQAAACASVAAAAAAiQQUAAAAgElQAAAAAIkEFAAAAIBJUAAAAACJBBQAAACASVAAAAAAiQQUAAAAgElQAAAAAIkEFAAAAIBJUAAAAACJBBQAAACASVAAAAAAiQQUAAAAguni8mZ6nNdju+sz+7iVuwkvv7R92tzy7Wy+7Wy+7Wy+7Wy+7Wy+7Wy+7Wy+7+4YXKgAAAACRoAIAAAAQCSoAAAAAkaACAAAAEAkqAAAAAJGgAgAAABAJKgAAAACRoAIAAAAQCSoAAAAAkaACAAAAEAkqAAAAAJGgAgAAABAJKgAAAACRoAIAAAAQCSoAAAAAkaACAAAAEAkqAAAAAJGgAgAAABAJKgAAAACRoAIAAAAQCSoAAAAAkaACAAAAEAkqAAAAAJGgAgAAABAJKgAAAACRoAIAAAAQCSoAAAAAkaACAAAAEAkqAAAAAJGgAgAAABAJKgAAAACRoAIAAAAQCSoAAAAAkaACAAAAEAkqAAAAAJGgAgAAABAJKgAAAACRoAIAAAAQCSoAAAAAkaACAAAAEAkqAAAAAJGgAgAAABAJKgAAAACRoAIAAAAQCSoAAAAAkaACAAAAEAkqAAAAAJGgAgAAABAJKgAAAACRoAIAAAAQCSoAAAAAkaACAAAAEAkqAAAAAJGgAgAAABAJKgAAAADRxeP97rkOAQAAAJwzL1QAAAAAIkEFAAAAIBJUAAAAACJBBQAAACASVAAAAAAiQQUAAAAgElQAAAAAIkEFAAAAIBJUAAAAACJBBQAAACASVAAAAAAiQQUAAAAgElQAAAAAIkEFAAAAIBJUAAAAACJBBQAAACASVAAAAAAiQQUAAAAgElQAAAAAIkEFAAAAIBJUAAAAACJBBQAAACASVAAAAAAiQQUAAAAgElQAAAAAIkEFAAAAILp4vJme69DJ2+7G5vZ3h77J+bKD82Pny7OD82Pny7OD82Pny7OD82Lf693D/vh34IUKAAAAQCSoAAAAAESCCgAAAEAkqAAAAABEggoAAABAJKgAAAAARIIKAAAAQCSoAAAAAESCCgAAAEAkqAAAAABEggoAAABAJKgAAAAARIIKAAAAQCSoAAAAAESCCgAAAEAkqAAAAABEggoAAABAJKgAAAAARIIKAAAAQCSoAAAAAESCCgAAAEAkqAAAAABEggoAAABAJKgAAAAARIIKAAAAQCSoAAAAAESCCgAAAEAkqAAAAABEggoAAABAJKgAAAAARIIKAAAAQCSoAAAAAESCCgAAAEAkqAAAAABEggoAAABAJKgAAAAARIIKAAAAQCSoAAAAAESCCgAAAEAkqAAAAABEggoAAABAJKgAAAAARIIKAAAAQCSoAAAAAESCCgAAAEAkqAAAAABEggoAAABAJKgAAAAARIIKAAAAQCSoAAAAAESCCgAAAEAkqAAAAABEggoAAABAJKgAAAAARIIKAAAAQLSpA8DPe/t+6Rscofd3S98AOzg/dr48Ozg/dr68E97B483SN4Dz4oUKAAAAQCSoAAAAAESCCgAAAEAkqAAAAABEggoAAABAJKgAAAAARIIKAAAAQCSoAAAAAESCCgAAAEAkqAAAAABEggoAAABAJKgAAAAARIIKAAAAQCSoAAAAAESCCgAAAEAkqAAAAABEggoAAABAJKgAAAAARIIKAAAAQCSoAAAAAESCCgAAAEAkqAAAAABEggoAAABAJKgAAAAARIIKAAAAQCSoAAAAAESCCgAAAEAkqAAAAABEggoAAABAJKgAAAAARIIKAAAAQCSoAAAAAESCCgAAAEAkqAAAAABEggoAAABAJKgAAAAARIIKAAAAQCSoAAAAAESCCgAAAEAkqAAAAABEggoAAABAJKgAAAAARIIKAAAAQCSoAAAAAESCCgAAAEAkqAAAAABEggoAAABAJKgAAAAARIIKAAAAQCSoAAAAAESCCgAAAEAkqAAAAABEggoAAABAJKgAAAAARBeP97vnOgT8nLe/3y19BQAATszj/W7pK8BZ8UIFAAAAIBJUAAAAACJBBQAAACASVAAAAAAiQQUAAAAgElQAAAAAIkEFAAAAIBJUAAAAACJBBQAAACASVAAAAAAiQQUAAAAgElQAAAAAIkEFAAAAIBJUAAAAACJBBQAAACASVAAAAAAiQQUAAAAgElQAAAAAIkEFAAAAIBJUAAAAACJBBQAAACASVAAAAAAiQQUAAAAgElQAAAAAIkEFAAAAIBJUAAAAACJBBQAAACDaTPu7aRW2uz6zls92ykb29g+7AwCA0/wb2r8R1svuvuGFCgAAAEAkqAAAAABEggoAAABAJKgAAAAARIIKAAAAQCSoAAAAAESCCgAAAEAkqAAAAABEggoAAABAJKgAAAAARIIKAAAAQCSoAAAAAESCCgAAAEAkqAAAAABEggoAAABAJKgAAAAARIIKAAAAQCSoAAAAAESCCgAAAEAkqAAAAABEggoAAABAJKgAAAAARIIKAAAAQCSoAAAAAESCCgAAAEAkqAAAAABEggoAAABAJKgAAAAARIIKAAAAQCSoAAAAAESCCgAAAEAkqAAAAABEggoAAABAJKgAAAAARIIKAAAAQCSoAAAAAESCCgAAAEAkqAAAAABEggoAAABAJKgAAAAARIIKAAAAQCSoAAAAAESCCgAAAEAkqAAAAABEggoAAABAJKgAAAAARIIKAAAAQCSoAAAAAESCCgAAAEAkqAAAAABEggoAAABAJKgAAAAARIIKAAAAQCSoAAAAAEQXj/e75zoE/Jy3v98tfQUAAE7M4/1u6SvAWfFCBQAAACASVAAAAAAiQQUAAAAgElQAAAAAIkEFAAAAIBJUAAAAACJBBQAAACASVAAAAAAiQQUAAAAgElQAAAAAIkEFAAAAIBJUAAAAACJBBQAAACASVAAAAAAiQQUAAAAgElQAAAAAIkEFAAAAIBJUAAAAACJBBQAAACASVAAAAAAiQQUAAAAgElQAAAAAIkEFAAAAIBJUAAAAACJBBQAAACASVAAAAAAiQQUAAAAg2kz7uzpz+ra7sTnf5eHYAQAANP4W/p5/V6x3D/vj34EXKgAAAACRoAIAAAAQCSoAAAAAkaACAAAAEAkqAAAAAJGgAgAAABAJKgAAAACRoAIAAAAQCSoAAAAAkaACAAAAEAkqAAAAAJGgAgAAABAJKgAAAACRoAIAAAAQCSoAAAAAkaACAAAAEAkqAAAAAJGgAgAAABAJKgAAAACRoAIAAAAQCSoAAAAAkaACAAAAEAkqAAAAAJGgAgAAABAJKgAAAACRoAIAAAAQCSoAAAAAkaACAAAAEAkqAAAAAJGgAgAAABAJKgAAAACRoAIAAAAQCSoAAAAAkaACAAAAEAkqAAAAAJGgAgAAABAJKgAAAACRoAIAAAAQCSoAAAAAkaACAAAAEAkqAAAAAJGgAgAAABAJKgAAAACRoAIAAAAQCSoAAAAAkaACAAAAEAkqAAAAAJGgAgAAABAJKgAAAACRoAIAAAAQCSoAAAAAkaACAAAAEAkqAAAAAJGgAgAAABAJKgAAAADRpg4AwBp9/GM6XZdLX4DV+DrfUdd/zncWACzBCxUAAACASFABAAAAiAQVAAAAgEhQAQAAAIgEFQAAAIBIUAEAAACIBBUAAACASFABAAAAiAQVAAAAgEhQAQAAAIgEFQAAAIBIUAEAAACINnUAAPgPLmc+73bm8zich5X8Nr9Os/n71av5DoMj9cvnz0tfAfgBXqgAAAAARIIKAAAAQCSoAAAAAESCCgAAAEAkqAAAAABEggoAAABAJKgAAAAARIIKAAAAQCSoAAAAAESCCgAAAEAkqAAAAABEggoAAABAJKgAAAAARJs6AABn43LpC3Dybgfn9jP/plfw38Ivnz8vfQX4zt+vXi19BeAFeaECAAAAEAkqAAAAAJGgAgAAABAJKgAAAACRoAIAAAAQCSoAAAAAkaACAAAAEAkqAAAAAJGgAgAAABAJKgAAAACRoAIAAAAQCSoAAAAAkaACAAAAEG3qAACs0uWMZ90Ozj0Mzu0H57aDcxzOw8y/57l/mwBwwrxQAQAAAIgEFQAAAIBIUAEAAACIBBUAAACASFABAAAAiAQVAAAAgEhQAQAAAIgEFQAAAIBIUAEAAACIBBUAAACASFABAAAAiAQVAAAAgEhQAQAAAIg203ZXZ/j/+C6Xt5YdvL9b+gbAj7id1uFycG4/OLcdnDtlDzOft5bfJjCvtfwtvAa+y+Vtj38HXqgAAAAARIIKAAAAQCSoAAAAAESCCgAAAEAkqAAAAABEggoAAABAJKgAAAAARIIKAAAAQCSoAAAAAESCCgAAAEAkqAAAAABEggoAAABAJKgAAAAARJs6AAC8kNvBuYfBucuZzxv9fHMa/WzTCX8nrNaXwblfD3wPgFPlhQoAAABAJKgAAAAARIIKAAAAQCSoAAAAAESCCgAAAEAkqAAAAABEggoAAABAJKgAAAAARIIKAAAAQCSoAAAAAESCCgAAAEAkqAAAAABEggoAAABAtJn2d9MqbHd9Zi2f7ZSN7O0fdgfw424H5/aDc5eDcw8zfraRs37G6D3hB30ZmNlcXY2d9fQ0NPfr0BQHtZa/of0bYb3s7hteqAAAAABEggoAAABAJKgAAAAARIIKAAAAQCSoAAAAAESCCgAAAEAkqAAAAABEggoAAABAJKgAAAAARIIKAAAAQCSoAAAAAESCCgAAAEAkqAAAAABEmzoAAJyI7eDc/sD3OJazfuY7gR/0ZXBuc3V14Jsc/qwvT09Dc78OTQEszwsVAAAAgEhQAQAAAIgEFQAAAIBIUAEAAACIBBUAAACASFABAAAAiAQVAAAAgEhQAQAAAIgEFQAAAIBIUAEAAACIBBUAAACASFABAAAAiDZ1AAAAGPPr4NyXp6c8s7m6GjrrXwNn/cxnA1grL1QAAAAAIkEFAAAAIBJUAAAAACJBBQAAACASVAAAAAAiQQUAAAAgElQAAAAAIkEFAAAAIBJUAAAAACJBBQAAACASVAAAAAAiQQUAAAAgElQAAAAAok0dAADO3OWMZ90Ozj3MPDd6T/hBvw7MfHl6mu0sgHPkhQoAAABAJKgAAAAARIIKAAAAQCSoAAAAAESCCgAAAEAkqAAAAABEggoAAABAJKgAAAAARIIKAAAAQCSoAAAAAESCCgAAAEAkqAAAAABEggoAAABAtJm2u+lknfJnO3Wnvrv3d0vfAGCaHmY+73Y6XaPf5Sl/Jyzu16UvwPxO/W/oU/98p2x7mrvzQgUAAAAgElQAAAAAIkEFAAAAIBJUAAAAACJBBQAAACASVAAAAAAiQQUAAAAgElQAAAAAIkEFAAAAIBJUAAAAACJBBQAAACASVAAAAAAiQQUAAAAg2tQBADgbD4Nzt4Nz+8G5y2leo59vTmvZwdy/MQDgYLxQAQAAAIgEFQAAAIBIUAEAAACIBBUAAACASFABAAAAiAQVAAAAgEhQAQAAAIgEFQAAAIBIUAEAAACIBBUAAACASFABAAAAiAQVAAAAgEhQAQAAAIg20/6uzpy+7W5sznd5OHYArNl+WofbpS9whLYz7/xycO5hcA44bf4W/p5/V6x3D/vj34EXKgAAAACRoAIAAAAQCSoAAAAAkaACAAAAEAkqAAAAAJGgAgAAABAJKgAAAACRoAIAAAAQCSoAAAAAkaACAAAAEAkqAAAAAJGgAgAAABAJKgAAAADRpg4AwCp9HZi5HDxrdG7U7czn8b3t4Nx+Jb+xkf9+AODEeaECAAAAEAkqAAAAAJGgAgAAABAJKgAAAACRoAIAAAAQCSoAAAAAkaACAAAAEAkqAAAAAJGgAgAAABAJKgAAAACRoAIAAAAQCSoAAAAAkaACAAAAEG3qAACcja+Dc5cHvgen63Ilv+kV+PvVq6WvAMCZ8UIFAAAAIBJUAAAAACJBBQAAACASVAAAAAAiQQUAAAAgElQAAAAAIkEFAAAAIBJUAAAAACJBBQAAACASVAAAAAAiQQUAAAAgElQAAAAAIkEFAAAAINrUAQDgP/g6OHc5OPcwOMf5/cZW4JfPn5e+AgD8EC9UAAAAACJBBQAAACASVAAAAAAiQQUAAAAgElQAAAAAIkEFAAAAIBJUAAAAACJBBQAAACASVAAAAAAiQQUAAAAgElQAAAAAIkEFAAAAINrUAQBYo+s/p6N3/eFqaO7jm6eD34V5nPLOvyx9AThD75a+AJwZL1QAAAAAIkEFAAAAIBJUAAAAACJBBQAAACASVAAAAAAiQQUAAAAgElQAAAAAIkEFAAAAIBJUAAAAACJBBQAAACASVAAAAAAiQQUAAAAgElQAAAAAok0dAACOy/WHq6G5j2+eDn6XczW6AwBgvbxQAQAAAIgEFQAAAIBIUAEAAACIBBUAAACASFABAAAAiAQVAAAAgEhQAQAAAIgEFQAAAIBIUAEAAACIBBUAAACASFABAAAAiAQVAAAAgEhQAQAAAIg2dQAAeBkf3zwNzV1/uJp1juV3zvc+3c184O3M57G8fR95/edLXAQ4Fl6oAAAAAESCCgAAAEAkqAAAAABEggoAAABAJKgAAAAARIIKAAAAQCSoAAAAAESCCgAAAEAkqAAAAABEggoAAABAJKgAAAAARIIKAAAAQCSoAAAAAESbOgAAAEfndnDuYXBuPzi3HZzjcEZ3fnngewCr54UKAAAAQCSoAAAAAESCCgAAAEAkqAAAAABEggoAAABAJKgAAAAARIIKAAAAQCSoAAAAAESCCgAAAEAkqAAAAABEggoAAABAJKgAAAAARIIKAAAAQHTxeL97rkPAz3n7+93SVwCO0PWHq1nP+/jm6WQ/3yl/tiU+34gvM5/36a/BwYdpXl8H57YHvscpmHt3t33k9W/TrN7d7+Y9EM6cFyoAAAAAkaACAAAAEAkqAAAAAJGgAgAAABAJKgAAAACRoAIAAAAQCSoAAAAAkaACAAAAEAkqAAAAAJGgAgAAABAJKgAAAACRoAIAAAAQCSoAAAAA0aYOAAD/3vWHq6WvwIkb/Y19fPN08Lus3u3g3MPg3OWM541+trmNfpej1vK9AEfPCxUAAACASFABAAAAiAQVAAAAgEhQAQAAAIgEFQAAAIBIUAEAAACIBBUAAACASFABAAAAiAQVAAAAgEhQAQAAAIgEFQAAAIBIUAEAAACIBBUAAACA6OLxZnqe1mC76zP7u5e4CS+9tzPY3dv3S98A+BHXH66WvgIchY9vnvLMl2len/6a1mE/OHc5zed2cO5hmtfoPWf0+rd5z3t3M62DfyOsl919wwsVAAAAgEhQAQAAAIgEFQAAAIBIUAEAAACIBBUAAACASFABAAAAiAQVAAAAgEhQAQAAAIgEFQAAAIBIUAEAAACIBBUAAACASFABAAAAiDZ1AADW6PrD1dJXgPP67+fN00tcZf22g3P7PvL6z8GzdmNjn/6Y+TsBWJgXKgAAAACRoAIAAAAQCSoAAAAAkaACAAAAEAkqAAAAAJGgAgAAABAJKgAAAACRoAIAAAAQCSoAAAAAkaACAAAAEAkqAAAAAJGgAgAAABAJKgAAAACRoAIAAAAQCSoAAAAAkaACAAAAEAkqAAAAAJGgAgAAABAJKgAAAACRoAIAAAAQCSoAAAAAkaACAAAAEAkqAAAAAJGgAgAAABAJKgAAAACRoAIAAAAQCSoAAAAA0aYOAAAAM7vsI5/uBs+6HZx7mHlu9J4AB+KFCgAAAEAkqAAAAABEggoAAABAJKgAAAAARIIKAAAAQCSoAAAAAESCCgAAAEAkqAAAAABEggoAAABAJKgAAAAARIIKAAAAQCSoAAAAAESCCgAAAEB08Xi/e65DwM95+/vd0leAs3P94WrpK8BZ+Z83T7Oe9+mvaR0eZjzrdjrdz7aS7+X1b9Os3t3v5j0QzpwXKgAAAACRoAIAAAAQCSoAAAAAkaACAAAAEAkqAAAAAJGgAgAAABAJKgAAAACRoAIAAAAQCSoAAAAAkaACAAAAEAkqAAAAAJGgAgAAABAJKgAAAADRpg4AAMDJ2A/OXU7zup2O3+1KdvBwwjsAZuWFCgAAAEAkqAAAAABEggoAAABAJKgAAAAARIIKAAAAQCSoAAAAAESCCgAAAEAkqAAAAABEggoAAABAJKgAAAAARIIKAAAAQCSoAAAAAESCCgAAAEB08XgzPdehk7fdjc3t7w59k/N14jt4+37pGwAv6frD1dJXgP/TxzdPs531ZZrXpz9mPvBycO72wPc4Z/uZdzfg9eCftKPe3cx73iqc+L8rTnoP++PfgRcqAAAAAJGgAgAAABAJKgAAAACRoAIAAAAQCSoAAAAAkaACAAAAEAkqAAAAAJGgAgAAABAJKgAAAACRoAIAAAAQCSoAAAAAkaACAAAAEAkqAAAAANGmDgAA/97HN0+znnf94WoV9zxldnAELmc+73bm8/jednBuv5LfGHD0vFABAAAAiAQVAAAAgEhQAQAAAIgEFQAAAIBIUAEAAACIBBUAAACASFABAAAAiAQVAAAAgEhQAQAAAIgEFQAAAIBIUAEAAACIBBUAAACAaFMHAADg2LzezXzg3OcBcHS8UAEAAACIBBUAAACASFABAAAAiAQVAAAAgEhQAQAAAIgEFQAAAIBIUAEAAACIBBUAAACASFABAAAAiAQVAAAAgEhQAQAAAIgEFQAAAIBIUAEAAACIBBUAAACASFABAAAAiAQVAAAAgEhQAQAAAIgEFQAAAIBIUAEAAACIBBUAAACASFABAAAAiAQVAAAAgEhQAQAAAIgEFQAAAIBIUAEAAACIBBUAAACASFABAAAAiDZ1APh5jzdL3+AIbXdjc/u7Q9/kfNnBev3309jcvZ0fjB18593SFzhW/l+7PDsADsQLFQAAAIBIUAEAAACIBBUAAACASFABAAAAiAQVAAAAgEhQAQAAAIgEFQAAAIBIUAEAAACIBBUAAACASFABAAAAiAQVAAAAgEhQAQAAAIgEFQAAAIBIUAEAAACIBBUAAACASFABAAAAiAQVAAAAgEhQAQAAAIgEFQAAAIBIUAEAAACIBBUAAACASFABAAAAiAQVAAAAgEhQAQAAAIgEFQAAAIBIUAEAAACIBBUAAACASFABAAAAiAQVAAAAgEhQAQAAAIgEFQAAAIBIUAEAAACIBBUAAACASFABAAAAiAQVAAAAgEhQAQAAAIgEFQAAAIBIUAEAAACIBBUAAACASFABAAAAiAQVAAAAgEhQAQAAAIgEFQAAAIBIUAEAAACIBBUAAACASFABAAAAiAQVAAAAgEhQAQAAAIgEFQAAAIBIUAEAAACIBBUAAACASFABAAAAiAQVAAAAgEhQAQAAAIgEFQAAAIDo4vF+91yHAAAAAM6ZFyoAAAAAkaACAAAAEAkqAAAAAJGgAgAAABAJKgAAAACRoAIAAAAQCSoAAAAAkaACAAAAEAkqAAAAAJGgAgAAABAJKgAAAACRoAIAAAAQCSoAAAAAkaACAAAAEAkqAAAAAJGgAgAAABAJKgAAAACRoAIAAAAQCSoAAAAAkaACAAAAEAkqAAAAAJGgAgAAABAJKgAAAACRoAIAAAAQCSoAAAAAkaACAAAAEF083kzP0xpsd31mf/cSN+Gl9/YPu1ue3a2X3a2X3a2X3a2X3a2X3a2X3a2X3X3DCxUAAACASFABAAAAiAQVAAAAgEhQAQAAAIgEFQAAAIBIUAEAAACIBBUAAACASFABAAAAiAQVAAAAgEhQAQAAAIgEFQAAAIBIUAEAAACIBBUAAACASFABAAAAiAQVAAAAgEhQAQAAAIgEFQAAAIBIUAEAAACIBBUAAACASFABAAAAiAQVAAAAgEhQAQAAAIgEFQAAAIBIUAEAAACIBBUAAACASFABAAAAiAQVAAAAgEhQAQAAAIgEFQAAAIBIUAEAAACIBBUAAACASFABAAAAiAQVAAAAgEhQAQAAAIgEFQAAAIBIUAEAAACIBBUAAACASFABAAAAiAQVAAAAgEhQAQAAAIgEFQAAAIBIUAEAAACIBBUAAACASFABAAAAiAQVAAAAgEhQAQAAAIgEFQAAAIBIUAEAAACIBBUAAACASFABAAAAiAQVAAAAgEhQAQAAAIgEFQAAAIBIUAEAAACIBBUAAACA6OLxfvdchwAAAADOmRcqAAAAAJGgAgAAABAJKgAAAACRoAIAAAAQCSoAAAAAkaACAAAAEAkqAAAAAJGgAgAAABAJKgAAAACRoAIAAAAQCSoAAAAAkaACAAAAEAkqAAAAAJGgAgAAABAJKgAAAACRoAIAAAAQCSoAAAAAkaACAAAAEAkqAAAAAJGgAgAAABAJKgAAAACRoAIAAAAQCSoAAAAAkaACAAAAEAkqAAAAAJGgAgAAABAJKgAAAADRxePN9FyHTt52Nza3vzv0Tc6XHZwfO1+eHZwfO1+eHZwfO1+eHZwX+17vHvbHvwMvVAAAAAAiQQUAAAAgElQAAAAAIkEFAAAAIBJUAAAAACJBBQAAACASVAAAAAAiQQUAAAAgElQAAAAAIkEFAAAAIBJUAAAAACJBBQAAACASVAAAAAAiQQUAAAAgElQAAAAAIkEFAAAAIBJUAAAAACJBBQAAACASVAAAAAAiQQUAAAAgElQAAAAAIkEFAAAAIBJUAAAAACJBBQAAACASVAAAAAAiQQUAAAAgElQAAAAAIkEFAAAAIBJUAAAAACJBBQAAACASVAAAAAAiQQUAAAAgElQAAAAAIkEFAAAAIBJUAAAAACJBBQAAACASVAAAAAAiQQUAAAAgElQAAAAAIkEFAAAAIBJUAAAAACJBBQAAACASVAAAAAAiQQUAAAAgElQAAAAAIkEFAAAAIBJUAAAAACJBBQAAACASVAAAAAAiQQUAAAAgElQAAAAAIkEFAAAAIBJUAAAAACJBBQAAAGBq/henHJ+V1Tc0FAAAAABJRU5ErkJggg==;" vertex="1" parent="oyaKjV_WXcEfCoysOoAM-320">
          <mxGeometry x="1830" y="222" width="1000" height="1000" as="geometry" />
        </mxCell>
        <mxCell id="oyaKjV_WXcEfCoysOoAM-321" value="&lt;font style=&quot;font-size: 160px;&quot;&gt;Monte Carlo Tree&lt;/font&gt;&lt;span style=&quot;font-size: 160px;&quot;&gt;&amp;nbsp;Search&lt;/span&gt;" style="swimlane;horizontal=0;whiteSpace=wrap;html=1;startSize=200;fillColor=#f5f5f5;fontColor=#333333;strokeColor=#666666;strokeWidth=8;" parent="1" vertex="1">
          <mxGeometry x="-830" y="-440" width="9860" height="3230" as="geometry" />
        </mxCell>
        <mxCell id="mhYo0zj6bfY33cigUTVe-19" value="" style="ellipse;whiteSpace=wrap;html=1;aspect=fixed;strokeWidth=20;fillColor=#f5f5f5;fontColor=#333333;strokeColor=#666666;" parent="1" vertex="1">
          <mxGeometry x="-500" y="1600" width="600" height="600" as="geometry" />
        </mxCell>
        <mxCell id="oyaKjV_WXcEfCoysOoAM-65" value="" style="ellipse;whiteSpace=wrap;html=1;aspect=fixed;strokeWidth=20;fillColor=#d5e8d4;strokeColor=#82b366;" parent="1" vertex="1">
          <mxGeometry x="2400" y="900" width="600" height="600" as="geometry" />
        </mxCell>
        <mxCell id="oyaKjV_WXcEfCoysOoAM-76" value="" style="ellipse;whiteSpace=wrap;html=1;aspect=fixed;strokeWidth=20;fillColor=#d5e8d4;strokeColor=#82b366;" parent="1" vertex="1">
          <mxGeometry x="5300" y="1600" width="600" height="600" as="geometry" />
        </mxCell>
        <mxCell id="mhYo0zj6bfY33cigUTVe-13" value="" style="ellipse;whiteSpace=wrap;html=1;aspect=fixed;strokeWidth=20;fillColor=#f5f5f5;fontColor=#333333;strokeColor=#666666;" parent="1" vertex="1">
          <mxGeometry x="700" y="900" width="600" height="600" as="geometry" />
        </mxCell>
        <mxCell id="oyaKjV_WXcEfCoysOoAM-7" value="" style="endArrow=classic;html=1;rounded=0;fontFamily=Helvetica;fontSize=18;fontColor=default;strokeWidth=20;fillColor=#f5f5f5;strokeColor=#666666;exitX=0.221;exitY=0.921;exitDx=0;exitDy=0;entryX=0.702;entryY=0.041;entryDx=0;entryDy=0;exitPerimeter=0;entryPerimeter=0;" parent="1" edge="1">
          <mxGeometry width="50" height="50" relative="1" as="geometry">
            <mxPoint x="350" y="940" as="sourcePoint" />
            <mxPoint x="-50" y="1640" as="targetPoint" />
          </mxGeometry>
        </mxCell>
        <mxCell id="mhYo0zj6bfY33cigUTVe-21" value="" style="ellipse;whiteSpace=wrap;html=1;aspect=fixed;strokeWidth=20;fillColor=#d5e8d4;strokeColor=#82b366;" parent="1" vertex="1">
          <mxGeometry x="-100" y="900" width="600" height="600" as="geometry" />
        </mxCell>
        <mxCell id="oyaKjV_WXcEfCoysOoAM-57" value="" style="ellipse;whiteSpace=wrap;html=1;aspect=fixed;strokeWidth=14;fillColor=#d5e8d4;strokeColor=#82b366;" parent="1" vertex="1">
          <mxGeometry x="2800" y="1600" width="600" height="600" as="geometry" />
        </mxCell>
        <mxCell id="jAts5uLWIWUShjtWvATc-5" value="" style="shape=image;verticalLabelPosition=bottom;labelBackgroundColor=default;verticalAlign=top;aspect=fixed;imageAspect=0;image=data:image/png,iVBORw0KGgoAAAANSUhEUgAABFQAAARUCAYAAABY/UdQAAAAOnRFWHRTb2Z0d2FyZQBNYXRwbG90bGliIHZlcnNpb24zLjEwLjEsIGh0dHBzOi8vbWF0cGxvdGxpYi5vcmcvc2/+5QAAAAlwSFlzAAAuIwAALiMBeKU/dgAAIsxJREFUeJzt2jFuG9mWgGFqwIyRHSjQDrwBZ95DQznTfrnWMWA+TplMJGgPnXkBI8wGGCiQI2cP0KDDhue91n9FV6mK35cf1CVPyZZ+3KuHL5uXDX+1P4zNHe/OfZLLZQeXx87nZweXx87nZweXx87nZweXxb6Xu4fj+9/Bf8x9AAAAAIClEVQAAAAAIkEFAAAAIBJUAAAAACJBBQAAACASVAAAAAAiQQUAAAAgElQAAAAAIkEFAAAAIBJUAAAAACJBBQAAACASVAAAAAAiQQUAAAAgElQAAAAAIkEFAAAAIBJUAAAAACJBBQAAACASVAAAAAAiQQUAAAAgElQAAAAAIkEFAAAAIBJUAAAAACJBBQAAACASVAAAAAAiQQUAAAAgElQAAAAAIkEFAAAAIBJUAAAAACJBBQAAACASVAAAAAAiQQUAAAAgElQAAAAAIkEFAAAAIBJUAAAAACJBBQAAACASVAAAAAAiQQUAAAAgElQAAAAAIkEFAAAAIBJUAAAAACJBBQAAACASVAAAAAAiQQUAAAAgElQAAAAAIkEFAAAAIBJUAAAAACJBBQAAACASVAAAAAAiQQUAAAAgElQAAAAAIkEFAAAAIBJUAAAAACJBBQAAACC6evh6eKlDAAAAAJfMDRUAAACASFABAAAAiAQVAAAAgEhQAQAAAIgEFQAAAIBIUAEAAACIBBUAAACASFABAAAAiAQVAAAAgEhQAQAAAIgEFQAAAIBIUAEAAACIBBUAAACASFABAAAAiAQVAAAAgEhQAQAAAIgEFQAAAIBIUAEAAACIBBUAAACASFABAAAAiAQVAAAAgEhQAQAAAIgEFQAAAIBIUAEAAACIBBUAAACASFABAAAAiAQVAAAAgOjq4cvmZbME+0OfOd79ipPwq/f2J7ubn90tl90tl90tl90tl90tl90tl90tl939hRsqAAAAAJGgAgAAABAJKgAAAACRoAIAAAAQCSoAAAAAkaACAAAAEAkqAAAAAJGgAgAAABAJKgAAAACRoAIAAAAQCSoAAAAAkaACAAAAEAkqAAAAAJGgAgAAABAJKgAAAACRoAIAAAAQCSoAAAAAkaACAAAAEAkqAAAAAJGgAgAAABAJKgAAAACRoAIAAAAQCSoAAAAAkaACAAAAEAkqAAAAAJGgAgAAABAJKgAAAACRoAIAAAAQCSoAAAAAkaACAAAAEAkqAAAAAJGgAgAAABAJKgAAAACRoAIAAAAQCSoAAAAAkaACAAAAEAkqAAAAAJGgAgAAABAJKgAAAACRoAIAAAAQCSoAAAAAkaACAAAAEAkqAAAAAJGgAgAAABAJKgAAAACRoAIAAAAQCSoAAAAAkaACAAAAEAkqAAAAAJGgAgAAABAJKgAAAACRoAIAAAAQCSoAAAAAkaACAAAAEAkqAAAAANHVw9fDSx0CAAAAuGRuqAAAAABEggoAAABAJKgAAAAARIIKAAAAQCSoAAAAAESCCgAAAEAkqAAAAABEggoAAABAJKgAAAAARIIKAAAAQCSoAAAAAESCCgAAAEAkqAAAAABEggoAAABAJKgAAAAARIIKAAAAQCSoAAAAAESCCgAAAEAkqAAAAABEggoAAABAJKgAAAAARIIKAAAAQCSoAAAAAESCCgAAAEAkqAAAAABEggoAAABAdPXwZfNSh1ZvfxibO96d+ySXyw4uj53Pzw4uj53Pzw4uj53Pzw4ui30vdw/H978DN1QAAAAAIkEFAAAAIBJUAAAAACJBBQAAACASVAAAAAAiQQUAAAAgElQAAAAAIkEFAAAAIBJUAAAAACJBBQAAACASVAAAAAAiQQUAAAAgElQAAAAAIkEFAAAAIBJUAAAAACJBBQAAACASVAAAAAAiQQUAAAAgElQAAAAAIkEFAAAAIBJUAAAAACJBBQAAACASVAAAAAAiQQUAAAAgElQAAAAAIkEFAAAAIBJUAAAAACJBBQAAACASVAAAAAAiQQUAAAAgElQAAAAAIkEFAAAAIBJUAAAAACJBBQAAACASVAAAAAAiQQUAAAAgElQAAAAAIkEFAAAAIBJUAAAAACJBBQAAACASVAAAAAAiQQUAAAAgElQAAAAAIkEFAAAAIBJUAAAAACJBBQAAACASVAAAAAAiQQUAAAAgElQAAAAAIkEFAAAAIBJUAAAAACJBBQAAACASVAAAAAAiQQUAAAAgElQAAAAAom0dAN7utz/mPsE79Mfd3CfADi6Pnc/PDi6Pnc9vxTt4+DL3CeCyuKECAAAAEAkqAAAAAJGgAgAAABAJKgAAAACRoAIAAAAQCSoAAAAAkaACAAAAEAkqAAAAAJGgAgAAABAJKgAAAACRoAIAAAAQCSoAAAAAkaACAAAAEAkqAAAAAJGgAgAAABAJKgAAAACRoAIAAAAQCSoAAAAAkaACAAAAEAkqAAAAAJGgAgAAABAJKgAAAACRoAIAAAAQCSoAAAAAkaACAAAAEAkqAAAAAJGgAgAAABAJKgAAAACRoAIAAAAQCSoAAAAAkaACAAAAEAkqAAAAAJGgAgAAABAJKgAAAACRoAIAAAAQCSoAAAAAkaACAAAAEAkqAAAAAJGgAgAAABAJKgAAAACRoAIAAAAQCSoAAAAAkaACAAAAEAkqAAAAAJGgAgAAABAJKgAAAACRoAIAAAAQCSoAAAAAkaACAAAAEAkqAAAAAJGgAgAAABAJKgAAAACRoAIAAAAQCSoAAAAA0dXD18NLHQLe5rff7+Y+AgAAK/Pw9TD3EeCiuKECAAAAEAkqAAAAAJGgAgAAABAJKgAAAACRoAIAAAAQCSoAAAAAkaACAAAAEAkqAAAAAJGgAgAAABAJKgAAAACRoAIAAAAQCSoAAAAAkaACAAAAEAkqAAAAAJGgAgAAABAJKgAAAACRoAIAAAAQCSoAAAAAkaACAAAAEAkqAAAAAJGgAgAAABAJKgAAAACRoAIAAAAQCSoAAAAAkaACAAAAEAkqAAAAAJGgAgAAABBtN8e7zSLsD31mKZ9tzUb29ie7AwCAdf4O7W+E5bK7v3BDBQAAACASVAAAAAAiQQUAAAAgElQAAAAAIkEFAAAAIBJUAAAAACJBBQAAACASVAAAAAAiQQUAAAAgElQAAAAAIkEFAAAAIBJUAAAAACJBBQAAACASVAAAAAAiQQUAAAAgElQAAAAAIkEFAAAAIBJUAAAAACJBBQAAACASVAAAAAAiQQUAAAAgElQAAAAAIkEFAAAAIBJUAAAAACJBBQAAACASVAAAAAAiQQUAAAAgElQAAAAAIkEFAAAAIBJUAAAAACJBBQAAACASVAAAAAAiQQUAAAAgElQAAAAAIkEFAAAAIBJUAAAAACJBBQAAACASVAAAAAAiQQUAAAAgElQAAAAAIkEFAAAAIBJUAAAAACJBBQAAACASVAAAAAAiQQUAAAAgElQAAAAAIkEFAAAAIBJUAAAAACJBBQAAACASVAAAAAAiQQUAAAAgElQAAAAAIkEFAAAAIBJUAAAAAKKrh6+HlzoEvM1vv9/NfQQAAFbm4eth7iPARXFDBQAAACASVAAAAAAiQQUAAAAgElQAAAAAIkEFAAAAIBJUAAAAACJBBQAAACASVAAAAAAiQQUAAAAgElQAAAAAIkEFAAAAIBJUAAAAACJBBQAAACASVAAAAAAiQQUAAAAgElQAAAAAIkEFAAAAIBJUAAAAACJBBQAAACASVAAAAAAiQQUAAAAgElQAAAAAIkEFAAAAIBJUAAAAACJBBQAAACASVAAAAAAiQQUAAAAg2m6Od3Vm/faHsTnf5fnYAQAANH4X/pm/K5a7h+P734EbKgAAAACRoAIAAAAQCSoAAAAAkaACAAAAEAkqAAAAAJGgAgAAABAJKgAAAACRoAIAAAAQCSoAAAAAkaACAAAAEAkqAAAAAJGgAgAAABAJKgAAAACRoAIAAAAQCSoAAAAAkaACAAAAEAkqAAAAAJGgAgAAABAJKgAAAACRoAIAAAAQCSoAAAAAkaACAAAAEAkqAAAAAJGgAgAAABAJKgAAAACRoAIAAAAQCSoAAAAAkaACAAAAEAkqAAAAAJGgAgAAABAJKgAAAACRoAIAAAAQCSoAAAAAkaACAAAAEAkqAAAAAJGgAgAAABAJKgAAAACRoAIAAAAQCSoAAAAAkaACAAAAEAkqAAAAAJGgAgAAABAJKgAAAACRoAIAAAAQCSoAAAAAkaACAAAAEAkqAAAAAJGgAgAAABAJKgAAAACRoAIAAAAQCSoAAAAAkaACAAAAEAkqAAAAAJGgAgAAABAJKgAAAADRtg4Al+HTt5uhucfPp7OfhWmsfeeP/9is127uA7AYP6Z71Kf/mu5ZADAHN1QAAAAAIkEFAAAAIBJUAAAAACJBBQAAACASVAAAAAAiQQUAAAAgElQAAAAAIkEFAAAAIBJUAAAAACJBBQAAACASVAAAAAAiQQUAAAAg2tYBgH/n07ebobnHz6ezn+VSje6AM9pN/LzbiZ/H+dwv5N38sZnM9+vr6R4G79SHp6e5jwC8ghsqAAAAAJGgAgAAABAJKgAAAACRoAIAAAAQCSoAAAAAkaACAAAAEAkqAAAAAJGgAgAAABAJKgAAAACRoAIAAAAQCSoAAAAAkaACAAAAEAkqAAAAANG2DgCX4fHzaWju07ebSeeYf+ertpv7AKze7eDcceJ3egE/Cx+enuY+Avzk+/X13EcAfiE3VAAAAAAiQQUAAAAgElQAAAAAIkEFAAAAIBJUAAAAACJBBQAAACASVAAAAAAiQQUAAAAgElQAAAAAIkEFAAAAIBJUAAAAACJBBQAAACASVAAAAACibR0AgEXaTfis28G5+8G54+DcfnCO87mf+H2e+t0EgBVzQwUAAAAgElQAAAAAIkEFAAAAIBJUAAAAACJBBQAAACASVAAAAAAiQQUAAAAgElQAAAAAIkEFAAAAIBJUAAAAACJBBQAAACASVAAAAAAiQQUAAAAgunr4enipQ8Db/Pb73ea9+/TtZtLnPX4+Tfq8NX++NX+2t3gc+bG73UzrfuLn/Ric25/5HGsw9e4W8G5+Oow96vv19dDch6ensQfCLzT1+/zwdfAHDxjihgoAAABAJKgAAAAARIIKAAAAQCSoAAAAAESCCgAAAEAkqAAAAABEggoAAABAJKgAAAAARIIKAAAAQCSoAAAAAESCCgAAAEAkqAAAAABEggoAAABAtK0DwPJ8+nYz9xFYsdH36/Hz6exnWbzbwbn7wbndxM8b/XxTGv1smxV/JyzW8+DcxzOfA2Ct3FABAAAAiAQVAAAAgEhQAQAAAIgEFQAAAIBIUAEAAACIBBUAAACASFABAAAAiAQVAAAAgEhQAQAAAIgEFQAAAIBIUAEAAACIBBUAAACASFABAAAAiLab491mEfaHPrOUz7ZmI3v7k939vz59u9ms1Zo/2yV8vim/k8fPp7OfZfFuB+eOg3O7wbn7CT/byLPeYvSc8ErPAzPbm7F/Z59PY//Ofhya4qyW8ju0vxGWy+7+wg0VAAAAgEhQAQAAAIgEFQAAAIBIUAEAAACIBBUAAACASFABAAAAiAQVAAAAgEhQAQAAAIgEFQAAAIBIUAEAAACIBBUAAACASFABAAAAiAQVAAAAgGhbB4C3+/TtZu4jwOX9/Pz36dxHWb794NzxzOd4L896y3cCr/Q8OLe9me53h9FnPZ/G/p39ODQFMD83VAAAAAAiQQUAAAAgElQAAAAAIkEFAAAAIBJUAAAAACJBBQAAACASVAAAAAAiQQUAAAAgElQAAAAAIkEFAAAAIBJUAAAAACJBBQAAACDa1gEAAGDMx8G559Mpz2xvboae9c+BZ73lswEslRsqAAAAAJGgAgAAABAJKgAAAACRoAIAAAAQCSoAAAAAkaACAAAAEAkqAAAAAJGgAgAAABAJKgAAAACRoAIAAAAQCSoAAAAAkaACAAAAEAkqAAAAANG2DgAAF2434bNuB+fuJ54bPSe80seBmefTabJnAVwiN1QAAAAAIkEFAAAAIBJUAAAAACJBBQAAACASVAAAAAAiQQUAAAAgElQAAAAAIkEFAAAAIBJUAAAAACJBBQAAACASVAAAAAAiQQUAAAAgElQAAAAAou1mf9is1po/29qtfnf/OfcBADab+4mfd7tZr9Hvcs3fCbP7OPcBmN7af4de++dbs/06d+eGCgAAAEAkqAAAAABEggoAAABAJKgAAAAARIIKAAAAQCSoAAAAAESCCgAAAEAkqAAAAABEggoAAABAJKgAAAAARIIKAAAAQCSoAAAAAESCCgAAAEC0rQMAcDHuB+duB+eOg3O7zbRGP9+UlrKDqd8xAOBs3FABAAAAiAQVAAAAgEhQAQAAAIgEFQAAAIBIUAEAAACIBBUAAACASFABAAAAiAQVAAAAgEhQAQAAAIgEFQAAAIBIUAEAAACIBBUAAACASFABAAAAiLab412dWb/9YWzOd3k+K9/B4+/TPu/Tt5tpHwiv8Pj5NO0Dp/zn4bhZhtu5D/AO7Sfe+W5w7n5wDli3hfwuPKmV/12x6j0c3/8O3FABAAAAiAQVAAAAgEhQAQAAAIgEFQAAAIBIUAEAAACIBBUAAACASFABAAAAiAQVAAAAgEhQAQAAAIgEFQAAAIBIUAEAAACIBBUAAACASFABAAAAiLZ1AFiex8+nyZ716dvNuz/j2tnBv/BjYGY3+KzRuVG3Ez+Pn+0H544LecdGfn4AYOXcUAEAAACIBBUAAACASFABAAAAiAQVAAAAgEhQAQAAAIgEFQAAAIBIUAEAAACIBBUAAACASFABAAAAiAQVAAAAgEhQAQAAAIgEFQAAAIBIUAEAAACItnUAAC7Gj8G53ZnPwXrtFvJOL8D36+u5jwDAhXFDBQAAACASVAAAAAAiQQUAAAAgElQAAAAAIkEFAAAAIBJUAAAAACJBBQAAACASVAAAAAAiQQUAAAAgElQAAAAAIkEFAAAAIBJUAAAAACJBBQAAACDa1gEA4G/8GJzbDc7dD85xee/YAnx4epr7CADwKm6oAAAAAESCCgAAAEAkqAAAAABEggoAAABAJKgAAAAARIIKAAAAQCSoAAAAAESCCgAAAEAkqAAAAABEggoAAABAJKgAAAAARIIKAAAAQLStAwD/zuPn09xHuHh2sGA/Bud2Zz4H799u4ncMAPiJGyoAAAAAkaACAAAAEAkqAAAAAJGgAgAAABAJKgAAAACRoAIAAAAQCSoAAAAAkaACAAAAEAkqAAAAAJGgAgAAABAJKgAAAACRoAIAAAAQCSoAAAAA0bYOAAB/Yzfx824nfh7nc7+Qd/PHZjLfr6+nexi8Ux+enuY+AvAKbqgAAAAARIIKAAAAQCSoAAAAAESCCgAAAEAkqAAAAABEggoAAABAJKgAAAAARIIKAAAAQCSoAAAAAESCCgAAAEAkqAAAAABEggoAAABAJKgAAAAARNs6AAAXYzf3AVi928G548Tv9AJ+Fj48Pc19BPjJ9+vruY8A/EJuqAAAAABEggoAAABAJKgAAAAARIIKAAAAQCSoAAAAAESCCgAAAEAkqAAAAABEggoAAABAJKgAAAAARIIKAAAAQCSoAAAAAESCCgAAAEAkqAAAAABE2zoAAIu0m/BZt4Nz94Nzx8G5/eAc53M/8fs89bsJACvmhgoAAABAJKgAAAAARIIKAAAAQCSoAAAAAESCCgAAAEAkqAAAAABEggoAAABAJKgAAAAARIIKAAAAQCSoAAAAAESCCgAAAEAkqAAAAABEggoAAABAtN3sD3WGf8V3Ob+l7OCPu7lPALzG7WYZdoNzx8G5/eDcmt1P/LylvJvAtJbyu/AS+C7nt3//O3BDBQAAACASVAAAAAAiQQUAAAAgElQAAAAAIkEFAAAAIBJUAAAAACJBBQAAACASVAAAAAAiQQUAAAAgElQAAAAAIkEFAAAAIBJUAAAAACJBBQAAACDa1gEA4Be5HZy7H5zbTfy80c83pdHPtlnxd8JiPQ/OfTzzOQDWyg0VAAAAgEhQAQAAAIgEFQAAAIBIUAEAAACIBBUAAACASFABAAAAiAQVAAAAgEhQAQAAAIgEFQAAAIBIUAEAAACIBBUAAACASFABAAAAiAQVAAAAgGi7Od5tFmF/6DNL+WxrNrK3P9kdwOvdDs4dB+d2g3P3E362kWe9xeg54ZWeB2a2NzdjzzqdhuY+Dk1xVkv5HdrfCMtld3/hhgoAAABAJKgAAAAARIIKAAAAQCSoAAAAAESCCgAAAEAkqAAAAABEggoAAABAJKgAAAAARIIKAAAAQCSoAAAAAESCCgAAAEAkqAAAAABE2zoAAKzEfnDueOZzvJdnveU7gVd6Hpzb3tyc+STnf9bz6TQ093FoCmB+bqgAAAAARIIKAAAAQCSoAAAAAESCCgAAAEAkqAAAAABEggoAAABAJKgAAAAARIIKAAAAQCSoAAAAAESCCgAAAEAkqAAAAABEggoAAABAJKgAAAAARNs6AAAAjPk4OPd8OuWZ7c3N0LP+OfCst3w2gKVyQwUAAAAgElQAAAAAIkEFAAAAIBJUAAAAACJBBQAAACASVAAAAAAiQQUAAAAgElQAAAAAIkEFAAAAIBJUAAAAACJBBQAAACASVAAAAAAiQQUAAAAg2tYBAODC7SZ81u3g3P3Ec6PnhFf6ODDzfDpN9iyAS+SGCgAAAEAkqAAAAABEggoAAABAJKgAAAAARIIKAAAAQCSoAAAAAESCCgAAAEAkqAAAAABEggoAAABAJKgAAAAARIIKAAAAQCSoAAAAAESCCgAAAEC03ewPm9Va82dbu7Xv7o+7uU8AsNncT/y82816jX6Xa/5OmN3HuQ/A9Nb+O/TaP9+a7de5OzdUAAAAACJBBQAAACASVAAAAAAiQQUAAAAgElQAAAAAIkEFAAAAIBJUAAAAACJBBQAAACASVAAAAAAiQQUAAAAgElQAAAAAIkEFAAAAIBJUAAAAAKJtHQCAi3E/OHc7OHccnNttpjX6+aa0lB1M/Y4BAGfjhgoAAABAJKgAAAAARIIKAAAAQCSoAAAAAESCCgAAAEAkqAAAAABEggoAAABAJKgAAAAARIIKAAAAQCSoAAAAAESCCgAAAEAkqAAAAABEggoAAABAtN0c7+rM+u0PY3O+y/OxA2DJjptluJ37AO/QfuKd7wbn7gfngHXzu/DP/F2x3D0c3/8O3FABAAAAiAQVAAAAgEhQAQAAAIgEFQAAAIBIUAEAAACIBBUAAACASFABAAAAiAQVAAAAgEhQAQAAAIgEFQAAAIBIUAEAAACIBBUAAACASFABAAAAiLZ1AAAW6cfAzG7wWaNzo24nfh4/2w/OHRfyjo38/ADAyrmhAgAAABAJKgAAAACRoAIAAAAQCSoAAAAAkaACAAAAEAkqAAAAAJGgAgAAABAJKgAAAACRoAIAAAAQCSoAAAAAkaACAAAAEAkqAAAAANG2DgDAxfgxOLc78zlYr91C3ukF+H59PfcRALgwbqgAAAAARIIKAAAAQCSoAAAAAESCCgAAAEAkqAAAAABEggoAAABAJKgAAAAARIIKAAAAQCSoAAAAAESCCgAAAEAkqAAAAABEggoAAABAJKgAAAAARNs6AAD8jR+Dc7vBufvBOS7vHVuAD09Pcx8BAF7FDRUAAACASFABAAAAiAQVAAAAgEhQAQAAAIgEFQAAAIBIUAEAAACIBBUAAACASFABAAAAiAQVAAAAgEhQAQAAAIgEFQAAAIBIUAEAAACIBBUAAACAaFsHgLd7+DL3Cd6h/WFs7nh37pNcrpXv4H//Z+4TvEMr3/kirHgH/q+7vJ0vhh0AZ+KGCgAAAEAkqAAAAABEggoAAABAJKgAAAAARIIKAAAAQCSoAAAAAESCCgAAAEAkqAAAAABEggoAAABAJKgAAAAARIIKAAAAQCSoAAAAAESCCgAAAEAkqAAAAABEggoAAABAJKgAAAAARIIKAAAAQCSoAAAAAESCCgAAAEAkqAAAAABEggoAAABAJKgAAAAARIIKAAAAQCSoAAAAAESCCgAAAEAkqAAAAABEggoAAABAJKgAAAAARIIKAAAAQCSoAAAAAESCCgAAAEAkqAAAAABEggoAAABAJKgAAAAARIIKAAAAQCSoAAAAAESCCgAAAEAkqAAAAABEggoAAABAJKgAAAAARIIKAAAAQCSoAAAAAESCCgAAAEAkqAAAAABEggoAAABAJKgAAAAARIIKAAAAQCSoAAAAAESCCgAAAEAkqAAAAABEggoAAABAJKgAAAAARIIKAAAAQCSoAAAAAESCCgAAAEB09fD18FKHAAAAAC6ZGyoAAAAAkaACAAAAEAkqAAAAAJGgAgAAABAJKgAAAACRoAIAAAAQCSoAAAAAkaACAAAAEAkqAAAAAJGgAgAAABAJKgAAAACRoAIAAAAQCSoAAAAAkaACAAAAEAkqAAAAAJGgAgAAABAJKgAAAACRoAIAAAAQCSoAAAAAkaACAAAAEAkqAAAAAJGgAgAAABAJKgAAAACRoAIAAAAQCSoAAAAAkaACAAAAEF09fNm8bJZgf+gzx7tfcRJ+9d7+ZHfzs7vlsrvlsrvlsrvlsrvlsrvlsrvlsru/cEMFAAAAIBJUAAAAACJBBQAAACASVAAAAAAiQQUAAAAgElQAAAAAIkEFAAAAIBJUAAAAACJBBQAAACASVAAAAAAiQQUAAAAgElQAAAAAIkEFAAAAIBJUAAAAACJBBQAAACASVAAAAAAiQQUAAAAgElQAAAAAIkEFAAAAIBJUAAAAACJBBQAAACASVAAAAAAiQQUAAAAgElQAAAAAIkEFAAAAIBJUAAAAACJBBQAAACASVAAAAAAiQQUAAAAgElQAAAAAIkEFAAAAIBJUAAAAACJBBQAAACASVAAAAAAiQQUAAAAgElQAAAAAIkEFAAAAIBJUAAAAACJBBQAAACASVAAAAAAiQQUAAAAgElQAAAAAIkEFAAAAIBJUAAAAACJBBQAAACASVAAAAAAiQQUAAAAgElQAAAAAIkEFAAAAIBJUAAAAACJBBQAAACASVAAAAAAiQQUAAAAgElQAAAAAIkEFAAAAILp6+Hp4qUMAAAAAl8wNFQAAAIBIUAEAAACIBBUAAACASFABAAAAiAQVAAAAgEhQAQAAAIgEFQAAAIBIUAEAAACIBBUAAACASFABAAAAiAQVAAAAgEhQAQAAAIgEFQAAAIBIUAEAAACIBBUAAACASFABAAAAiAQVAAAAgEhQAQAAAIgEFQAAAIBIUAEAAACIBBUAAACASFABAAAAiAQVAAAAgEhQAQAAAIgEFQAAAIBIUAEAAACIBBUAAACA6Orhy+alDq3e/jA2d7w790kulx1cHjufnx1cHjufnx1cHjufnx1cFvte7h6O738HbqgAAAAARIIKAAAAQCSoAAAAAESCCgAAAEAkqAAAAABEggoAAABAJKgAAAAARIIKAAAAQCSoAAAAAESCCgAAAEAkqAAAAABEggoAAABAJKgAAAAARIIKAAAAQCSoAAAAAESCCgAAAEAkqAAAAABEggoAAABAJKgAAAAARIIKAAAAQCSoAAAAAESCCgAAAEAkqAAAAABEggoAAABAJKgAAAAARIIKAAAAQCSoAAAAAESCCgAAAEAkqAAAAABEggoAAABAJKgAAAAARIIKAAAAQCSoAAAAAESCCgAAAEAkqAAAAABEggoAAABAJKgAAAAARIIKAAAAQCSoAAAAAESCCgAAAEAkqAAAAABEggoAAABAJKgAAAAARIIKAAAAQCSoAAAAAESCCgAAAEAkqAAAAABEggoAAABAJKgAAAAARIIKAAAAQCSoAAAAAESCCgAAAEAkqAAAAABEggoAAADApvk/hb7AompdKFcAAAAASUVORK5CYII=;clipPath=inset(0% 0% 0% 0% round 49%);" vertex="1" parent="1">
          <mxGeometry x="750" y="950" width="500" height="500" as="geometry" />
        </mxCell>
        <mxCell id="jAts5uLWIWUShjtWvATc-6" value="" style="shape=image;verticalLabelPosition=bottom;labelBackgroundColor=default;verticalAlign=top;aspect=fixed;imageAspect=0;image=data:image/png,iVBORw0KGgoAAAANSUhEUgAABFQAAARUCAYAAABY/UdQAAAAOnRFWHRTb2Z0d2FyZQBNYXRwbG90bGliIHZlcnNpb24zLjEwLjEsIGh0dHBzOi8vbWF0cGxvdGxpYi5vcmcvc2/+5QAAAAlwSFlzAAAuIwAALiMBeKU/dgAAIjJJREFUeJzt2jFuW1ebgOGrATtVSWED2oE24Crag6GebdJr9sE+atkLWoOdabwB70CAXTiVux/QIKXhmf/3e0zdy0s+T//hHPJjAvnFuXi8mZ4nvrXdjc3t7w59k/NlB+fHzpdnB+fHzpdnB+fHzpdnB+fFvte7h/3x7+C/lr4AAAAAwNoIKgAAAACRoAIAAAAQCSoAAAAAkaACAAAAEAkqAAAAAJGgAgAAABAJKgAAAACRoAIAAAAQCSoAAAAAkaACAAAAEAkqAAAAAJGgAgAAABAJKgAAAACRoAIAAAAQCSoAAAAAkaACAAAAEAkqAAAAAJGgAgAAABAJKgAAAACRoAIAAAAQCSoAAAAAkaACAAAAEAkqAAAAAJGgAgAAABAJKgAAAACRoAIAAAAQCSoAAAAAkaACAAAAEAkqAAAAAJGgAgAAABAJKgAAAACRoAIAAAAQCSoAAAAAkaACAAAAEAkqAAAAAJGgAgAAABAJKgAAAACRoAIAAAAQCSoAAAAAkaACAAAAEAkqAAAAAJGgAgAAABAJKgAAAACRoAIAAAAQCSoAAAAAkaACAAAAEAkqAAAAAJGgAgAAABAJKgAAAACRoAIAAAAQCSoAAAAAkaACAAAAEF083u+e6xAAAADAOfNCBQAAACASVAAAAAAiQQUAAAAgElQAAAAAIkEFAAAAIBJUAAAAACJBBQAAACASVAAAAAAiQQUAAAAgElQAAAAAIkEFAAAAIBJUAAAAACJBBQAAACASVAAAAAAiQQUAAAAgElQAAAAAIkEFAAAAIBJUAAAAACJBBQAAACASVAAAAAAiQQUAAAAgElQAAAAAIkEFAAAAIBJUAAAAACJBBQAAACASVAAAAAAiQQUAAAAguni8mZ6nNdju+sz+7iVuwkvv7R92tzy7Wy+7Wy+7Wy+7Wy+7Wy+7Wy+7Wy+7+4YXKgAAAACRoAIAAAAQCSoAAAAAkaACAAAAEAkqAAAAAJGgAgAAABAJKgAAAACRoAIAAAAQCSoAAAAAkaACAAAAEAkqAAAAAJGgAgAAABAJKgAAAACRoAIAAAAQCSoAAAAAkaACAAAAEAkqAAAAAJGgAgAAABAJKgAAAACRoAIAAAAQCSoAAAAAkaACAAAAEAkqAAAAAJGgAgAAABAJKgAAAACRoAIAAAAQCSoAAAAAkaACAAAAEAkqAAAAAJGgAgAAABAJKgAAAACRoAIAAAAQCSoAAAAAkaACAAAAEAkqAAAAAJGgAgAAABAJKgAAAACRoAIAAAAQCSoAAAAAkaACAAAAEAkqAAAAAJGgAgAAABAJKgAAAACRoAIAAAAQCSoAAAAAkaACAAAAEAkqAAAAAJGgAgAAABAJKgAAAACRoAIAAAAQCSoAAAAAkaACAAAAEAkqAAAAAJGgAgAAABAJKgAAAADRxeP97rkOAQAAAJwzL1QAAAAAIkEFAAAAIBJUAAAAACJBBQAAACASVAAAAAAiQQUAAAAgElQAAAAAIkEFAAAAIBJUAAAAACJBBQAAACASVAAAAAAiQQUAAAAgElQAAAAAIkEFAAAAIBJUAAAAACJBBQAAACASVAAAAAAiQQUAAAAgElQAAAAAIkEFAAAAIBJUAAAAACJBBQAAACASVAAAAAAiQQUAAAAgElQAAAAAIkEFAAAAILp4vJme69DJ2+7G5vZ3h77J+bKD82Pny7OD82Pny7OD82Pny7OD82Lf693D/vh34IUKAAAAQCSoAAAAAESCCgAAAEAkqAAAAABEggoAAABAJKgAAAAARIIKAAAAQCSoAAAAAESCCgAAAEAkqAAAAABEggoAAABAJKgAAAAARIIKAAAAQCSoAAAAAESCCgAAAEAkqAAAAABEggoAAABAJKgAAAAARIIKAAAAQCSoAAAAAESCCgAAAEAkqAAAAABEggoAAABAJKgAAAAARIIKAAAAQCSoAAAAAESCCgAAAEAkqAAAAABEggoAAABAJKgAAAAARIIKAAAAQCSoAAAAAESCCgAAAEAkqAAAAABEggoAAABAJKgAAAAARIIKAAAAQCSoAAAAAESCCgAAAEAkqAAAAABEggoAAABAJKgAAAAARIIKAAAAQCSoAAAAAESCCgAAAEAkqAAAAABEggoAAABAJKgAAAAARIIKAAAAQCSoAAAAAESCCgAAAEAkqAAAAABEggoAAABAJKgAAAAARIIKAAAAQLSpA8DPe/t+6Rscofd3S98AOzg/dr48Ozg/dr68E97B483SN4Dz4oUKAAAAQCSoAAAAAESCCgAAAEAkqAAAAABEggoAAABAJKgAAAAARIIKAAAAQCSoAAAAAESCCgAAAEAkqAAAAABEggoAAABAJKgAAAAARIIKAAAAQCSoAAAAAESCCgAAAEAkqAAAAABEggoAAABAJKgAAAAARIIKAAAAQCSoAAAAAESCCgAAAEAkqAAAAABEggoAAABAJKgAAAAARIIKAAAAQCSoAAAAAESCCgAAAEAkqAAAAABEggoAAABAJKgAAAAARIIKAAAAQCSoAAAAAESCCgAAAEAkqAAAAABEggoAAABAJKgAAAAARIIKAAAAQCSoAAAAAESCCgAAAEAkqAAAAABEggoAAABAJKgAAAAARIIKAAAAQCSoAAAAAESCCgAAAEAkqAAAAABEggoAAABAJKgAAAAARIIKAAAAQCSoAAAAAESCCgAAAEAkqAAAAABEggoAAABAJKgAAAAARBeP97vnOgT8nLe/3y19BQAATszj/W7pK8BZ8UIFAAAAIBJUAAAAACJBBQAAACASVAAAAAAiQQUAAAAgElQAAAAAIkEFAAAAIBJUAAAAACJBBQAAACASVAAAAAAiQQUAAAAgElQAAAAAIkEFAAAAIBJUAAAAACJBBQAAACASVAAAAAAiQQUAAAAgElQAAAAAIkEFAAAAIBJUAAAAACJBBQAAACASVAAAAAAiQQUAAAAgElQAAAAAIkEFAAAAIBJUAAAAACJBBQAAACDaTPu7aRW2uz6zls92ykb29g+7AwCA0/wb2r8R1svuvuGFCgAAAEAkqAAAAABEggoAAABAJKgAAAAARIIKAAAAQCSoAAAAAESCCgAAAEAkqAAAAABEggoAAABAJKgAAAAARIIKAAAAQCSoAAAAAESCCgAAAEAkqAAAAABEggoAAABAJKgAAAAARIIKAAAAQCSoAAAAAESCCgAAAEAkqAAAAABEggoAAABAJKgAAAAARIIKAAAAQCSoAAAAAESCCgAAAEAkqAAAAABEggoAAABAJKgAAAAARIIKAAAAQCSoAAAAAESCCgAAAEAkqAAAAABEggoAAABAJKgAAAAARIIKAAAAQCSoAAAAAESCCgAAAEAkqAAAAABEggoAAABAJKgAAAAARIIKAAAAQCSoAAAAAESCCgAAAEAkqAAAAABEggoAAABAJKgAAAAARIIKAAAAQCSoAAAAAESCCgAAAEAkqAAAAABEggoAAABAJKgAAAAARIIKAAAAQCSoAAAAAEQXj/e75zoE/Jy3v98tfQUAAE7M4/1u6SvAWfFCBQAAACASVAAAAAAiQQUAAAAgElQAAAAAIkEFAAAAIBJUAAAAACJBBQAAACASVAAAAAAiQQUAAAAgElQAAAAAIkEFAAAAIBJUAAAAACJBBQAAACASVAAAAAAiQQUAAAAgElQAAAAAIkEFAAAAIBJUAAAAACJBBQAAACASVAAAAAAiQQUAAAAgElQAAAAAIkEFAAAAIBJUAAAAACJBBQAAACASVAAAAAAiQQUAAAAg2kz7uzpz+ra7sTnf5eHYAQAANP4W/p5/V6x3D/vj34EXKgAAAACRoAIAAAAQCSoAAAAAkaACAAAAEAkqAAAAAJGgAgAAABAJKgAAAACRoAIAAAAQCSoAAAAAkaACAAAAEAkqAAAAAJGgAgAAABAJKgAAAACRoAIAAAAQCSoAAAAAkaACAAAAEAkqAAAAAJGgAgAAABAJKgAAAACRoAIAAAAQCSoAAAAAkaACAAAAEAkqAAAAAJGgAgAAABAJKgAAAACRoAIAAAAQCSoAAAAAkaACAAAAEAkqAAAAAJGgAgAAABAJKgAAAACRoAIAAAAQCSoAAAAAkaACAAAAEAkqAAAAAJGgAgAAABAJKgAAAACRoAIAAAAQCSoAAAAAkaACAAAAEAkqAAAAAJGgAgAAABAJKgAAAACRoAIAAAAQCSoAAAAAkaACAAAAEAkqAAAAAJGgAgAAABAJKgAAAACRoAIAAAAQCSoAAAAAkaACAAAAEAkqAAAAAJGgAgAAABAJKgAAAADRpg4AwBp9/GM6XZdLX4DV+DrfUdd/zncWACzBCxUAAACASFABAAAAiAQVAAAAgEhQAQAAAIgEFQAAAIBIUAEAAACIBBUAAACASFABAAAAiAQVAAAAgEhQAQAAAIgEFQAAAIBIUAEAAACINnUAAPgPLmc+73bm8zich5X8Nr9Os/n71av5DoMj9cvnz0tfAfgBXqgAAAAARIIKAAAAQCSoAAAAAESCCgAAAEAkqAAAAABEggoAAABAJKgAAAAARIIKAAAAQCSoAAAAAESCCgAAAEAkqAAAAABEggoAAABAJKgAAAAARJs6AABn43LpC3Dybgfn9jP/plfw38Ivnz8vfQX4zt+vXi19BeAFeaECAAAAEAkqAAAAAJGgAgAAABAJKgAAAACRoAIAAAAQCSoAAAAAkaACAAAAEAkqAAAAAJGgAgAAABAJKgAAAACRoAIAAAAQCSoAAAAAkaACAAAAEG3qAACs0uWMZ90Ozj0Mzu0H57aDcxzOw8y/57l/mwBwwrxQAQAAAIgEFQAAAIBIUAEAAACIBBUAAACASFABAAAAiAQVAAAAgEhQAQAAAIgEFQAAAIBIUAEAAACIBBUAAACASFABAAAAiAQVAAAAgEhQAQAAAIg203ZXZ/j/+C6Xt5YdvL9b+gbAj7id1uFycG4/OLcdnDtlDzOft5bfJjCvtfwtvAa+y+Vtj38HXqgAAAAARIIKAAAAQCSoAAAAAESCCgAAAEAkqAAAAABEggoAAABAJKgAAAAARIIKAAAAQCSoAAAAAESCCgAAAEAkqAAAAABEggoAAABAJKgAAAAARJs6AAC8kNvBuYfBucuZzxv9fHMa/WzTCX8nrNaXwblfD3wPgFPlhQoAAABAJKgAAAAARIIKAAAAQCSoAAAAAESCCgAAAEAkqAAAAABEggoAAABAJKgAAAAARIIKAAAAQCSoAAAAAESCCgAAAEAkqAAAAABEggoAAABAtJn2d9MqbHd9Zi2f7ZSN7O0fdgfw424H5/aDc5eDcw8zfraRs37G6D3hB30ZmNlcXY2d9fQ0NPfr0BQHtZa/of0bYb3s7hteqAAAAABEggoAAABAJKgAAAAARIIKAAAAQCSoAAAAAESCCgAAAEAkqAAAAABEggoAAABAJKgAAAAARIIKAAAAQCSoAAAAAESCCgAAAEAkqAAAAABEmzoAAJyI7eDc/sD3OJazfuY7gR/0ZXBuc3V14Jsc/qwvT09Dc78OTQEszwsVAAAAgEhQAQAAAIgEFQAAAIBIUAEAAACIBBUAAACASFABAAAAiAQVAAAAgEhQAQAAAIgEFQAAAIBIUAEAAACIBBUAAACASFABAAAAiDZ1AAAAGPPr4NyXp6c8s7m6GjrrXwNn/cxnA1grL1QAAAAAIkEFAAAAIBJUAAAAACJBBQAAACASVAAAAAAiQQUAAAAgElQAAAAAIkEFAAAAIBJUAAAAACJBBQAAACASVAAAAAAiQQUAAAAgElQAAAAAok0dAADO3OWMZ90Ozj3MPDd6T/hBvw7MfHl6mu0sgHPkhQoAAABAJKgAAAAARIIKAAAAQCSoAAAAAESCCgAAAEAkqAAAAABEggoAAABAJKgAAAAARIIKAAAAQCSoAAAAAESCCgAAAEAkqAAAAABEggoAAABAtJm2u+lknfJnO3Wnvrv3d0vfAGCaHmY+73Y6XaPf5Sl/Jyzu16UvwPxO/W/oU/98p2x7mrvzQgUAAAAgElQAAAAAIkEFAAAAIBJUAAAAACJBBQAAACASVAAAAAAiQQUAAAAgElQAAAAAIkEFAAAAIBJUAAAAACJBBQAAACASVAAAAAAiQQUAAAAg2tQBADgbD4Nzt4Nz+8G5y2leo59vTmvZwdy/MQDgYLxQAQAAAIgEFQAAAIBIUAEAAACIBBUAAACASFABAAAAiAQVAAAAgEhQAQAAAIgEFQAAAIBIUAEAAACIBBUAAACASFABAAAAiAQVAAAAgEhQAQAAAIg20/6uzpy+7W5sznd5OHYArNl+WofbpS9whLYz7/xycO5hcA44bf4W/p5/V6x3D/vj34EXKgAAAACRoAIAAAAQCSoAAAAAkaACAAAAEAkqAAAAAJGgAgAAABAJKgAAAACRoAIAAAAQCSoAAAAAkaACAAAAEAkqAAAAAJGgAgAAABAJKgAAAADRpg4AwCp9HZi5HDxrdG7U7czn8b3t4Nx+Jb+xkf9+AODEeaECAAAAEAkqAAAAAJGgAgAAABAJKgAAAACRoAIAAAAQCSoAAAAAkaACAAAAEAkqAAAAAJGgAgAAABAJKgAAAACRoAIAAAAQCSoAAAAAkaACAAAAEG3qAACcja+Dc5cHvgen63Ilv+kV+PvVq6WvAMCZ8UIFAAAAIBJUAAAAACJBBQAAACASVAAAAAAiQQUAAAAgElQAAAAAIkEFAAAAIBJUAAAAACJBBQAAACASVAAAAAAiQQUAAAAgElQAAAAAIkEFAAAAINrUAQDgP/g6OHc5OPcwOMf5/cZW4JfPn5e+AgD8EC9UAAAAACJBBQAAACASVAAAAAAiQQUAAAAgElQAAAAAIkEFAAAAIBJUAAAAACJBBQAAACASVAAAAAAiQQUAAAAgElQAAAAAIkEFAAAAINrUAQBYo+s/p6N3/eFqaO7jm6eD34V5nPLOvyx9AThD75a+AJwZL1QAAAAAIkEFAAAAIBJUAAAAACJBBQAAACASVAAAAAAiQQUAAAAgElQAAAAAIkEFAAAAIBJUAAAAACJBBQAAACASVAAAAAAiQQUAAAAgElQAAAAAok0dAACOy/WHq6G5j2+eDn6XczW6AwBgvbxQAQAAAIgEFQAAAIBIUAEAAACIBBUAAACASFABAAAAiAQVAAAAgEhQAQAAAIgEFQAAAIBIUAEAAACIBBUAAACASFABAAAAiAQVAAAAgEhQAQAAAIg2dQAAeBkf3zwNzV1/uJp1juV3zvc+3c184O3M57G8fR95/edLXAQ4Fl6oAAAAAESCCgAAAEAkqAAAAABEggoAAABAJKgAAAAARIIKAAAAQCSoAAAAAESCCgAAAEAkqAAAAABEggoAAABAJKgAAAAARIIKAAAAQCSoAAAAAESbOgAAAEfndnDuYXBuPzi3HZzjcEZ3fnngewCr54UKAAAAQCSoAAAAAESCCgAAAEAkqAAAAABEggoAAABAJKgAAAAARIIKAAAAQCSoAAAAAESCCgAAAEAkqAAAAABEggoAAABAJKgAAAAARIIKAAAAQHTxeL97rkPAz3n7+93SVwCO0PWHq1nP+/jm6WQ/3yl/tiU+34gvM5/36a/BwYdpXl8H57YHvscpmHt3t33k9W/TrN7d7+Y9EM6cFyoAAAAAkaACAAAAEAkqAAAAAJGgAgAAABAJKgAAAACRoAIAAAAQCSoAAAAAkaACAAAAEAkqAAAAAJGgAgAAABAJKgAAAACRoAIAAAAQCSoAAAAA0aYOAAD/3vWHq6WvwIkb/Y19fPN08Lus3u3g3MPg3OWM541+trmNfpej1vK9AEfPCxUAAACASFABAAAAiAQVAAAAgEhQAQAAAIgEFQAAAIBIUAEAAACIBBUAAACASFABAAAAiAQVAAAAgEhQAQAAAIgEFQAAAIBIUAEAAACIBBUAAACA6OLxZnqe1mC76zP7u5e4CS+9tzPY3dv3S98A+BHXH66WvgIchY9vnvLMl2len/6a1mE/OHc5zed2cO5hmtfoPWf0+rd5z3t3M62DfyOsl919wwsVAAAAgEhQAQAAAIgEFQAAAIBIUAEAAACIBBUAAACASFABAAAAiAQVAAAAgEhQAQAAAIgEFQAAAIBIUAEAAACIBBUAAACASFABAAAAiDZ1AADW6PrD1dJXgPP67+fN00tcZf22g3P7PvL6z8GzdmNjn/6Y+TsBWJgXKgAAAACRoAIAAAAQCSoAAAAAkaACAAAAEAkqAAAAAJGgAgAAABAJKgAAAACRoAIAAAAQCSoAAAAAkaACAAAAEAkqAAAAAJGgAgAAABAJKgAAAACRoAIAAAAQCSoAAAAAkaACAAAAEAkqAAAAAJGgAgAAABAJKgAAAACRoAIAAAAQCSoAAAAAkaACAAAAEAkqAAAAAJGgAgAAABAJKgAAAACRoAIAAAAQCSoAAAAA0aYOAAAAM7vsI5/uBs+6HZx7mHlu9J4AB+KFCgAAAEAkqAAAAABEggoAAABAJKgAAAAARIIKAAAAQCSoAAAAAESCCgAAAEAkqAAAAABEggoAAABAJKgAAAAARIIKAAAAQCSoAAAAAESCCgAAAEB08Xi/e65DwM95+/vd0leAs3P94WrpK8BZ+Z83T7Oe9+mvaR0eZjzrdjrdz7aS7+X1b9Os3t3v5j0QzpwXKgAAAACRoAIAAAAQCSoAAAAAkaACAAAAEAkqAAAAAJGgAgAAABAJKgAAAACRoAIAAAAQCSoAAAAAkaACAAAAEAkqAAAAAJGgAgAAABAJKgAAAADRpg4AAMDJ2A/OXU7zup2O3+1KdvBwwjsAZuWFCgAAAEAkqAAAAABEggoAAABAJKgAAAAARIIKAAAAQCSoAAAAAESCCgAAAEAkqAAAAABEggoAAABAJKgAAAAARIIKAAAAQCSoAAAAAESCCgAAAEB08XgzPdehk7fdjc3t7w59k/N14jt4+37pGwAv6frD1dJXgP/TxzdPs531ZZrXpz9mPvBycO72wPc4Z/uZdzfg9eCftKPe3cx73iqc+L8rTnoP++PfgRcqAAAAAJGgAgAAABAJKgAAAACRoAIAAAAQCSoAAAAAkaACAAAAEAkqAAAAAJGgAgAAABAJKgAAAACRoAIAAAAQCSoAAAAAkaACAAAAEAkqAAAAANGmDgAA/97HN0+znnf94WoV9zxldnAELmc+73bm8/jednBuv5LfGHD0vFABAAAAiAQVAAAAgEhQAQAAAIgEFQAAAIBIUAEAAACIBBUAAACASFABAAAAiAQVAAAAgEhQAQAAAIgEFQAAAIBIUAEAAACIBBUAAACAaFMHAADg2LzezXzg3OcBcHS8UAEAAACIBBUAAACASFABAAAAiAQVAAAAgEhQAQAAAIgEFQAAAIBIUAEAAACIBBUAAACASFABAAAAiAQVAAAAgEhQAQAAAIgEFQAAAIBIUAEAAACIBBUAAACASFABAAAAiAQVAAAAgEhQAQAAAIgEFQAAAIBIUAEAAACIBBUAAACASFABAAAAiAQVAAAAgEhQAQAAAIgEFQAAAIBIUAEAAACIBBUAAACASFABAAAAiDZ1APh5jzdL3+AIbXdjc/u7Q9/kfNnBev3309jcvZ0fjB18593SFzhW/l+7PDsADsQLFQAAAIBIUAEAAACIBBUAAACASFABAAAAiAQVAAAAgEhQAQAAAIgEFQAAAIBIUAEAAACIBBUAAACASFABAAAAiAQVAAAAgEhQAQAAAIgEFQAAAIBIUAEAAACIBBUAAACASFABAAAAiAQVAAAAgEhQAQAAAIgEFQAAAIBIUAEAAACIBBUAAACASFABAAAAiAQVAAAAgEhQAQAAAIgEFQAAAIBIUAEAAACIBBUAAACASFABAAAAiAQVAAAAgEhQAQAAAIgEFQAAAIBIUAEAAACIBBUAAACASFABAAAAiAQVAAAAgEhQAQAAAIgEFQAAAIBIUAEAAACIBBUAAACASFABAAAAiAQVAAAAgEhQAQAAAIgEFQAAAIBIUAEAAACIBBUAAACASFABAAAAiAQVAAAAgEhQAQAAAIgEFQAAAIBIUAEAAACIBBUAAACASFABAAAAiAQVAAAAgEhQAQAAAIgEFQAAAIDo4vF+91yHAAAAAM6ZFyoAAAAAkaACAAAAEAkqAAAAAJGgAgAAABAJKgAAAACRoAIAAAAQCSoAAAAAkaACAAAAEAkqAAAAAJGgAgAAABAJKgAAAACRoAIAAAAQCSoAAAAAkaACAAAAEAkqAAAAAJGgAgAAABAJKgAAAACRoAIAAAAQCSoAAAAAkaACAAAAEAkqAAAAAJGgAgAAABAJKgAAAACRoAIAAAAQCSoAAAAAkaACAAAAEF083kzP0xpsd31mf/cSN+Gl9/YPu1ue3a2X3a2X3a2X3a2X3a2X3a2X3a2X3X3DCxUAAACASFABAAAAiAQVAAAAgEhQAQAAAIgEFQAAAIBIUAEAAACIBBUAAACASFABAAAAiAQVAAAAgEhQAQAAAIgEFQAAAIBIUAEAAACIBBUAAACASFABAAAAiAQVAAAAgEhQAQAAAIgEFQAAAIBIUAEAAACIBBUAAACASFABAAAAiAQVAAAAgEhQAQAAAIgEFQAAAIBIUAEAAACIBBUAAACASFABAAAAiAQVAAAAgEhQAQAAAIgEFQAAAIBIUAEAAACIBBUAAACASFABAAAAiAQVAAAAgEhQAQAAAIgEFQAAAIBIUAEAAACIBBUAAACASFABAAAAiAQVAAAAgEhQAQAAAIgEFQAAAIBIUAEAAACIBBUAAACASFABAAAAiAQVAAAAgEhQAQAAAIgEFQAAAIBIUAEAAACIBBUAAACASFABAAAAiAQVAAAAgEhQAQAAAIgEFQAAAIBIUAEAAACIBBUAAACA6OLxfvdchwAAAADOmRcqAAAAAJGgAgAAABAJKgAAAACRoAIAAAAQCSoAAAAAkaACAAAAEAkqAAAAAJGgAgAAABAJKgAAAACRoAIAAAAQCSoAAAAAkaACAAAAEAkqAAAAAJGgAgAAABAJKgAAAACRoAIAAAAQCSoAAAAAkaACAAAAEAkqAAAAAJGgAgAAABAJKgAAAACRoAIAAAAQCSoAAAAAkaACAAAAEAkqAAAAAJGgAgAAABAJKgAAAADRxePN9FyHTt52Nza3vzv0Tc6XHZwfO1+eHZwfO1+eHZwfO1+eHZwX+17vHvbHvwMvVAAAAAAiQQUAAAAgElQAAAAAIkEFAAAAIBJUAAAAACJBBQAAACASVAAAAAAiQQUAAAAgElQAAAAAIkEFAAAAIBJUAAAAACJBBQAAACASVAAAAAAiQQUAAAAgElQAAAAAIkEFAAAAIBJUAAAAACJBBQAAACASVAAAAAAiQQUAAAAgElQAAAAAIkEFAAAAIBJUAAAAACJBBQAAACASVAAAAAAiQQUAAAAgElQAAAAAIkEFAAAAIBJUAAAAACJBBQAAACASVAAAAAAiQQUAAAAgElQAAAAAIkEFAAAAIBJUAAAAACJBBQAAACASVAAAAAAiQQUAAAAgElQAAAAAIkEFAAAAIBJUAAAAACJBBQAAACASVAAAAAAiQQUAAAAgElQAAAAAIkEFAAAAIBJUAAAAACJBBQAAACASVAAAAAAiQQUAAAAgElQAAAAAIkEFAAAAIBJUAAAAACJBBQAAAGBq/henHJ+V1Tc0FAAAAABJRU5ErkJggg==;clipPath=inset(0% 0% 0% 0% round 49%);" vertex="1" parent="1">
          <mxGeometry x="-50" y="950" width="500" height="500" as="geometry" />
        </mxCell>
        <mxCell id="jAts5uLWIWUShjtWvATc-9" value="" style="shape=image;verticalLabelPosition=bottom;labelBackgroundColor=default;verticalAlign=top;aspect=fixed;imageAspect=0;image=data:image/png,iVBORw0KGgoAAAANSUhEUgAABFQAAARUCAYAAABY/UdQAAAAOnRFWHRTb2Z0d2FyZQBNYXRwbG90bGliIHZlcnNpb24zLjEwLjEsIGh0dHBzOi8vbWF0cGxvdGxpYi5vcmcvc2/+5QAAAAlwSFlzAAAuIwAALiMBeKU/dgAAIjJJREFUeJzt2jFuW1ebgOGrATtVSWED2oE24Crag6GebdJr9sE+atkLWoOdabwB70CAXTiVux/QIKXhmf/3e0zdy0s+T//hHPJjAvnFuXi8mZ4nvrXdjc3t7w59k/NlB+fHzpdnB+fHzpdnB+fHzpdnB+fFvte7h/3x7+C/lr4AAAAAwNoIKgAAAACRoAIAAAAQCSoAAAAAkaACAAAAEAkqAAAAAJGgAgAAABAJKgAAAACRoAIAAAAQCSoAAAAAkaACAAAAEAkqAAAAAJGgAgAAABAJKgAAAACRoAIAAAAQCSoAAAAAkaACAAAAEAkqAAAAAJGgAgAAABAJKgAAAACRoAIAAAAQCSoAAAAAkaACAAAAEAkqAAAAAJGgAgAAABAJKgAAAACRoAIAAAAQCSoAAAAAkaACAAAAEAkqAAAAAJGgAgAAABAJKgAAAACRoAIAAAAQCSoAAAAAkaACAAAAEAkqAAAAAJGgAgAAABAJKgAAAACRoAIAAAAQCSoAAAAAkaACAAAAEAkqAAAAAJGgAgAAABAJKgAAAACRoAIAAAAQCSoAAAAAkaACAAAAEAkqAAAAAJGgAgAAABAJKgAAAACRoAIAAAAQCSoAAAAAkaACAAAAEF083u+e6xAAAADAOfNCBQAAACASVAAAAAAiQQUAAAAgElQAAAAAIkEFAAAAIBJUAAAAACJBBQAAACASVAAAAAAiQQUAAAAgElQAAAAAIkEFAAAAIBJUAAAAACJBBQAAACASVAAAAAAiQQUAAAAgElQAAAAAIkEFAAAAIBJUAAAAACJBBQAAACASVAAAAAAiQQUAAAAgElQAAAAAIkEFAAAAIBJUAAAAACJBBQAAACASVAAAAAAiQQUAAAAguni8mZ6nNdju+sz+7iVuwkvv7R92tzy7Wy+7Wy+7Wy+7Wy+7Wy+7Wy+7Wy+7+4YXKgAAAACRoAIAAAAQCSoAAAAAkaACAAAAEAkqAAAAAJGgAgAAABAJKgAAAACRoAIAAAAQCSoAAAAAkaACAAAAEAkqAAAAAJGgAgAAABAJKgAAAACRoAIAAAAQCSoAAAAAkaACAAAAEAkqAAAAAJGgAgAAABAJKgAAAACRoAIAAAAQCSoAAAAAkaACAAAAEAkqAAAAAJGgAgAAABAJKgAAAACRoAIAAAAQCSoAAAAAkaACAAAAEAkqAAAAAJGgAgAAABAJKgAAAACRoAIAAAAQCSoAAAAAkaACAAAAEAkqAAAAAJGgAgAAABAJKgAAAACRoAIAAAAQCSoAAAAAkaACAAAAEAkqAAAAAJGgAgAAABAJKgAAAACRoAIAAAAQCSoAAAAAkaACAAAAEAkqAAAAAJGgAgAAABAJKgAAAACRoAIAAAAQCSoAAAAAkaACAAAAEAkqAAAAAJGgAgAAABAJKgAAAADRxeP97rkOAQAAAJwzL1QAAAAAIkEFAAAAIBJUAAAAACJBBQAAACASVAAAAAAiQQUAAAAgElQAAAAAIkEFAAAAIBJUAAAAACJBBQAAACASVAAAAAAiQQUAAAAgElQAAAAAIkEFAAAAIBJUAAAAACJBBQAAACASVAAAAAAiQQUAAAAgElQAAAAAIkEFAAAAIBJUAAAAACJBBQAAACASVAAAAAAiQQUAAAAgElQAAAAAIkEFAAAAILp4vJme69DJ2+7G5vZ3h77J+bKD82Pny7OD82Pny7OD82Pny7OD82Lf693D/vh34IUKAAAAQCSoAAAAAESCCgAAAEAkqAAAAABEggoAAABAJKgAAAAARIIKAAAAQCSoAAAAAESCCgAAAEAkqAAAAABEggoAAABAJKgAAAAARIIKAAAAQCSoAAAAAESCCgAAAEAkqAAAAABEggoAAABAJKgAAAAARIIKAAAAQCSoAAAAAESCCgAAAEAkqAAAAABEggoAAABAJKgAAAAARIIKAAAAQCSoAAAAAESCCgAAAEAkqAAAAABEggoAAABAJKgAAAAARIIKAAAAQCSoAAAAAESCCgAAAEAkqAAAAABEggoAAABAJKgAAAAARIIKAAAAQCSoAAAAAESCCgAAAEAkqAAAAABEggoAAABAJKgAAAAARIIKAAAAQCSoAAAAAESCCgAAAEAkqAAAAABEggoAAABAJKgAAAAARIIKAAAAQCSoAAAAAESCCgAAAEAkqAAAAABEggoAAABAJKgAAAAARIIKAAAAQLSpA8DPe/t+6Rscofd3S98AOzg/dr48Ozg/dr68E97B483SN4Dz4oUKAAAAQCSoAAAAAESCCgAAAEAkqAAAAABEggoAAABAJKgAAAAARIIKAAAAQCSoAAAAAESCCgAAAEAkqAAAAABEggoAAABAJKgAAAAARIIKAAAAQCSoAAAAAESCCgAAAEAkqAAAAABEggoAAABAJKgAAAAARIIKAAAAQCSoAAAAAESCCgAAAEAkqAAAAABEggoAAABAJKgAAAAARIIKAAAAQCSoAAAAAESCCgAAAEAkqAAAAABEggoAAABAJKgAAAAARIIKAAAAQCSoAAAAAESCCgAAAEAkqAAAAABEggoAAABAJKgAAAAARIIKAAAAQCSoAAAAAESCCgAAAEAkqAAAAABEggoAAABAJKgAAAAARIIKAAAAQCSoAAAAAESCCgAAAEAkqAAAAABEggoAAABAJKgAAAAARIIKAAAAQCSoAAAAAESCCgAAAEAkqAAAAABEggoAAABAJKgAAAAARBeP97vnOgT8nLe/3y19BQAATszj/W7pK8BZ8UIFAAAAIBJUAAAAACJBBQAAACASVAAAAAAiQQUAAAAgElQAAAAAIkEFAAAAIBJUAAAAACJBBQAAACASVAAAAAAiQQUAAAAgElQAAAAAIkEFAAAAIBJUAAAAACJBBQAAACASVAAAAAAiQQUAAAAgElQAAAAAIkEFAAAAIBJUAAAAACJBBQAAACASVAAAAAAiQQUAAAAgElQAAAAAIkEFAAAAIBJUAAAAACJBBQAAACDaTPu7aRW2uz6zls92ykb29g+7AwCA0/wb2r8R1svuvuGFCgAAAEAkqAAAAABEggoAAABAJKgAAAAARIIKAAAAQCSoAAAAAESCCgAAAEAkqAAAAABEggoAAABAJKgAAAAARIIKAAAAQCSoAAAAAESCCgAAAEAkqAAAAABEggoAAABAJKgAAAAARIIKAAAAQCSoAAAAAESCCgAAAEAkqAAAAABEggoAAABAJKgAAAAARIIKAAAAQCSoAAAAAESCCgAAAEAkqAAAAABEggoAAABAJKgAAAAARIIKAAAAQCSoAAAAAESCCgAAAEAkqAAAAABEggoAAABAJKgAAAAARIIKAAAAQCSoAAAAAESCCgAAAEAkqAAAAABEggoAAABAJKgAAAAARIIKAAAAQCSoAAAAAESCCgAAAEAkqAAAAABEggoAAABAJKgAAAAARIIKAAAAQCSoAAAAAESCCgAAAEAkqAAAAABEggoAAABAJKgAAAAARIIKAAAAQCSoAAAAAEQXj/e75zoE/Jy3v98tfQUAAE7M4/1u6SvAWfFCBQAAACASVAAAAAAiQQUAAAAgElQAAAAAIkEFAAAAIBJUAAAAACJBBQAAACASVAAAAAAiQQUAAAAgElQAAAAAIkEFAAAAIBJUAAAAACJBBQAAACASVAAAAAAiQQUAAAAgElQAAAAAIkEFAAAAIBJUAAAAACJBBQAAACASVAAAAAAiQQUAAAAgElQAAAAAIkEFAAAAIBJUAAAAACJBBQAAACASVAAAAAAiQQUAAAAg2kz7uzpz+ra7sTnf5eHYAQAANP4W/p5/V6x3D/vj34EXKgAAAACRoAIAAAAQCSoAAAAAkaACAAAAEAkqAAAAAJGgAgAAABAJKgAAAACRoAIAAAAQCSoAAAAAkaACAAAAEAkqAAAAAJGgAgAAABAJKgAAAACRoAIAAAAQCSoAAAAAkaACAAAAEAkqAAAAAJGgAgAAABAJKgAAAACRoAIAAAAQCSoAAAAAkaACAAAAEAkqAAAAAJGgAgAAABAJKgAAAACRoAIAAAAQCSoAAAAAkaACAAAAEAkqAAAAAJGgAgAAABAJKgAAAACRoAIAAAAQCSoAAAAAkaACAAAAEAkqAAAAAJGgAgAAABAJKgAAAACRoAIAAAAQCSoAAAAAkaACAAAAEAkqAAAAAJGgAgAAABAJKgAAAACRoAIAAAAQCSoAAAAAkaACAAAAEAkqAAAAAJGgAgAAABAJKgAAAACRoAIAAAAQCSoAAAAAkaACAAAAEAkqAAAAAJGgAgAAABAJKgAAAADRpg4AwBp9/GM6XZdLX4DV+DrfUdd/zncWACzBCxUAAACASFABAAAAiAQVAAAAgEhQAQAAAIgEFQAAAIBIUAEAAACIBBUAAACASFABAAAAiAQVAAAAgEhQAQAAAIgEFQAAAIBIUAEAAACINnUAAPgPLmc+73bm8zich5X8Nr9Os/n71av5DoMj9cvnz0tfAfgBXqgAAAAARIIKAAAAQCSoAAAAAESCCgAAAEAkqAAAAABEggoAAABAJKgAAAAARIIKAAAAQCSoAAAAAESCCgAAAEAkqAAAAABEggoAAABAJKgAAAAARJs6AABn43LpC3Dybgfn9jP/plfw38Ivnz8vfQX4zt+vXi19BeAFeaECAAAAEAkqAAAAAJGgAgAAABAJKgAAAACRoAIAAAAQCSoAAAAAkaACAAAAEAkqAAAAAJGgAgAAABAJKgAAAACRoAIAAAAQCSoAAAAAkaACAAAAEG3qAACs0uWMZ90Ozj0Mzu0H57aDcxzOw8y/57l/mwBwwrxQAQAAAIgEFQAAAIBIUAEAAACIBBUAAACASFABAAAAiAQVAAAAgEhQAQAAAIgEFQAAAIBIUAEAAACIBBUAAACASFABAAAAiAQVAAAAgEhQAQAAAIg203ZXZ/j/+C6Xt5YdvL9b+gbAj7id1uFycG4/OLcdnDtlDzOft5bfJjCvtfwtvAa+y+Vtj38HXqgAAAAARIIKAAAAQCSoAAAAAESCCgAAAEAkqAAAAABEggoAAABAJKgAAAAARIIKAAAAQCSoAAAAAESCCgAAAEAkqAAAAABEggoAAABAJKgAAAAARJs6AAC8kNvBuYfBucuZzxv9fHMa/WzTCX8nrNaXwblfD3wPgFPlhQoAAABAJKgAAAAARIIKAAAAQCSoAAAAAESCCgAAAEAkqAAAAABEggoAAABAJKgAAAAARIIKAAAAQCSoAAAAAESCCgAAAEAkqAAAAABEggoAAABAtJn2d9MqbHd9Zi2f7ZSN7O0fdgfw424H5/aDc5eDcw8zfraRs37G6D3hB30ZmNlcXY2d9fQ0NPfr0BQHtZa/of0bYb3s7hteqAAAAABEggoAAABAJKgAAAAARIIKAAAAQCSoAAAAAESCCgAAAEAkqAAAAABEggoAAABAJKgAAAAARIIKAAAAQCSoAAAAAESCCgAAAEAkqAAAAABEmzoAAJyI7eDc/sD3OJazfuY7gR/0ZXBuc3V14Jsc/qwvT09Dc78OTQEszwsVAAAAgEhQAQAAAIgEFQAAAIBIUAEAAACIBBUAAACASFABAAAAiAQVAAAAgEhQAQAAAIgEFQAAAIBIUAEAAACIBBUAAACASFABAAAAiDZ1AAAAGPPr4NyXp6c8s7m6GjrrXwNn/cxnA1grL1QAAAAAIkEFAAAAIBJUAAAAACJBBQAAACASVAAAAAAiQQUAAAAgElQAAAAAIkEFAAAAIBJUAAAAACJBBQAAACASVAAAAAAiQQUAAAAgElQAAAAAok0dAADO3OWMZ90Ozj3MPDd6T/hBvw7MfHl6mu0sgHPkhQoAAABAJKgAAAAARIIKAAAAQCSoAAAAAESCCgAAAEAkqAAAAABEggoAAABAJKgAAAAARIIKAAAAQCSoAAAAAESCCgAAAEAkqAAAAABEggoAAABAtJm2u+lknfJnO3Wnvrv3d0vfAGCaHmY+73Y6XaPf5Sl/Jyzu16UvwPxO/W/oU/98p2x7mrvzQgUAAAAgElQAAAAAIkEFAAAAIBJUAAAAACJBBQAAACASVAAAAAAiQQUAAAAgElQAAAAAIkEFAAAAIBJUAAAAACJBBQAAACASVAAAAAAiQQUAAAAg2tQBADgbD4Nzt4Nz+8G5y2leo59vTmvZwdy/MQDgYLxQAQAAAIgEFQAAAIBIUAEAAACIBBUAAACASFABAAAAiAQVAAAAgEhQAQAAAIgEFQAAAIBIUAEAAACIBBUAAACASFABAAAAiAQVAAAAgEhQAQAAAIg20/6uzpy+7W5sznd5OHYArNl+WofbpS9whLYz7/xycO5hcA44bf4W/p5/V6x3D/vj34EXKgAAAACRoAIAAAAQCSoAAAAAkaACAAAAEAkqAAAAAJGgAgAAABAJKgAAAACRoAIAAAAQCSoAAAAAkaACAAAAEAkqAAAAAJGgAgAAABAJKgAAAADRpg4AwCp9HZi5HDxrdG7U7czn8b3t4Nx+Jb+xkf9+AODEeaECAAAAEAkqAAAAAJGgAgAAABAJKgAAAACRoAIAAAAQCSoAAAAAkaACAAAAEAkqAAAAAJGgAgAAABAJKgAAAACRoAIAAAAQCSoAAAAAkaACAAAAEG3qAACcja+Dc5cHvgen63Ilv+kV+PvVq6WvAMCZ8UIFAAAAIBJUAAAAACJBBQAAACASVAAAAAAiQQUAAAAgElQAAAAAIkEFAAAAIBJUAAAAACJBBQAAACASVAAAAAAiQQUAAAAgElQAAAAAIkEFAAAAINrUAQDgP/g6OHc5OPcwOMf5/cZW4JfPn5e+AgD8EC9UAAAAACJBBQAAACASVAAAAAAiQQUAAAAgElQAAAAAIkEFAAAAIBJUAAAAACJBBQAAACASVAAAAAAiQQUAAAAgElQAAAAAIkEFAAAAINrUAQBYo+s/p6N3/eFqaO7jm6eD34V5nPLOvyx9AThD75a+AJwZL1QAAAAAIkEFAAAAIBJUAAAAACJBBQAAACASVAAAAAAiQQUAAAAgElQAAAAAIkEFAAAAIBJUAAAAACJBBQAAACASVAAAAAAiQQUAAAAgElQAAAAAok0dAACOy/WHq6G5j2+eDn6XczW6AwBgvbxQAQAAAIgEFQAAAIBIUAEAAACIBBUAAACASFABAAAAiAQVAAAAgEhQAQAAAIgEFQAAAIBIUAEAAACIBBUAAACASFABAAAAiAQVAAAAgEhQAQAAAIg2dQAAeBkf3zwNzV1/uJp1juV3zvc+3c184O3M57G8fR95/edLXAQ4Fl6oAAAAAESCCgAAAEAkqAAAAABEggoAAABAJKgAAAAARIIKAAAAQCSoAAAAAESCCgAAAEAkqAAAAABEggoAAABAJKgAAAAARIIKAAAAQCSoAAAAAESbOgAAAEfndnDuYXBuPzi3HZzjcEZ3fnngewCr54UKAAAAQCSoAAAAAESCCgAAAEAkqAAAAABEggoAAABAJKgAAAAARIIKAAAAQCSoAAAAAESCCgAAAEAkqAAAAABEggoAAABAJKgAAAAARIIKAAAAQHTxeL97rkPAz3n7+93SVwCO0PWHq1nP+/jm6WQ/3yl/tiU+34gvM5/36a/BwYdpXl8H57YHvscpmHt3t33k9W/TrN7d7+Y9EM6cFyoAAAAAkaACAAAAEAkqAAAAAJGgAgAAABAJKgAAAACRoAIAAAAQCSoAAAAAkaACAAAAEAkqAAAAAJGgAgAAABAJKgAAAACRoAIAAAAQCSoAAAAA0aYOAAD/3vWHq6WvwIkb/Y19fPN08Lus3u3g3MPg3OWM541+trmNfpej1vK9AEfPCxUAAACASFABAAAAiAQVAAAAgEhQAQAAAIgEFQAAAIBIUAEAAACIBBUAAACASFABAAAAiAQVAAAAgEhQAQAAAIgEFQAAAIBIUAEAAACIBBUAAACA6OLxZnqe1mC76zP7u5e4CS+9tzPY3dv3S98A+BHXH66WvgIchY9vnvLMl2len/6a1mE/OHc5zed2cO5hmtfoPWf0+rd5z3t3M62DfyOsl919wwsVAAAAgEhQAQAAAIgEFQAAAIBIUAEAAACIBBUAAACASFABAAAAiAQVAAAAgEhQAQAAAIgEFQAAAIBIUAEAAACIBBUAAACASFABAAAAiDZ1AADW6PrD1dJXgPP67+fN00tcZf22g3P7PvL6z8GzdmNjn/6Y+TsBWJgXKgAAAACRoAIAAAAQCSoAAAAAkaACAAAAEAkqAAAAAJGgAgAAABAJKgAAAACRoAIAAAAQCSoAAAAAkaACAAAAEAkqAAAAAJGgAgAAABAJKgAAAACRoAIAAAAQCSoAAAAAkaACAAAAEAkqAAAAAJGgAgAAABAJKgAAAACRoAIAAAAQCSoAAAAAkaACAAAAEAkqAAAAAJGgAgAAABAJKgAAAACRoAIAAAAQCSoAAAAA0aYOAAAAM7vsI5/uBs+6HZx7mHlu9J4AB+KFCgAAAEAkqAAAAABEggoAAABAJKgAAAAARIIKAAAAQCSoAAAAAESCCgAAAEAkqAAAAABEggoAAABAJKgAAAAARIIKAAAAQCSoAAAAAESCCgAAAEB08Xi/e65DwM95+/vd0leAs3P94WrpK8BZ+Z83T7Oe9+mvaR0eZjzrdjrdz7aS7+X1b9Os3t3v5j0QzpwXKgAAAACRoAIAAAAQCSoAAAAAkaACAAAAEAkqAAAAAJGgAgAAABAJKgAAAACRoAIAAAAQCSoAAAAAkaACAAAAEAkqAAAAAJGgAgAAABAJKgAAAADRpg4AAMDJ2A/OXU7zup2O3+1KdvBwwjsAZuWFCgAAAEAkqAAAAABEggoAAABAJKgAAAAARIIKAAAAQCSoAAAAAESCCgAAAEAkqAAAAABEggoAAABAJKgAAAAARIIKAAAAQCSoAAAAAESCCgAAAEB08XgzPdehk7fdjc3t7w59k/N14jt4+37pGwAv6frD1dJXgP/TxzdPs531ZZrXpz9mPvBycO72wPc4Z/uZdzfg9eCftKPe3cx73iqc+L8rTnoP++PfgRcqAAAAAJGgAgAAABAJKgAAAACRoAIAAAAQCSoAAAAAkaACAAAAEAkqAAAAAJGgAgAAABAJKgAAAACRoAIAAAAQCSoAAAAAkaACAAAAEAkqAAAAANGmDgAA/97HN0+znnf94WoV9zxldnAELmc+73bm8/jednBuv5LfGHD0vFABAAAAiAQVAAAAgEhQAQAAAIgEFQAAAIBIUAEAAACIBBUAAACASFABAAAAiAQVAAAAgEhQAQAAAIgEFQAAAIBIUAEAAACIBBUAAACAaFMHAADg2LzezXzg3OcBcHS8UAEAAACIBBUAAACASFABAAAAiAQVAAAAgEhQAQAAAIgEFQAAAIBIUAEAAACIBBUAAACASFABAAAAiAQVAAAAgEhQAQAAAIgEFQAAAIBIUAEAAACIBBUAAACASFABAAAAiAQVAAAAgEhQAQAAAIgEFQAAAIBIUAEAAACIBBUAAACASFABAAAAiAQVAAAAgEhQAQAAAIgEFQAAAIBIUAEAAACIBBUAAACASFABAAAAiDZ1APh5jzdL3+AIbXdjc/u7Q9/kfNnBev3309jcvZ0fjB18593SFzhW/l+7PDsADsQLFQAAAIBIUAEAAACIBBUAAACASFABAAAAiAQVAAAAgEhQAQAAAIgEFQAAAIBIUAEAAACIBBUAAACASFABAAAAiAQVAAAAgEhQAQAAAIgEFQAAAIBIUAEAAACIBBUAAACASFABAAAAiAQVAAAAgEhQAQAAAIgEFQAAAIBIUAEAAACIBBUAAACASFABAAAAiAQVAAAAgEhQAQAAAIgEFQAAAIBIUAEAAACIBBUAAACASFABAAAAiAQVAAAAgEhQAQAAAIgEFQAAAIBIUAEAAACIBBUAAACASFABAAAAiAQVAAAAgEhQAQAAAIgEFQAAAIBIUAEAAACIBBUAAACASFABAAAAiAQVAAAAgEhQAQAAAIgEFQAAAIBIUAEAAACIBBUAAACASFABAAAAiAQVAAAAgEhQAQAAAIgEFQAAAIBIUAEAAACIBBUAAACASFABAAAAiAQVAAAAgEhQAQAAAIgEFQAAAIDo4vF+91yHAAAAAM6ZFyoAAAAAkaACAAAAEAkqAAAAAJGgAgAAABAJKgAAAACRoAIAAAAQCSoAAAAAkaACAAAAEAkqAAAAAJGgAgAAABAJKgAAAACRoAIAAAAQCSoAAAAAkaACAAAAEAkqAAAAAJGgAgAAABAJKgAAAACRoAIAAAAQCSoAAAAAkaACAAAAEAkqAAAAAJGgAgAAABAJKgAAAACRoAIAAAAQCSoAAAAAkaACAAAAEF083kzP0xpsd31mf/cSN+Gl9/YPu1ue3a2X3a2X3a2X3a2X3a2X3a2X3a2X3X3DCxUAAACASFABAAAAiAQVAAAAgEhQAQAAAIgEFQAAAIBIUAEAAACIBBUAAACASFABAAAAiAQVAAAAgEhQAQAAAIgEFQAAAIBIUAEAAACIBBUAAACASFABAAAAiAQVAAAAgEhQAQAAAIgEFQAAAIBIUAEAAACIBBUAAACASFABAAAAiAQVAAAAgEhQAQAAAIgEFQAAAIBIUAEAAACIBBUAAACASFABAAAAiAQVAAAAgEhQAQAAAIgEFQAAAIBIUAEAAACIBBUAAACASFABAAAAiAQVAAAAgEhQAQAAAIgEFQAAAIBIUAEAAACIBBUAAACASFABAAAAiAQVAAAAgEhQAQAAAIgEFQAAAIBIUAEAAACIBBUAAACASFABAAAAiAQVAAAAgEhQAQAAAIgEFQAAAIBIUAEAAACIBBUAAACASFABAAAAiAQVAAAAgEhQAQAAAIgEFQAAAIBIUAEAAACIBBUAAACA6OLxfvdchwAAAADOmRcqAAAAAJGgAgAAABAJKgAAAACRoAIAAAAQCSoAAAAAkaACAAAAEAkqAAAAAJGgAgAAABAJKgAAAACRoAIAAAAQCSoAAAAAkaACAAAAEAkqAAAAAJGgAgAAABAJKgAAAACRoAIAAAAQCSoAAAAAkaACAAAAEAkqAAAAAJGgAgAAABAJKgAAAACRoAIAAAAQCSoAAAAAkaACAAAAEAkqAAAAAJGgAgAAABAJKgAAAADRxePN9FyHTt52Nza3vzv0Tc6XHZwfO1+eHZwfO1+eHZwfO1+eHZwX+17vHvbHvwMvVAAAAAAiQQUAAAAgElQAAAAAIkEFAAAAIBJUAAAAACJBBQAAACASVAAAAAAiQQUAAAAgElQAAAAAIkEFAAAAIBJUAAAAACJBBQAAACASVAAAAAAiQQUAAAAgElQAAAAAIkEFAAAAIBJUAAAAACJBBQAAACASVAAAAAAiQQUAAAAgElQAAAAAIkEFAAAAIBJUAAAAACJBBQAAACASVAAAAAAiQQUAAAAgElQAAAAAIkEFAAAAIBJUAAAAACJBBQAAACASVAAAAAAiQQUAAAAgElQAAAAAIkEFAAAAIBJUAAAAACJBBQAAACASVAAAAAAiQQUAAAAgElQAAAAAIkEFAAAAIBJUAAAAACJBBQAAACASVAAAAAAiQQUAAAAgElQAAAAAIkEFAAAAIBJUAAAAACJBBQAAACASVAAAAAAiQQUAAAAgElQAAAAAIkEFAAAAIBJUAAAAACJBBQAAAGBq/henHJ+V1Tc0FAAAAABJRU5ErkJggg==;clipPath=inset(0% 0% 0% 0% round 49%);" vertex="1" parent="1">
          <mxGeometry x="2450" y="950" width="500" height="500" as="geometry" />
        </mxCell>
        <mxCell id="jAts5uLWIWUShjtWvATc-3" value="" style="shape=image;verticalLabelPosition=bottom;labelBackgroundColor=default;verticalAlign=top;aspect=fixed;imageAspect=0;image=data:image/png,iVBORw0KGgoAAAANSUhEUgAABFQAAARUCAYAAABY/UdQAAAAOnRFWHRTb2Z0d2FyZQBNYXRwbG90bGliIHZlcnNpb24zLjEwLjEsIGh0dHBzOi8vbWF0cGxvdGxpYi5vcmcvc2/+5QAAAAlwSFlzAAAuIwAALiMBeKU/dgAAIl5JREFUeJzt2jFuW1m2QFHqg5kiV6ACNAMN4Dtqz8FgrtSdayDMSylzgWOo6sgTUI9AgBXYkbMG9FGhoY/q2tfUe3zkWvnBvdShDGvjXuw/rF5W/Oh2Oza3uzv0Tc6XHZwfO5+fHZwfO5+fHZwfO5+fHZwX+17uHnbHv4P/mfsCAAAAAEsjqAAAAABEggoAAABAJKgAAAAARIIKAAAAQCSoAAAAAESCCgAAAEAkqAAAAABEggoAAABAJKgAAAAARIIKAAAAQCSoAAAAAESCCgAAAEAkqAAAAABEggoAAABAJKgAAAAARIIKAAAAQCSoAAAAAESCCgAAAEAkqAAAAABEggoAAABAJKgAAAAARIIKAAAAQCSoAAAAAESCCgAAAEAkqAAAAABEggoAAABAJKgAAAAARIIKAAAAQCSoAAAAAESCCgAAAEAkqAAAAABEggoAAABAJKgAAAAARIIKAAAAQCSoAAAAAESCCgAAAEAkqAAAAABEggoAAABAJKgAAAAARIIKAAAAQCSoAAAAAESCCgAAAEAkqAAAAABEggoAAABAJKgAAAAARIIKAAAAQCSoAAAAAESCCgAAAEAkqAAAAABEggoAAABAJKgAAAAARIIKAAAAQHSxv9++1CEAAACAc+aFCgAAAEAkqAAAAABEggoAAABAJKgAAAAARIIKAAAAQCSoAAAAAESCCgAAAEAkqAAAAABEggoAAABAJKgAAAAARIIKAAAAQCSoAAAAAESCCgAAAEAkqAAAAABEggoAAABAJKgAAAAARIIKAAAAQCSoAAAAAESCCgAAAEAkqAAAAABEggoAAABAJKgAAAAARIIKAAAAQCSoAAAAAESCCgAAAEAkqAAAAABEggoAAABAdLH/sHpZLcHtts/s7t7iJrz13v5kd/Ozu+Wyu+Wyu+Wyu+Wyu+Wyu+Wyu+Wyux94oQIAAAAQCSoAAAAAkaACAAAAEAkqAAAAAJGgAgAAABAJKgAAAACRoAIAAAAQCSoAAAAAkaACAAAAEAkqAAAAAJGgAgAAABAJKgAAAACRoAIAAAAQCSoAAAAAkaACAAAAEAkqAAAAAJGgAgAAABAJKgAAAACRoAIAAAAQCSoAAAAAkaACAAAAEAkqAAAAAJGgAgAAABAJKgAAAACRoAIAAAAQCSoAAAAAkaACAAAAEAkqAAAAAJGgAgAAABAJKgAAAACRoAIAAAAQCSoAAAAAkaACAAAAEAkqAAAAAJGgAgAAABAJKgAAAACRoAIAAAAQCSoAAAAAkaACAAAAEAkqAAAAAJGgAgAAABAJKgAAAACRoAIAAAAQCSoAAAAAkaACAAAAEAkqAAAAAJGgAgAAABAJKgAAAACRoAIAAAAQCSoAAAAAkaACAAAAEAkqAAAAAJGgAgAAABAJKgAAAACRoAIAAAAQXezvty91CAAAAOCceaECAAAAEAkqAAAAAJGgAgAAABAJKgAAAACRoAIAAAAQCSoAAAAAkaACAAAAEAkqAAAAAJGgAgAAABAJKgAAAACRoAIAAAAQCSoAAAAAkaACAAAAEAkqAAAAAJGgAgAAABAJKgAAAACRoAIAAAAQCSoAAAAAkaACAAAAEAkqAAAAAJGgAgAAABAJKgAAAACRoAIAAAAQCSoAAAAAkaACAAAAEAkqAAAAANHF/sPqpQ6dvNvt2Nzu7tA3OV92cH7sfH52cH7sfH52cH7sfH52cF7se7l72B3/DrxQAQAAAIgEFQAAAIBIUAEAAACIBBUAAACASFABAAAAiAQVAAAAgEhQAQAAAIgEFQAAAIBIUAEAAACIBBUAAACASFABAAAAiAQVAAAAgEhQAQAAAIgEFQAAAIBIUAEAAACIBBUAAACASFABAAAAiAQVAAAAgEhQAQAAAIgEFQAAAIBIUAEAAACIBBUAAACASFABAAAAiAQVAAAAgEhQAQAAAIgEFQAAAIBIUAEAAACIBBUAAACASFABAAAAiAQVAAAAgEhQAQAAAIgEFQAAAIBIUAEAAACIBBUAAACASFABAAAAiAQVAAAAgEhQAQAAAIgEFQAAAIBIUAEAAACIBBUAAACASFABAAAAiAQVAAAAgEhQAQAAAIgEFQAAAIBIUAEAAACIBBUAAACASFABAAAAiAQVAAAAgEhQAQAAAIgEFQAAAIBIUAEAAACIBBUAAACASFABAAAAiAQVAAAAgEhQAQAAAIjWdQD4eR//mPsGR+iPu7lvwInv4PGfq9N1OTj378Gd/+/gecy/g++rydz8Nt1Zi3Li/9YuwgnvYP9h7hvAefFCBQAAACASVAAAAAAiQQUAAAAgElQAAAAAIkEFAAAAIBJUAAAAACJBBQAAACASVAAAAAAiQQUAAAAgElQAAAAAIkEFAAAAIBJUAAAAACJBBQAAACBa1wEA4L+4nPi8zcTncTgPC/lufj/wPQDgBHihAgAAABAJKgAAAACRoAIAAAAQCSoAAAAAkaACAAAAEAkqAAAAAJGgAgAAABAJKgAAAACRoAIAAAAQCSoAAAAAkaACAAAAEAkqAAAAANG6DgDA2bic+wKcvM3g3G7i77TfBQB4xQsVAAAAgEhQAQAAAIgEFQAAAIBIUAEAAACIBBUAAACASFABAAAAiAQVAAAAgEhQAQAAAIgEFQAAAIBIUAEAAACIBBUAAACASFABAAAAiAQVAAAAgGhdBwBgkS4nPGszOPcwOLcbnLsdnONwHib+Pk/93QSAE+aFCgAAAEAkqAAAAABEggoAAABAJKgAAAAARIIKAAAAQCSoAAAAAESCCgAAAEAkqAAAAABEggoAAABAJKgAAAAARIIKAAAAQCSoAAAAAESCCgAAAEB0sb/fvtQh4Od8/HQ39xXg7DyO/NptVtN6mPi874Nztwe+xymYencL+G7ebN/iIsBf2d/7xYMpeaECAAAAEAkqAAAAAJGgAgAAABAJKgAAAACRoAIAAAAQCSoAAAAAkaACAAAAEAkqAAAAAJGgAgAAABAJKgAAAACRoAIAAAAQCSoAAAAAkaACAAAAEK3rAADwRjaDcw+Dc5cTnzf6+aY0+tlWJ/wzAQD+X16oAAAAAESCCgAAAEAkqAAAAABEggoAAABAJKgAAAAARIIKAAAAQCSoAAAAAESCCgAAAEAkqAAAAABEggoAAABAJKgAAAAARIIKAAAAQCSoAAAAAETr1e5utQi32z6zlM92ykb29ie7A/j7NoNzu8G5y8G5hwk/28hZP2P0ngCHtJT/Q/sbYbns7gdeqAAAAABEggoAAABAJKgAAAAARIIKAAAAQCSoAAAAAESCCgAAAEAkqAAAAABEggoAAABAJKgAAAAARIIKAAAAQCSoAAAAAESCCgAAAEAkqAAAAABE6zoAAJyI28G53YHvcSxn/czPBAA4O16oAAAAAESCCgAAAEAkqAAAAABEggoAAABAJKgAAAAARIIKAAAAQCSoAAAAAESCCgAAAEAkqAAAAABEggoAAABAJKgAAAAARIIKAAAAQCSoAAAAAESCCgAAAEAkqAAAAABEggoAAABAJKgAAAAARIIKAAAAQCSoAAAAAESCCgAAAEAkqAAAAABEggoAAABAJKgAAAAARIIKAAAAQCSoAAAAAESCCgAAAEAkqAAAAABE6zoAAJy5ywnP2gzOPUw8N3pPAGCxvFABAAAAiAQVAAAAgEhQAQAAAIgEFQAAAIBIUAEAAACIBBUAAACASFABAAAAiAQVAAAAgEhQAQAAAIgEFQAAAIBIUAEAAACIBBUAAACA6GJ/v32pQ8DP+fjpbu4rwNl5HPm126xO28PE521O+LONWsp3bODnebN9i4sAf2V/7xcPpuSFCgAAAEAkqAAAAABEggoAAABAJKgAAAAARIIKAAAAQCSoAAAAAESCCgAAAEAkqAAAAABEggoAAABAJKgAAAAARIIKAAAAQCSoAAAAAESCCgAAAEC0rgMAcDYeBuc2g3O7wbnL1bRGP9+UlrKDqb9jAMDBeKECAAAAEAkqAAAAAJGgAgAAABAJKgAAAACRoAIAAAAQCSoAAAAAkaACAAAAEAkqAAAAAJGgAgAAABAJKgAAAACRoAIAAAAQCSoAAAAAkaACAAAAEK1Xu7s6c/put2NzfpaHYwfAku1Wy7CZ+wJH6HbinV8Ozj0MzgGnzf+FX/N3xXL3sDv+HXihAgAAABAJKgAAAACRoAIAAAAQCSoAAAAAkaACAAAAEAkqAAAAAJGgAgAAABAJKgAAAACRoAIAAAAQCSoAAAAAkaACAAAAEAkqAAAAAJGgAgAAABCt6wAALNL3gZnLwbNG50ZtJj6P124H53YL+Y6N/P4AwInzQgUAAAAgElQAAAAAIkEFAAAAIBJUAAAAACJBBQAAACASVAAAAAAiQQUAAAAgElQAAAAAIkEFAAAAIBJUAAAAACJBBQAAACASVAAAAAAiQQUAAAAgWtcBADgb3wfnLg98D07X5UK+0wDAK16oAAAAAESCCgAAAEAkqAAAAABEggoAAABAJKgAAAAARIIKAAAAQCSoAAAAAESCCgAAAEAkqAAAAABEggoAAABAJKgAAAAARIIKAAAAQCSoAAAAAETrOgAA/BffB+cuB+ceBuc4v+8YAHAwXqgAAAAARIIKAAAAQCSoAAAAAESCCgAAAEAkqAAAAABEggoAAABAJKgAAAAARIIKAAAAQCSoAAAAAESCCgAAAEAkqAAAAABEggoAAABAJKgAAAAAROs6AABLdPPb6ujdfL4emnt8/3TwuzANOweA5fJCBQAAACASVAAAAAAiQQUAAAAgElQAAAAAIkEFAAAAIBJUAAAAACJBBQAAACASVAAAAAAiQQUAAAAgElQAAAAAIkEFAAAAIBJUAAAAAKJ1HQAAjsvN5+uhucf3Twe/y7ka3QGvfbu6mvsKMLt3z89zXwH4G7xQAQAAAIgEFQAAAIBIUAEAAACIBBUAAACASFABAAAAiAQVAAAAgEhQAQAAAIgEFQAAAIBIUAEAAACIBBUAAACASFABAAAAiAQVAAAAgEhQAQAAAIjWdQAAeBuP75+G5m4+X086x/w757V3z89zXwFe+XZ1NfcVgDfkhQoAAABAJKgAAAAARIIKAAAAQCSoAAAAAESCCgAAAEAkqAAAAABEggoAAABAJKgAAAAARIIKAAAAQCSoAAAAAESCCgAAAEAkqAAAAABEggoAAABAJKgAAAAARIIKAAAAQCSoAAAAAESCCgAAAEAkqAAAAABEggoAAABAJKgAAAAARIIKAAAAQCSoAAAAAESCCgAAAEAkqAAAAABEggoAAABAJKgAAAAARIIKAAAAQHSxv9++1CHg53z8dDf3FYAjdPP5etLzHt8/neznO+XPNsfnm9K3q6uhuXfPzwe/Cyzt+7y/3w7NAWO8UAEAAACIBBUAAACASFABAAAAiAQVAAAAgEhQAQAAAIgEFQAAAIBIUAEAAACIBBUAAACASFABAAAAiAQVAAAAgEhQAQAAAIgEFQAAAIBIUAEAAACI1nUAAPhrN5+v574CJ270O/b4/ungd+F4fR2c++XA9wA4VV6oAAAAAESCCgAAAEAkqAAAAABEggoAAABAJKgAAAAARIIKAAAAQCSoAAAAAESCCgAAAEAkqAAAAABEggoAAABAJKgAAAAARIIKAAAAQCSoAAAAAEQX+w+rl9US3G77zO7uLW7CW+/tDHb38Y+5bwD8HTefr+e+AhyFx/dPk5317epqaO7d8/PqlH0dmFlfj/0b9p+nsX3/MjR12qb+Pu8/rJbB3wjLZXc/8EIFAAAAIBJUAAAAACJBBQAAACASVAAAAAAiQQUAAAAgElQAAAAAIkEFAAAAIBJUAAAAACJBBQAAACASVAAAAAAiQQUAAAAgElQAAAAAIkEFAAAAIFrXAQBYopvP13NfAc7q9+fx/dOb3GXpvg7Ora+n+zds9KyvT2M7/2VoCmB+XqgAAAAARIIKAAAAQCSoAAAAAESCCgAAAEAkqAAAAABEggoAAABAJKgAAAAARIIKAAAAQCSoAAAAAESCCgAAAEAkqAAAAABEggoAAABAtK4DAADAmF8G574+PeWZ9fX10Fn/GTjrZz4bwFJ5oQIAAAAQCSoAAAAAkaACAAAAEAkqAAAAAJGgAgAAABAJKgAAAACRoAIAAAAQCSoAAAAAkaACAAAAEAkqAAAAAJGgAgAAABAJKgAAAACRoAIAAAAQresAAAAwrV8GZr4+PU12FsA58kIFAAAAIBJUAAAAACJBBQAAACASVAAAAAAiQQUAAAAgElQAAAAAIkEFAAAAIBJUAAAAACJBBQAAACASVAAAAAAiQQUAAAAgElQAAAAAIkEFAAAAILrY329f6hDwcz5+upv7CnB2bj5fz30FOCuP75+G5r5dXQ3NvXt+HpqDtzT193l/vx2aA8Z4oQIAAAAQCSoAAAAAkaACAAAAEAkqAAAAAJGgAgAAABAJKgAAAACRoAIAAAAQCSoAAAAAkaACAAAAEAkqAAAAAJGgAgAAABAJKgAAAACRoAIAAAAQCSoAAAAAkaACAAAAEAkqAAAAAJGgAgAAABAJKgAAAACRoAIAAAAQCSoAAAAAkaACAAAAEAkqAAAAAJGgAgAAABAJKgAAAACRoAIAAAAQCSoAAAAAkaACAAAAEK1Xu7s6c/put2NzfpaHYwfAgT2+f5rsrJvP15OdBcf6ewDMwP+FX/N3xXL3sDv+HXihAgAAABAJKgAAAACRoAIAAAAQCSoAAAAAkaACAAAAEAkqAAAAAJGgAgAAABAJKgAAAACRoAIAAAAQCSoAAAAAkaACAAAAEAkqAAAAAJGgAgAAABCt6wAA8Nce3z9Net7N5+tF3POU2QEAnB8vVAAAAAAiQQUAAAAgElQAAAAAIkEFAAAAIBJUAAAAACJBBQAAACASVAAAAAAiQQUAAAAgElQAAAAAIkEFAAAAIBJUAAAAACJBBQAAACASVAAAAACidR0AAIBj8+3qau4rAHBmvFABAAAAiAQVAAAAgEhQAQAAAIgEFQAAAIBIUAEAAACIBBUAAACASFABAAAAiAQVAAAAgEhQAQAAAIgEFQAAAIBIUAEAAACIBBUAAACASFABAAAAiNZ1AAAA3sq75+e5rwAAf4sXKgAAAACRoAIAAAAQCSoAAAAAkaACAAAAEAkqAAAAAJGgAgAAABAJKgAAAACRoAIAAAAQCSoAAAAAkaACAAAAEAkqAAAAAJGgAgAAABCt6wAAcFwe3z/NfYWzZwevfZ37AnCGfp/7AnBmvFABAAAAiAQVAAAAgEhQAQAAAIgEFQAAAIBIUAEAAACIBBUAAACASFABAAAAiAQVAAAAgEhQAQAAAIgEFQAAAIBIUAEAAACIBBUAAACASFABAAAAiAQVAAAAgEhQAQAAAIgEFQAAAIBIUAEAAACIBBUAAACASFABAAAAiAQVAAAAgEhQAQAAAIgEFQAAAIBIUAEAAACIBBUAAACASFABAAAAiAQVAAAAgEhQAQAAAIjWdQAAAI7Nl7uJD9xMfB7z2/WRX397i4sAx8ILFQAAAIBIUAEAAACIBBUAAACASFABAAAAiAQVAAAAgEhQAQAAAIgEFQAAAIBIUAEAAACIBBUAAACASFABAAAAiAQVAAAAgEhQAQAAAIgEFQAAAIBoXQcAAODobAbnHgbndoNzt4NzHM7ozi8PfA9g8bxQAQAAAIgEFQAAAIBIUAEAAACIBBUAAACASFABAAAAiAQVAAAAgEhQAQAAAIgEFQAAAIBIUAEAAACIBBUAAACASFABAAAAiAQVAAAAgEhQAQAAAIgu9vfblzoE/JyPn+7mvgIAvKmvE5/35V+Dgw+raX0fnLs98D1OwdS72/SRX/+xmtTv99tpD4Qz54UKAAAAQCSoAAAAAESCCgAAAEAkqAAAAABEggoAAABAJKgAAAAARIIKAAAAQCSoAAAAAESCCgAAAEAkqAAAAABEggoAAABAJKgAAAAARIIKAAAAQLSuAwAAcDI2g3MPg3OXE543+tmmNvqzHLWUnwtw9LxQAQAAAIgEFQAAAIBIUAEAAACIBBUAAACASFABAAAAiAQVAAAAgEhQAQAAAIgEFQAAAIBIUAEAAACIBBUAAACASFABAAAAiAQVAAAAgEhQAQAAAIjWq93dahFut31mKZ/tlI3s7U92BwAcs83g3G5w7nJg5mHizzZ63mrie56ypfwf2t8Iy2V3P/BCBQAAACASVAAAAAAiQQUAAAAgElQAAAAAIkEFAAAAIBJUAAAAACJBBQAAACASVAAAAAAiQQUAAAAgElQAAAAAIkEFAAAAIBJUAAAAAKJ1HQAAAAbdDs7t+sivvw2etR0b+/LPiX8mADPzQgUAAAAgElQAAAAAIkEFAAAAIBJUAAAAACJBBQAAACASVAAAAAAiQQUAAAAgElQAAAAAIkEFAAAAIBJUAAAAACJBBQAAACASVAAAAAAiQQUAAAAgElQAAAAAIkEFAAAAIBJUAAAAACJBBQAAACASVAAAAAAiQQUAAAAgElQAAAAAIkEFAAAAIBJUAAAAACJBBQAAACASVAAAAAAiQQUAAAAgElQAAAAAIkEFAAAAIFrXAQAAYGKXfeTL3eBZm8G5h4nnRu8JcCBeqAAAAABEggoAAABAJKgAAAAARIIKAAAAQCSoAAAAAESCCgAAAEAkqAAAAABEggoAAABAJKgAAAAARIIKAAAAQCSoAAAAAESCCgAAAEAkqAAAAABEF/v77UsdAn7Ox093c18BAN7U14nP+/Kv1TI8THjWZnW6n20hP5df/7Ga1O/322kPhDPnhQoAAABAJKgAAAAARIIKAAAAQCSoAAAAAESCCgAAAEAkqAAAAABEggoAAABAJKgAAAAARIIKAAAAQCSoAAAAAESCCgAAAEAkqAAAAABEggoAAABAtK4DAABwMnaDc5eraW1Wx2+zkB08nPAOgEl5oQIAAAAQCSoAAAAAkaACAAAAEAkqAAAAAJGgAgAAABAJKgAAAACRoAIAAAAQCSoAAAAAkaACAAAAEAkqAAAAAJGgAgAAABAJKgAAAACRoAIAAAAQrVe7uzpz+m63Y3N+lodjBwBAsVstw2buCxyh24l3fjk497A6fv4v/Jq/K5a7h93x78ALFQAAAIBIUAEAAACIBBUAAACASFABAAAAiAQVAAAAgEhQAQAAAIgEFQAAAIBIUAEAAACIBBUAAACASFABAAAAiAQVAAAAgEhQAQAAAIgEFQAAAIBoXQcAAODoXE583mbi83jtdnBut5DvGHD0vFABAAAAiAQVAAAAgEhQAQAAAIgEFQAAAIBIUAEAAACIBBUAAACASFABAAAAiAQVAAAAgEhQAQAAAIgEFQAAAIBIUAEAAACIBBUAAACAaF0HAADg2Py6nfjAqc8D4Oh4oQIAAAAQCSoAAAAAkaACAAAAEAkqAAAAAJGgAgAAABAJKgAAAACRoAIAAAAQCSoAAAAAkaACAAAAEAkqAAAAAJGgAgAAABAJKgAAAACRoAIAAAAQCSoAAAAAkaACAAAAEAkqAAAAAJGgAgAAABAJKgAAAACRoAIAAAAQCSoAAAAAkaACAAAAEAkqAAAAAJGgAgAAABAJKgAAAACRoAIAAAAQCSoAAAAAkaACAAAAEK3rAPDz9h/mvsERut2Oze3uDn2T82UH58fO53fCO/h97gscqxPe+WLYAXAgXqgAAAAARIIKAAAAQCSoAAAAAESCCgAAAEAkqAAAAABEggoAAABAJKgAAAAARIIKAAAAQCSoAAAAAESCCgAAAEAkqAAAAABEggoAAABAJKgAAAAARIIKAAAAQCSoAAAAAESCCgAAAEAkqAAAAABEggoAAABAJKgAAAAARIIKAAAAQCSoAAAAAESCCgAAAEAkqAAAAABEggoAAABAJKgAAAAARIIKAAAAQCSoAAAAAESCCgAAAEAkqAAAAABEggoAAABAJKgAAAAARIIKAAAAQCSoAAAAAESCCgAAAEAkqAAAAABEggoAAABAJKgAAAAARIIKAAAAQCSoAAAAAESCCgAAAEAkqAAAAABEggoAAABAJKgAAAAARIIKAAAAQCSoAAAAAESCCgAAAEAkqAAAAABEggoAAABAJKgAAAAARIIKAAAAQCSoAAAAAESCCgAAAEAkqAAAAABEggoAAABAJKgAAAAARBf7++1LHQIAAAA4Z16oAAAAAESCCgAAAEAkqAAAAABEggoAAABAJKgAAAAARIIKAAAAQCSoAAAAAESCCgAAAEAkqAAAAABEggoAAABAJKgAAAAARIIKAAAAQCSoAAAAAESCCgAAAEAkqAAAAABEggoAAABAJKgAAAAARIIKAAAAQCSoAAAAAESCCgAAAEAkqAAAAABEggoAAABAJKgAAAAARIIKAAAAQCSoAAAAAESCCgAAAEB0sf+welktwe22z+zu3uImvPXe/mR387O75bK75bK75bK75bK75bK75bK75bK7H3ihAgAAABAJKgAAAACRoAIAAAAQCSoAAAAAkaACAAAAEAkqAAAAAJGgAgAAABAJKgAAAACRoAIAAAAQCSoAAAAAkaACAAAAEAkqAAAAAJGgAgAAABAJKgAAAACRoAIAAAAQCSoAAAAAkaACAAAAEAkqAAAAAJGgAgAAABAJKgAAAACRoAIAAAAQCSoAAAAAkaACAAAAEAkqAAAAAJGgAgAAABAJKgAAAACRoAIAAAAQCSoAAAAAkaACAAAAEAkqAAAAAJGgAgAAABAJKgAAAACRoAIAAAAQCSoAAAAAkaACAAAAEAkqAAAAAJGgAgAAABAJKgAAAACRoAIAAAAQCSoAAAAAkaACAAAAEAkqAAAAAJGgAgAAABAJKgAAAACRoAIAAAAQCSoAAAAAkaACAAAAEAkqAAAAAJGgAgAAABAJKgAAAACRoAIAAAAQCSoAAAAAkaACAAAAEAkqAAAAAJGgAgAAABBd7O+3L3UIAAAA4Jx5oQIAAAAQCSoAAAAAkaACAAAAEAkqAAAAAJGgAgAAABAJKgAAAACRoAIAAAAQCSoAAAAAkaACAAAAEAkqAAAAAJGgAgAAABAJKgAAAACRoAIAAAAQCSoAAAAAkaACAAAAEAkqAAAAAJGgAgAAABAJKgAAAACRoAIAAAAQCSoAAAAAkaACAAAAEAkqAAAAAJGgAgAAABAJKgAAAACRoAIAAAAQCSoAAAAAkaACAAAAEF3sP6xe6tDJu92Oze3uDn2T82UH58fO52cH58fO52cH58fO52cH58W+l7uH3fHvwAsVAAAAgEhQAQAAAIgEFQAAAIBIUAEAAACIBBUAAACASFABAAAAiAQVAAAAgEhQAQAAAIgEFQAAAIBIUAEAAACIBBUAAACASFABAAAAiAQVAAAAgEhQAQAAAIgEFQAAAIBIUAEAAACIBBUAAACASFABAAAAiAQVAAAAgEhQAQAAAIgEFQAAAIBIUAEAAACIBBUAAACASFABAAAAiAQVAAAAgEhQAQAAAIgEFQAAAIBIUAEAAACIBBUAAACASFABAAAAiAQVAAAAgEhQAQAAAIgEFQAAAIBIUAEAAACIBBUAAACASFABAAAAiAQVAAAAgEhQAQAAAIgEFQAAAIBIUAEAAACIBBUAAACASFABAAAAiAQVAAAAgEhQAQAAAIgEFQAAAIBIUAEAAACIBBUAAACASFABAAAAiAQVAAAAgEhQAQAAAIgEFQAAAIBIUAEAAACIBBUAAACASFABAAAAWDX/B2FltoN9uFuwAAAAAElFTkSuQmCC;clipPath=inset(0% 0% 0% 0% round 49%);" vertex="1" parent="1">
          <mxGeometry x="-450" y="1650" width="500" height="500" as="geometry" />
        </mxCell>
        <mxCell id="jAts5uLWIWUShjtWvATc-4" value="" style="shape=image;verticalLabelPosition=bottom;labelBackgroundColor=default;verticalAlign=top;aspect=fixed;imageAspect=0;image=data:image/png,iVBORw0KGgoAAAANSUhEUgAABFQAAARUCAYAAABY/UdQAAAAOnRFWHRTb2Z0d2FyZQBNYXRwbG90bGliIHZlcnNpb24zLjEwLjEsIGh0dHBzOi8vbWF0cGxvdGxpYi5vcmcvc2/+5QAAAAlwSFlzAAAuIwAALiMBeKU/dgAAIjBJREFUeJzt2jFuVFmbgOHyqDJHTQCSd0A2EVGzB+S80u7cE80eRpW308otrwE6YgPegSUI6IjslzzqELVmft5Dca/vvc+Tfzqn6isk8+pc3L/dPe341uE4Nne6OfdNtssOtsfO52cH22Pn87OD7bHz+dnBttj3cvdwev47+I+5LwAAAACwNIIKAAAAQCSoAAAAAESCCgAAAEAkqAAAAABEggoAAABAJKgAAAAARIIKAAAAQCSoAAAAAESCCgAAAEAkqAAAAABEggoAAABAJKgAAAAARIIKAAAAQCSoAAAAAESCCgAAAEAkqAAAAABEggoAAABAJKgAAAAARIIKAAAAQCSoAAAAAESCCgAAAEAkqAAAAABEggoAAABAJKgAAAAARIIKAAAAQCSoAAAAAESCCgAAAEAkqAAAAABEggoAAABAJKgAAAAARIIKAAAAQCSoAAAAAESCCgAAAEAkqAAAAABEggoAAABAJKgAAAAARIIKAAAAQCSoAAAAAESCCgAAAEAkqAAAAABEggoAAABAJKgAAAAARIIKAAAAQCSoAAAAAESCCgAAAEAkqAAAAABEggoAAABAJKgAAAAARIIKAAAAQCSoAAAAAESCCgAAAEAkqAAAAABEF/e3x6c6BAAAALBlXqgAAAAARIIKAAAAQCSoAAAAAESCCgAAAEAkqAAAAABEggoAAABAJKgAAAAARIIKAAAAQCSoAAAAAESCCgAAAEAkqAAAAABEggoAAABAJKgAAAAARIIKAAAAQCSoAAAAAESCCgAAAEAkqAAAAABEggoAAABAJKgAAAAARIIKAAAAQCSoAAAAAESCCgAAAEAkqAAAAABEggoAAABAJKgAAAAARIIKAAAAQCSoAAAAAEQX9293T7slOBz7zOnmZ9yEn723v9nd/OxuuexuuexuuexuuexuuexuuexuuezuG16oAAAAAESCCgAAAEAkqAAAAABEggoAAABAJKgAAAAARIIKAAAAQCSoAAAAAESCCgAAAEAkqAAAAABEggoAAABAJKgAAAAARIIKAAAAQCSoAAAAAESCCgAAAEAkqAAAAABEggoAAABAJKgAAAAARIIKAAAAQCSoAAAAAESCCgAAAEAkqAAAAABEggoAAABAJKgAAAAARIIKAAAAQCSoAAAAAESCCgAAAEAkqAAAAABEggoAAABAJKgAAAAARIIKAAAAQCSoAAAAAESCCgAAAEAkqAAAAABEggoAAABAJKgAAAAARIIKAAAAQCSoAAAAAESCCgAAAEAkqAAAAABEggoAAABAJKgAAAAARIIKAAAAQCSoAAAAAESCCgAAAEAkqAAAAABEggoAAABAJKgAAAAARIIKAAAAQCSoAAAAAESCCgAAAEAkqAAAAABEggoAAABAJKgAAAAARIIKAAAAQCSoAAAAAEQX97fHpzoEAAAAsGVeqAAAAABEggoAAABAJKgAAAAARIIKAAAAQCSoAAAAAESCCgAAAEAkqAAAAABEggoAAABAJKgAAAAARIIKAAAAQCSoAAAAAESCCgAAAEAkqAAAAABEggoAAABAJKgAAAAARIIKAAAAQCSoAAAAAESCCgAAAEAkqAAAAABEggoAAABAJKgAAAAARIIKAAAAQCSoAAAAAESCCgAAAEAkqAAAAABEggoAAABAdHH/dvdUh1bvcBybO92c+ybbZQfbY+fzs4PtsfP52cH22Pn87GBb7Hu5ezg9/x14oQIAAAAQCSoAAAAAkaACAAAAEAkqAAAAAJGgAgAAABAJKgAAAACRoAIAAAAQCSoAAAAAkaACAAAAEAkqAAAAAJGgAgAAABAJKgAAAACRoAIAAAAQCSoAAAAAkaACAAAAEAkqAAAAAJGgAgAAABAJKgAAAACRoAIAAAAQCSoAAAAAkaACAAAAEAkqAAAAAJGgAgAAABAJKgAAAACRoAIAAAAQCSoAAAAAkaACAAAAEAkqAAAAAJGgAgAAABAJKgAAAACRoAIAAAAQCSoAAAAAkaACAAAAEAkqAAAAAJGgAgAAABAJKgAAAACRoAIAAAAQCSoAAAAAkaACAAAAEAkqAAAAAJGgAgAAABAJKgAAAACRoAIAAAAQCSoAAAAAkaACAAAAEAkqAAAAAJGgAgAAABAJKgAAAACRoAIAAAAQCSoAAAAAkaACAAAAEAkqAAAAAJGgAgAAABAJKgAAAACRoAIAAAAQ7esA8OPefZj7Bs/Qh5u5b4AdbI+dz88OtsfO57fiHdy/nfsGsC1eqAAAAABEggoAAABAJKgAAAAARIIKAAAAQCSoAAAAAESCCgAAAEAkqAAAAABEggoAAABAJKgAAAAARIIKAAAAQCSoAAAAAESCCgAAAEAkqAAAAABEggoAAABAJKgAAAAARIIKAAAAQCSoAAAAAESCCgAAAEAkqAAAAABEggoAAABAJKgAAAAARIIKAAAAQCSoAAAAAESCCgAAAEAkqAAAAABEggoAAABAJKgAAAAARIIKAAAAQCSoAAAAAESCCgAAAEAkqAAAAABEggoAAABAJKgAAAAARIIKAAAAQCSoAAAAAESCCgAAAEAkqAAAAABEggoAAABAJKgAAAAARIIKAAAAQCSoAAAAAESCCgAAAEAkqAAAAABEggoAAABAJKgAAAAARIIKAAAAQCSoAAAAAESCCgAAAEAkqAAAAABEggoAAABAJKgAAAAARIIKAAAAQCSoAAAAAESCCgAAAEB0cX97fKpDwI9599vN3FcAAGBl7m+Pc18BNsULFQAAAIBIUAEAAACIBBUAAACASFABAAAAiAQVAAAAgEhQAQAAAIgEFQAAAIBIUAEAAACIBBUAAACASFABAAAAiAQVAAAAgEhQAQAAAIgEFQAAAIBIUAEAAACIBBUAAACASFABAAAAiAQVAAAAgEhQAQAAAIgEFQAAAIBIUAEAAACIBBUAAACASFABAAAAiAQVAAAAgEhQAQAAAIgEFQAAAIBIUAEAAACIBBUAAACAaL873ewW4XDsM0v5bGs2sre/2R0AAKzzb2j/R1guu/uGFyoAAAAAkaACAAAAEAkqAAAAAJGgAgAAABAJKgAAAACRoAIAAAAQCSoAAAAAkaACAAAAEAkqAAAAAJGgAgAAABAJKgAAAACRoAIAAAAQCSoAAAAAkaACAAAAEAkqAAAAAJGgAgAAABAJKgAAAACRoAIAAAAQCSoAAAAAkaACAAAAEAkqAAAAAJGgAgAAABAJKgAAAACRoAIAAAAQCSoAAAAAkaACAAAAEAkqAAAAAJGgAgAAABAJKgAAAACRoAIAAAAQCSoAAAAAkaACAAAAEAkqAAAAAJGgAgAAABAJKgAAAACRoAIAAAAQCSoAAAAAkaACAAAAEAkqAAAAAJGgAgAAABAJKgAAAACRoAIAAAAQCSoAAAAAkaACAAAAEAkqAAAAAJGgAgAAABAJKgAAAACRoAIAAAAQCSoAAAAAkaACAAAAEAkqAAAAAJGgAgAAABAJKgAAAACRoAIAAAAQXdzfHp/qEPBj3v12M/cVAABYmfvb49xXgE3xQgUAAAAgElQAAAAAIkEFAAAAIBJUAAAAACJBBQAAACASVAAAAAAiQQUAAAAgElQAAAAAIkEFAAAAIBJUAAAAACJBBQAAACASVAAAAAAiQQUAAAAgElQAAAAAIkEFAAAAIBJUAAAAACJBBQAAACASVAAAAAAiQQUAAAAgElQAAAAAIkEFAAAAIBJUAAAAACJBBQAAACASVAAAAAAiQQUAAAAgElQAAAAAIkEFAAAAINrvTjd1Zv0Ox7E53+X52AEAADT+Fv4n/69Y7h5Oz38HXqgAAAAARIIKAAAAQCSoAAAAAESCCgAAAEAkqAAAAABEggoAAABAJKgAAAAARIIKAAAAQCSoAAAAAESCCgAAAEAkqAAAAABEggoAAABAJKgAAAAARIIKAAAAQCSoAAAAAESCCgAAAEAkqAAAAABEggoAAABAJKgAAAAARIIKAAAAQCSoAAAAAESCCgAAAEAkqAAAAABEggoAAABAJKgAAAAARIIKAAAAQCSoAAAAAESCCgAAAEAkqAAAAABEggoAAABAJKgAAAAARIIKAAAAQCSoAAAAAESCCgAAAEAkqAAAAABEggoAAABAJKgAAAAARIIKAAAAQCSoAAAAAESCCgAAAEAkqAAAAABEggoAAABAJKgAAAAARIIKAAAAQCSoAAAAAESCCgAAAEAkqAAAAABEggoAAABAJKgAAAAARIIKAAAAQCSoAAAAAESCCgAAAEAkqAAAAABEggoAAABAJKgAAAAARPs6AABL9PD7br0u574Ai/F1uqNe/zHdWQAwBy9UAAAAACJBBQAAACASVAAAAAAiQQUAAAAgElQAAAAAIkEFAAAAIBJUAAAAACJBBQAAACASVAAAAAAiQQUAAAAgElQAAAAAIkEFAAAAINrXAQDg37ic+Lzric/jfO4W8tv8upvMXy9fTncYPFO/fP489xWA7+CFCgAAAEAkqAAAAABEggoAAABAJKgAAAAARIIKAAAAQCSoAAAAAESCCgAAAEAkqAAAAABEggoAAABAJKgAAAAARIIKAAAAQCSoAAAAAESCCgAAAEC0rwMAsBmXc1+A1bsenDtN/JtewL+FXz5/nvsK8A9/vXw59xWAn8gLFQAAAIBIUAEAAACIBBUAAACASFABAAAAiAQVAAAAgEhQAQAAAIgEFQAAAIBIUAEAAACIBBUAAACASFABAAAAiAQVAAAAgEhQAQAAAIgEFQAAAIBoXwcAYJEuJzzrenDubnDuNDh3GJzjfO4m/j1P/dsEgBXzQgUAAAAgElQAAAAAIkEFAAAAIBJUAAAAACJBBQAAACASVAAAAAAiQQUAAAAgElQAAAAAIkEFAAAAIBJUAAAAACJBBQAAACASVAAAAAAiQQUAAAAg2u8OxzrD/8V3Ob+l7ODDzdw3AL7H9W4ZLgfnToNzh8G5Nbub+Lyl/DaBaS3lb+El8F3O7/D8d+CFCgAAAEAkqAAAAABEggoAAABAJKgAAAAARIIKAAAAQCSoAAAAAESCCgAAAEAkqAAAAABEggoAAABAJKgAAAAARIIKAAAAQCSoAAAAAESCCgAAAEC0rwMAwE9yPTh3Nzh3OfF5o59vSqOfbbfi74TF+jI49+LM9wBYKy9UAAAAACJBBQAAACASVAAAAAAiQQUAAAAgElQAAAAAIkEFAAAAIBJUAAAAACJBBQAAACASVAAAAAAiQQUAAAAgElQAAAAAIkEFAAAAIBJUAAAAAKL97nSzW4TDsc8s5bOt2cje/mZ3AN/venDuNDh3OTh3N+FnGznrR4zeE77Tl4GZ/dXV2FmPj0NzL4amOKul/A3t/wjLZXff8EIFAAAAIBJUAAAAACJBBQAAACASVAAAAAAiQQUAAAAgElQAAAAAIkEFAAAAIBJUAAAAACJBBQAAACASVAAAAAAiQQUAAAAgElQAAAAAIkEFAAAAINrXAQBgJQ6Dc6cz3+O5nPUj3wl8py+Dc/urqzPf5PxnfXl8HJp7MTQFMD8vVAAAAAAiQQUAAAAgElQAAAAAIkEFAAAAIBJUAAAAACJBBQAAACASVAAAAAAiQQUAAAAgElQAAAAAIkEFAAAAIBJUAAAAACJBBQAAACDa1wEAAGDMi8G5L4+PeWZ/dTV01r8GzvqRzwawVF6oAAAAAESCCgAAAEAkqAAAAABEggoAAABAJKgAAAAARIIKAAAAQCSoAAAAAESCCgAAAEAkqAAAAABEggoAAABAJKgAAAAARIIKAAAAQCSoAAAAAET7OgAAbNzlhGddD87dTTw3ek/4Ti8GZr48Pk52FsAWeaECAAAAEAkqAAAAAJGgAgAAABAJKgAAAACRoAIAAAAQCSoAAAAAkaACAAAAEAkqAAAAAJGgAgAAABAJKgAAAACRoAIAAAAQCSoAAAAAkaACAAAAEO13h+Nutdb82dZu7bv7cDP3DQB2u7uJz7verdfod7nm74TZvZj7Akxv7X9Dr/3zrdlhnbvzQgUAAAAgElQAAAAAIkEFAAAAIBJUAAAAACJBBQAAACASVAAAAAAiQQUAAAAgElQAAAAAIkEFAAAAIBJUAAAAACJBBQAAACASVAAAAAAiQQUAAAAg2tcBANiMu8G568G50+Dc5W5ao59vSkvZwdS/MQDgbLxQAQAAAIgEFQAAAIBIUAEAAACIBBUAAACASFABAAAAiAQVAAAAgEhQAQAAAIgEFQAAAIBIUAEAAACIBBUAAACASFABAAAAiAQVAAAAgEhQAQAAAIj2u9NNnVm/w3Fsznd5PnYALNlptwzXc1/gGTpMvPPLwbm7wTlg3fwt/E/+X7HcPZye/w68UAEAAACIBBUAAACASFABAAAAiAQVAAAAgEhQAQAAAIgEFQAAAIBIUAEAAACIBBUAAACASFABAAAAiAQVAAAAgEhQAQAAAIgEFQAAAIBIUAEAAACI9nUAABbp68DM5eBZo3Ojric+j386DM6dFvIbG/n3AwAr54UKAAAAQCSoAAAAAESCCgAAAEAkqAAAAABEggoAAABAJKgAAAAARIIKAAAAQCSoAAAAAESCCgAAAEAkqAAAAABEggoAAABAJKgAAAAARIIKAAAAQLSvAwCwGV8H5y7PfA/W63Ihv+kF+Ovly7mvAMDGeKECAAAAEAkqAAAAAJGgAgAAABAJKgAAAACRoAIAAAAQCSoAAAAAkaACAAAAEAkqAAAAAJGgAgAAABAJKgAAAACRoAIAAAAQCSoAAAAAkaACAAAAEO3rAADwb3wdnLscnLsbnGN7v7EF+OXz57mvAADfxQsVAAAAgEhQAQAAAIgEFQAAAIBIUAEAAACIBBUAAACASFABAAAAiAQVAAAAgEhQAQAAAIgEFQAAAIBIUAEAAACIBBUAAACASFABAAAAiPZ1ANiG1x+vhuYe3jye/S5MY+07f/3H3DeAbfky9wVgg97PfQHYGC9UAAAAACJBBQAAACASVAAAAAAiQQUAAAAgElQAAAAAIkEFAAAAIBJUAAAAACJBBQAAACASVAAAAAAiQQUAAAAgElQAAAAAIkEFAAAAIBJUAAAAAKJ9HQD4/7z+eDU09/Dm8ex32arRHQAAAN/PCxUAAACASFABAAAAiAQVAAAAgEhQAQAAAIgEFQAAAIBIUAEAAACIBBUAAACASFABAAAAiAQVAAAAgEhQAQAAAIgEFQAAAIBIUAEAAACIBBUAAACAaF8HgG14ePM4NPf649Wkc8y/c4Dn4NPNxAdeT3we8zv1kVd//IyLAM+FFyoAAAAAkaACAAAAEAkqAAAAAJGgAgAAABAJKgAAAACRoAIAAAAQCSoAAAAAkaACAAAAEAkqAAAAAJGgAgAAABAJKgAAAACRoAIAAAAQCSoAAAAA0b4OAADAs3M9OHc3OHcanDsMznE+ozu/PPM9gMXzQgUAAAAgElQAAAAAIkEFAAAAIBJUAAAAACJBBQAAACASVAAAAAAiQQUAAAAgElQAAAAAIkEFAAAAIBJUAAAAACJBBQAAACASVAAAAAAiQQUAAAAguri/PT7VIeDHvPvtZvfcvf54Nel5D28eJz1vzZ9vzZ8NWI4vE5/36c/BwbvdtL4Ozh3OfI81mHp3133k1a+7Sb2/PU57IGycFyoAAAAAkaACAAAAEAkqAAAAAJGgAgAAABAJKgAAAACRoAIAAAAQCSoAAAAAkaACAAAAEAkqAAAAAJGgAgAAABAJKgAAAACRoAIAAAAQCSoAAAAA0b4OAMvz+uPV3FdgxUZ/Xw9vHs9+F4DsenDubnDucsLzRj/b1Ea/y1FL+V6AZ88LFQAAAIBIUAEAAACIBBUAAACASFABAAAAiAQVAAAAgEhQAQAAAIgEFQAAAIBIUAEAAACIBBUAAACASFABAAAAiAQVAAAAgEhQAQAAAIgEFQAAAIDo4v7t7mm3BIdjnznd/Iyb8LP3toHdvfswNvf649W5rwKL8/Dmce4rAN/hy8TnffpztwynwbnL3XSuB+fudtMaveeEXv067Xnv3+6Wwf8RlsvuvuGFCgAAAEAkqAAAAABEggoAAABAJKgAAAAARIIKAAAAQCSoAAAAAESCCgAAAEAkqAAAAABEggoAAABAJKgAAAAARIIKAAAAQCSoAAAAAET7OgD8uNcfr+a+Amzu38/Dm8ez3wUgOwzOnfrIqz8GzzqOjX36feLvBGBmXqgAAAAARIIKAAAAQCSoAAAAAESCCgAAAEAkqAAAAABEggoAAABAJKgAAAAARIIKAAAAQCSoAAAAAESCCgAAAEAkqAAAAABEggoAAABAJKgAAAAARIIKAAAAQCSoAAAAAESCCgAAAEAkqAAAAABEggoAAABAJKgAAAAARIIKAAAAQCSoAAAAAESCCgAAAEAkqAAAAABEggoAAABAJKgAAAAARIIKAAAAQCSoAAAAAET7OgAAAEzsso98uhk863pw7m7iudF7ApyJFyoAAAAAkaACAAAAEAkqAAAAAJGgAgAAABAJKgAAAACRoAIAAAAQCSoAAAAAkaACAAAAEAkqAAAAAJGgAgAAABAJKgAAAACRoAIAAAAQCSoAAAAA0cX97fGpDgE/5r//83/mvgJszsObx7mvAJvyZeLzPv25W4a7Cc+63q33sy3ke3n1625S72+P0x4IG+eFCgAAAEAkqAAAAABEggoAAABAJKgAAAAARIIKAAAAQCSoAAAAAESCCgAAAEAkqAAAAABEggoAAABAJKgAAAAARIIKAAAAQCSoAAAAAESCCgAAAEC0rwMAALAap8G5y920rnfP3/VCdnC34h0Ak/JCBQAAACASVAAAAAAiQQUAAAAgElQAAAAAIkEFAAAAIBJUAAAAACJBBQAAACASVAAAAAAiQQUAAAAgElQAAAAAIkEFAAAAIBJUAAAAACJBBQAAACC6uH+7e6pDq3c4js2dbs59k+1a+Q7efZj2vNcfr6Y9EL7Dw5vHua8A/ERfJj7v0+8TH3g5OHd95nts2Wni3Q14Nfgn7aj3b6c9bxFW/v+KVe/h9Px34IUKAAAAQCSoAAAAAESCCgAAAEAkqAAAAABEggoAAABAJKgAAAAARIIKAAAAQCSoAAAAAESCCgAAAEAkqAAAAABEggoAAABAJKgAAAAARIIKAAAAQLSvA8DyPLx5nOys1x+vnv0d184OgE26nPi864nP458Og3OnhfzGgGfPCxUAAACASFABAAAAiAQVAAAAgEhQAQAAAIgEFQAAAIBIUAEAAACIBBUAAACASFABAAAAiAQVAAAAgEhQAQAAAIgEFQAAAIBIUAEAAACI9nUAAACem1fHiQ+c+jwAnh0vVAAAAAAiQQUAAAAgElQAAAAAIkEFAAAAIBJUAAAAACJBBQAAACASVAAAAAAiQQUAAAAgElQAAAAAIkEFAAAAIBJUAAAAACJBBQAAACASVAAAAAAiQQUAAAAgElQAAAAAIkEFAAAAIBJUAAAAACJBBQAAACASVAAAAAAiQQUAAAAgElQAAAAAIkEFAAAAIBJUAAAAACJBBQAAACASVAAAAAAiQQUAAAAgElQAAAAAon0dAH7c/dvdev3X49jc7XFs7nQzNrdmdsD3Otj57Fa8g/dzX+C5WvHOF8MOgDPxQgUAAAAgElQAAAAAIkEFAAAAIBJUAAAAACJBBQAAACASVAAAAAAiQQUAAAAgElQAAAAAIkEFAAAAIBJUAAAAACJBBQAAACASVAAAAAAiQQUAAAAgElQAAAAAIkEFAAAAIBJUAAAAACJBBQAAACASVAAAAAAiQQUAAAAgElQAAAAAIkEFAAAAIBJUAAAAACJBBQAAACASVAAAAAAiQQUAAAAgElQAAAAAIkEFAAAAIBJUAAAAACJBBQAAACASVAAAAAAiQQUAAAAgElQAAAAAIkEFAAAAIBJUAAAAACJBBQAAACASVAAAAAAiQQUAAAAgElQAAAAAIkEFAAAAIBJUAAAAACJBBQAAACASVAAAAAAiQQUAAAAgElQAAAAAIkEFAAAAIBJUAAAAACJBBQAAACASVAAAAAAiQQUAAAAgElQAAAAAIkEFAAAAIBJUAAAAACJBBQAAACASVAAAAAAiQQUAAAAguri/PT7VIQAAAIAt80IFAAAAIBJUAAAAACJBBQAAACASVAAAAAAiQQUAAAAgElQAAAAAIkEFAAAAIBJUAAAAACJBBQAAACASVAAAAAAiQQUAAAAgElQAAAAAIkEFAAAAIBJUAAAAACJBBQAAACASVAAAAAAiQQUAAAAgElQAAAAAIkEFAAAAIBJUAAAAACJBBQAAACASVAAAAAAiQQUAAAAgElQAAAAAIkEFAAAAIBJUAAAAAKKL+7e7p90SHI595nTzM27Cz97b3+xufna3XHa3XHa3XHa3XHa3XHa3XHa3XHb3DS9UAAAAACJBBQAAACASVAAAAAAiQQUAAAAgElQAAAAAIkEFAAAAIBJUAAAAACJBBQAAACASVAAAAAAiQQUAAAAgElQAAAAAIkEFAAAAIBJUAAAAACJBBQAAACASVAAAAAAiQQUAAAAgElQAAAAAIkEFAAAAIBJUAAAAACJBBQAAACASVAAAAAAiQQUAAAAgElQAAAAAIkEFAAAAIBJUAAAAACJBBQAAACASVAAAAAAiQQUAAAAgElQAAAAAIkEFAAAAIBJUAAAAACJBBQAAACASVAAAAAAiQQUAAAAgElQAAAAAIkEFAAAAIBJUAAAAACJBBQAAACASVAAAAAAiQQUAAAAgElQAAAAAIkEFAAAAIBJUAAAAACJBBQAAACASVAAAAAAiQQUAAAAgElQAAAAAIkEFAAAAIBJUAAAAACJBBQAAACASVAAAAAAiQQUAAAAgElQAAAAAIkEFAAAAIBJUAAAAAKKL+9vjUx0CAAAA2DIvVAAAAAAiQQUAAAAgElQAAAAAIkEFAAAAIBJUAAAAACJBBQAAACASVAAAAAAiQQUAAAAgElQAAAAAIkEFAAAAIBJUAAAAACJBBQAAACASVAAAAAAiQQUAAAAgElQAAAAAIkEFAAAAIBJUAAAAACJBBQAAACASVAAAAAAiQQUAAAAgElQAAAAAIkEFAAAAIBJUAAAAACJBBQAAACASVAAAAAAiQQUAAAAgElQAAAAAoov7t7unOrR6h+PY3Onm3DfZLjvYHjufnx1sj53Pzw62x87nZwfbYt/L3cPp+e/ACxUAAACASFABAAAAiAQVAAAAgEhQAQAAAIgEFQAAAIBIUAEAAACIBBUAAACASFABAAAAiAQVAAAAgEhQAQAAAIgEFQAAAIBIUAEAAACIBBUAAACASFABAAAAiAQVAAAAgEhQAQAAAIgEFQAAAIBIUAEAAACIBBUAAACASFABAAAAiAQVAAAAgEhQAQAAAIgEFQAAAIBIUAEAAACIBBUAAACASFABAAAAiAQVAAAAgEhQAQAAAIgEFQAAAIBIUAEAAACIBBUAAACASFABAAAAiAQVAAAAgEhQAQAAAIgEFQAAAIBIUAEAAACIBBUAAACASFABAAAAiAQVAAAAgEhQAQAAAIgEFQAAAIBIUAEAAACIBBUAAACASFABAAAAiAQVAAAAgEhQAQAAAIgEFQAAAIBIUAEAAACIBBUAAACASFABAAAAiAQVAAAAgEhQAQAAAIgEFQAAAIBIUAEAAADYNf8LRHmgbIU/sWoAAAAASUVORK5CYII=;clipPath=inset(0% 0% 0% 0% round 49%);" vertex="1" parent="1">
          <mxGeometry x="2850" y="1650" width="500" height="500" as="geometry" />
        </mxCell>
        <mxCell id="jAts5uLWIWUShjtWvATc-10" value="" style="shape=image;verticalLabelPosition=bottom;labelBackgroundColor=default;verticalAlign=top;aspect=fixed;imageAspect=0;image=data:image/png,iVBORw0KGgoAAAANSUhEUgAABFQAAARUCAYAAABY/UdQAAAAOnRFWHRTb2Z0d2FyZQBNYXRwbG90bGliIHZlcnNpb24zLjEwLjEsIGh0dHBzOi8vbWF0cGxvdGxpYi5vcmcvc2/+5QAAAAlwSFlzAAAuIwAALiMBeKU/dgAAIjBJREFUeJzt2jFuVFmbgOHyqDJHTQCSd0A2EVGzB+S80u7cE80eRpW308otrwE6YgPegSUI6IjslzzqELVmft5Dca/vvc+Tfzqn6isk8+pc3L/dPe341uE4Nne6OfdNtssOtsfO52cH22Pn87OD7bHz+dnBttj3cvdwev47+I+5LwAAAACwNIIKAAAAQCSoAAAAAESCCgAAAEAkqAAAAABEggoAAABAJKgAAAAARIIKAAAAQCSoAAAAAESCCgAAAEAkqAAAAABEggoAAABAJKgAAAAARIIKAAAAQCSoAAAAAESCCgAAAEAkqAAAAABEggoAAABAJKgAAAAARIIKAAAAQCSoAAAAAESCCgAAAEAkqAAAAABEggoAAABAJKgAAAAARIIKAAAAQCSoAAAAAESCCgAAAEAkqAAAAABEggoAAABAJKgAAAAARIIKAAAAQCSoAAAAAESCCgAAAEAkqAAAAABEggoAAABAJKgAAAAARIIKAAAAQCSoAAAAAESCCgAAAEAkqAAAAABEggoAAABAJKgAAAAARIIKAAAAQCSoAAAAAESCCgAAAEAkqAAAAABEggoAAABAJKgAAAAARIIKAAAAQCSoAAAAAESCCgAAAEAkqAAAAABEF/e3x6c6BAAAALBlXqgAAAAARIIKAAAAQCSoAAAAAESCCgAAAEAkqAAAAABEggoAAABAJKgAAAAARIIKAAAAQCSoAAAAAESCCgAAAEAkqAAAAABEggoAAABAJKgAAAAARIIKAAAAQCSoAAAAAESCCgAAAEAkqAAAAABEggoAAABAJKgAAAAARIIKAAAAQCSoAAAAAESCCgAAAEAkqAAAAABEggoAAABAJKgAAAAARIIKAAAAQCSoAAAAAEQX9293T7slOBz7zOnmZ9yEn723v9nd/OxuuexuuexuuexuuexuuexuuexuuezuG16oAAAAAESCCgAAAEAkqAAAAABEggoAAABAJKgAAAAARIIKAAAAQCSoAAAAAESCCgAAAEAkqAAAAABEggoAAABAJKgAAAAARIIKAAAAQCSoAAAAAESCCgAAAEAkqAAAAABEggoAAABAJKgAAAAARIIKAAAAQCSoAAAAAESCCgAAAEAkqAAAAABEggoAAABAJKgAAAAARIIKAAAAQCSoAAAAAESCCgAAAEAkqAAAAABEggoAAABAJKgAAAAARIIKAAAAQCSoAAAAAESCCgAAAEAkqAAAAABEggoAAABAJKgAAAAARIIKAAAAQCSoAAAAAESCCgAAAEAkqAAAAABEggoAAABAJKgAAAAARIIKAAAAQCSoAAAAAESCCgAAAEAkqAAAAABEggoAAABAJKgAAAAARIIKAAAAQCSoAAAAAESCCgAAAEAkqAAAAABEggoAAABAJKgAAAAARIIKAAAAQCSoAAAAAEQX97fHpzoEAAAAsGVeqAAAAABEggoAAABAJKgAAAAARIIKAAAAQCSoAAAAAESCCgAAAEAkqAAAAABEggoAAABAJKgAAAAARIIKAAAAQCSoAAAAAESCCgAAAEAkqAAAAABEggoAAABAJKgAAAAARIIKAAAAQCSoAAAAAESCCgAAAEAkqAAAAABEggoAAABAJKgAAAAARIIKAAAAQCSoAAAAAESCCgAAAEAkqAAAAABEggoAAABAdHH/dvdUh1bvcBybO92c+ybbZQfbY+fzs4PtsfP52cH22Pn87GBb7Hu5ezg9/x14oQIAAAAQCSoAAAAAkaACAAAAEAkqAAAAAJGgAgAAABAJKgAAAACRoAIAAAAQCSoAAAAAkaACAAAAEAkqAAAAAJGgAgAAABAJKgAAAACRoAIAAAAQCSoAAAAAkaACAAAAEAkqAAAAAJGgAgAAABAJKgAAAACRoAIAAAAQCSoAAAAAkaACAAAAEAkqAAAAAJGgAgAAABAJKgAAAACRoAIAAAAQCSoAAAAAkaACAAAAEAkqAAAAAJGgAgAAABAJKgAAAACRoAIAAAAQCSoAAAAAkaACAAAAEAkqAAAAAJGgAgAAABAJKgAAAACRoAIAAAAQCSoAAAAAkaACAAAAEAkqAAAAAJGgAgAAABAJKgAAAACRoAIAAAAQCSoAAAAAkaACAAAAEAkqAAAAAJGgAgAAABAJKgAAAACRoAIAAAAQCSoAAAAAkaACAAAAEAkqAAAAAJGgAgAAABAJKgAAAACRoAIAAAAQ7esA8OPefZj7Bs/Qh5u5b4AdbI+dz88OtsfO57fiHdy/nfsGsC1eqAAAAABEggoAAABAJKgAAAAARIIKAAAAQCSoAAAAAESCCgAAAEAkqAAAAABEggoAAABAJKgAAAAARIIKAAAAQCSoAAAAAESCCgAAAEAkqAAAAABEggoAAABAJKgAAAAARIIKAAAAQCSoAAAAAESCCgAAAEAkqAAAAABEggoAAABAJKgAAAAARIIKAAAAQCSoAAAAAESCCgAAAEAkqAAAAABEggoAAABAJKgAAAAARIIKAAAAQCSoAAAAAESCCgAAAEAkqAAAAABEggoAAABAJKgAAAAARIIKAAAAQCSoAAAAAESCCgAAAEAkqAAAAABEggoAAABAJKgAAAAARIIKAAAAQCSoAAAAAESCCgAAAEAkqAAAAABEggoAAABAJKgAAAAARIIKAAAAQCSoAAAAAESCCgAAAEAkqAAAAABEggoAAABAJKgAAAAARIIKAAAAQCSoAAAAAESCCgAAAEB0cX97fKpDwI9599vN3FcAAGBl7m+Pc18BNsULFQAAAIBIUAEAAACIBBUAAACASFABAAAAiAQVAAAAgEhQAQAAAIgEFQAAAIBIUAEAAACIBBUAAACASFABAAAAiAQVAAAAgEhQAQAAAIgEFQAAAIBIUAEAAACIBBUAAACASFABAAAAiAQVAAAAgEhQAQAAAIgEFQAAAIBIUAEAAACIBBUAAACASFABAAAAiAQVAAAAgEhQAQAAAIgEFQAAAIBIUAEAAACIBBUAAACAaL873ewW4XDsM0v5bGs2sre/2R0AAKzzb2j/R1guu/uGFyoAAAAAkaACAAAAEAkqAAAAAJGgAgAAABAJKgAAAACRoAIAAAAQCSoAAAAAkaACAAAAEAkqAAAAAJGgAgAAABAJKgAAAACRoAIAAAAQCSoAAAAAkaACAAAAEAkqAAAAAJGgAgAAABAJKgAAAACRoAIAAAAQCSoAAAAAkaACAAAAEAkqAAAAAJGgAgAAABAJKgAAAACRoAIAAAAQCSoAAAAAkaACAAAAEAkqAAAAAJGgAgAAABAJKgAAAACRoAIAAAAQCSoAAAAAkaACAAAAEAkqAAAAAJGgAgAAABAJKgAAAACRoAIAAAAQCSoAAAAAkaACAAAAEAkqAAAAAJGgAgAAABAJKgAAAACRoAIAAAAQCSoAAAAAkaACAAAAEAkqAAAAAJGgAgAAABAJKgAAAACRoAIAAAAQCSoAAAAAkaACAAAAEAkqAAAAAJGgAgAAABAJKgAAAACRoAIAAAAQXdzfHp/qEPBj3v12M/cVAABYmfvb49xXgE3xQgUAAAAgElQAAAAAIkEFAAAAIBJUAAAAACJBBQAAACASVAAAAAAiQQUAAAAgElQAAAAAIkEFAAAAIBJUAAAAACJBBQAAACASVAAAAAAiQQUAAAAgElQAAAAAIkEFAAAAIBJUAAAAACJBBQAAACASVAAAAAAiQQUAAAAgElQAAAAAIkEFAAAAIBJUAAAAACJBBQAAACASVAAAAAAiQQUAAAAgElQAAAAAIkEFAAAAINrvTjd1Zv0Ox7E53+X52AEAADT+Fv4n/69Y7h5Oz38HXqgAAAAARIIKAAAAQCSoAAAAAESCCgAAAEAkqAAAAABEggoAAABAJKgAAAAARIIKAAAAQCSoAAAAAESCCgAAAEAkqAAAAABEggoAAABAJKgAAAAARIIKAAAAQCSoAAAAAESCCgAAAEAkqAAAAABEggoAAABAJKgAAAAARIIKAAAAQCSoAAAAAESCCgAAAEAkqAAAAABEggoAAABAJKgAAAAARIIKAAAAQCSoAAAAAESCCgAAAEAkqAAAAABEggoAAABAJKgAAAAARIIKAAAAQCSoAAAAAESCCgAAAEAkqAAAAABEggoAAABAJKgAAAAARIIKAAAAQCSoAAAAAESCCgAAAEAkqAAAAABEggoAAABAJKgAAAAARIIKAAAAQCSoAAAAAESCCgAAAEAkqAAAAABEggoAAABAJKgAAAAARIIKAAAAQCSoAAAAAESCCgAAAEAkqAAAAABEggoAAABAJKgAAAAARPs6AABL9PD7br0u574Ai/F1uqNe/zHdWQAwBy9UAAAAACJBBQAAACASVAAAAAAiQQUAAAAgElQAAAAAIkEFAAAAIBJUAAAAACJBBQAAACASVAAAAAAiQQUAAAAgElQAAAAAIkEFAAAAINrXAQDg37ic+Lzric/jfO4W8tv8upvMXy9fTncYPFO/fP489xWA7+CFCgAAAEAkqAAAAABEggoAAABAJKgAAAAARIIKAAAAQCSoAAAAAESCCgAAAEAkqAAAAABEggoAAABAJKgAAAAARIIKAAAAQCSoAAAAAESCCgAAAEC0rwMAsBmXc1+A1bsenDtN/JtewL+FXz5/nvsK8A9/vXw59xWAn8gLFQAAAIBIUAEAAACIBBUAAACASFABAAAAiAQVAAAAgEhQAQAAAIgEFQAAAIBIUAEAAACIBBUAAACASFABAAAAiAQVAAAAgEhQAQAAAIgEFQAAAIBoXwcAYJEuJzzrenDubnDuNDh3GJzjfO4m/j1P/dsEgBXzQgUAAAAgElQAAAAAIkEFAAAAIBJUAAAAACJBBQAAACASVAAAAAAiQQUAAAAgElQAAAAAIkEFAAAAIBJUAAAAACJBBQAAACASVAAAAAAiQQUAAAAg2u8OxzrD/8V3Ob+l7ODDzdw3AL7H9W4ZLgfnToNzh8G5Nbub+Lyl/DaBaS3lb+El8F3O7/D8d+CFCgAAAEAkqAAAAABEggoAAABAJKgAAAAARIIKAAAAQCSoAAAAAESCCgAAAEAkqAAAAABEggoAAABAJKgAAAAARIIKAAAAQCSoAAAAAESCCgAAAEC0rwMAwE9yPTh3Nzh3OfF5o59vSqOfbbfi74TF+jI49+LM9wBYKy9UAAAAACJBBQAAACASVAAAAAAiQQUAAAAgElQAAAAAIkEFAAAAIBJUAAAAACJBBQAAACASVAAAAAAiQQUAAAAgElQAAAAAIkEFAAAAIBJUAAAAAKL97nSzW4TDsc8s5bOt2cje/mZ3AN/venDuNDh3OTh3N+FnGznrR4zeE77Tl4GZ/dXV2FmPj0NzL4amOKul/A3t/wjLZXff8EIFAAAAIBJUAAAAACJBBQAAACASVAAAAAAiQQUAAAAgElQAAAAAIkEFAAAAIBJUAAAAACJBBQAAACASVAAAAAAiQQUAAAAgElQAAAAAIkEFAAAAINrXAQBgJQ6Dc6cz3+O5nPUj3wl8py+Dc/urqzPf5PxnfXl8HJp7MTQFMD8vVAAAAAAiQQUAAAAgElQAAAAAIkEFAAAAIBJUAAAAACJBBQAAACASVAAAAAAiQQUAAAAgElQAAAAAIkEFAAAAIBJUAAAAACJBBQAAACDa1wEAAGDMi8G5L4+PeWZ/dTV01r8GzvqRzwawVF6oAAAAAESCCgAAAEAkqAAAAABEggoAAABAJKgAAAAARIIKAAAAQCSoAAAAAESCCgAAAEAkqAAAAABEggoAAABAJKgAAAAARIIKAAAAQCSoAAAAAET7OgAAbNzlhGddD87dTTw3ek/4Ti8GZr48Pk52FsAWeaECAAAAEAkqAAAAAJGgAgAAABAJKgAAAACRoAIAAAAQCSoAAAAAkaACAAAAEAkqAAAAAJGgAgAAABAJKgAAAACRoAIAAAAQCSoAAAAAkaACAAAAEO13h+Nutdb82dZu7bv7cDP3DQB2u7uJz7verdfod7nm74TZvZj7Akxv7X9Dr/3zrdlhnbvzQgUAAAAgElQAAAAAIkEFAAAAIBJUAAAAACJBBQAAACASVAAAAAAiQQUAAAAgElQAAAAAIkEFAAAAIBJUAAAAACJBBQAAACASVAAAAAAiQQUAAAAg2tcBANiMu8G568G50+Dc5W5ao59vSkvZwdS/MQDgbLxQAQAAAIgEFQAAAIBIUAEAAACIBBUAAACASFABAAAAiAQVAAAAgEhQAQAAAIgEFQAAAIBIUAEAAACIBBUAAACASFABAAAAiAQVAAAAgEhQAQAAAIj2u9NNnVm/w3Fsznd5PnYALNlptwzXc1/gGTpMvPPLwbm7wTlg3fwt/E/+X7HcPZye/w68UAEAAACIBBUAAACASFABAAAAiAQVAAAAgEhQAQAAAIgEFQAAAIBIUAEAAACIBBUAAACASFABAAAAiAQVAAAAgEhQAQAAAIgEFQAAAIBIUAEAAACI9nUAABbp68DM5eBZo3Ojric+j386DM6dFvIbG/n3AwAr54UKAAAAQCSoAAAAAESCCgAAAEAkqAAAAABEggoAAABAJKgAAAAARIIKAAAAQCSoAAAAAESCCgAAAEAkqAAAAABEggoAAABAJKgAAAAARIIKAAAAQLSvAwCwGV8H5y7PfA/W63Ihv+kF+Ovly7mvAMDGeKECAAAAEAkqAAAAAJGgAgAAABAJKgAAAACRoAIAAAAQCSoAAAAAkaACAAAAEAkqAAAAAJGgAgAAABAJKgAAAACRoAIAAAAQCSoAAAAAkaACAAAAEO3rAADwb3wdnLscnLsbnGN7v7EF+OXz57mvAADfxQsVAAAAgEhQAQAAAIgEFQAAAIBIUAEAAACIBBUAAACASFABAAAAiAQVAAAAgEhQAQAAAIgEFQAAAIBIUAEAAACIBBUAAACASFABAAAAiPZ1ANiG1x+vhuYe3jye/S5MY+07f/3H3DeAbfky9wVgg97PfQHYGC9UAAAAACJBBQAAACASVAAAAAAiQQUAAAAgElQAAAAAIkEFAAAAIBJUAAAAACJBBQAAACASVAAAAAAiQQUAAAAgElQAAAAAIkEFAAAAIBJUAAAAAKJ9HQD4/7z+eDU09/Dm8ex32arRHQAAAN/PCxUAAACASFABAAAAiAQVAAAAgEhQAQAAAIgEFQAAAIBIUAEAAACIBBUAAACASFABAAAAiAQVAAAAgEhQAQAAAIgEFQAAAIBIUAEAAACIBBUAAACAaF8HgG14ePM4NPf649Wkc8y/c4Dn4NPNxAdeT3we8zv1kVd//IyLAM+FFyoAAAAAkaACAAAAEAkqAAAAAJGgAgAAABAJKgAAAACRoAIAAAAQCSoAAAAAkaACAAAAEAkqAAAAAJGgAgAAABAJKgAAAACRoAIAAAAQCSoAAAAA0b4OAADAs3M9OHc3OHcanDsMznE+ozu/PPM9gMXzQgUAAAAgElQAAAAAIkEFAAAAIBJUAAAAACJBBQAAACASVAAAAAAiQQUAAAAgElQAAAAAIkEFAAAAIBJUAAAAACJBBQAAACASVAAAAAAiQQUAAAAguri/PT7VIeDHvPvtZvfcvf54Nel5D28eJz1vzZ9vzZ8NWI4vE5/36c/BwbvdtL4Ozh3OfI81mHp3133k1a+7Sb2/PU57IGycFyoAAAAAkaACAAAAEAkqAAAAAJGgAgAAABAJKgAAAACRoAIAAAAQCSoAAAAAkaACAAAAEAkqAAAAAJGgAgAAABAJKgAAAACRoAIAAAAQCSoAAAAA0b4OAMvz+uPV3FdgxUZ/Xw9vHs9+F4DsenDubnDucsLzRj/b1Ea/y1FL+V6AZ88LFQAAAIBIUAEAAACIBBUAAACASFABAAAAiAQVAAAAgEhQAQAAAIgEFQAAAIBIUAEAAACIBBUAAACASFABAAAAiAQVAAAAgEhQAQAAAIgEFQAAAIDo4v7t7mm3BIdjnznd/Iyb8LP3toHdvfswNvf649W5rwKL8/Dmce4rAN/hy8TnffpztwynwbnL3XSuB+fudtMaveeEXv067Xnv3+6Wwf8RlsvuvuGFCgAAAEAkqAAAAABEggoAAABAJKgAAAAARIIKAAAAQCSoAAAAAESCCgAAAEAkqAAAAABEggoAAABAJKgAAAAARIIKAAAAQCSoAAAAAET7OgD8uNcfr+a+Amzu38/Dm8ez3wUgOwzOnfrIqz8GzzqOjX36feLvBGBmXqgAAAAARIIKAAAAQCSoAAAAAESCCgAAAEAkqAAAAABEggoAAABAJKgAAAAARIIKAAAAQCSoAAAAAESCCgAAAEAkqAAAAABEggoAAABAJKgAAAAARIIKAAAAQCSoAAAAAESCCgAAAEAkqAAAAABEggoAAABAJKgAAAAARIIKAAAAQCSoAAAAAESCCgAAAEAkqAAAAABEggoAAABAJKgAAAAARIIKAAAAQCSoAAAAAET7OgAAAEzsso98uhk863pw7m7iudF7ApyJFyoAAAAAkaACAAAAEAkqAAAAAJGgAgAAABAJKgAAAACRoAIAAAAQCSoAAAAAkaACAAAAEAkqAAAAAJGgAgAAABAJKgAAAACRoAIAAAAQCSoAAAAA0cX97fGpDgE/5r//83/mvgJszsObx7mvAJvyZeLzPv25W4a7Cc+63q33sy3ke3n1625S72+P0x4IG+eFCgAAAEAkqAAAAABEggoAAABAJKgAAAAARIIKAAAAQCSoAAAAAESCCgAAAEAkqAAAAABEggoAAABAJKgAAAAARIIKAAAAQCSoAAAAAESCCgAAAEC0rwMAALAap8G5y920rnfP3/VCdnC34h0Ak/JCBQAAACASVAAAAAAiQQUAAAAgElQAAAAAIkEFAAAAIBJUAAAAACJBBQAAACASVAAAAAAiQQUAAAAgElQAAAAAIkEFAAAAIBJUAAAAACJBBQAAACC6uH+7e6pDq3c4js2dbs59k+1a+Q7efZj2vNcfr6Y9EL7Dw5vHua8A/ERfJj7v0+8TH3g5OHd95nts2Wni3Q14Nfgn7aj3b6c9bxFW/v+KVe/h9Px34IUKAAAAQCSoAAAAAESCCgAAAEAkqAAAAABEggoAAABAJKgAAAAARIIKAAAAQCSoAAAAAESCCgAAAEAkqAAAAABEggoAAABAJKgAAAAARIIKAAAAQLSvA8DyPLx5nOys1x+vnv0d184OgE26nPi864nP458Og3OnhfzGgGfPCxUAAACASFABAAAAiAQVAAAAgEhQAQAAAIgEFQAAAIBIUAEAAACIBBUAAACASFABAAAAiAQVAAAAgEhQAQAAAIgEFQAAAIBIUAEAAACI9nUAAACem1fHiQ+c+jwAnh0vVAAAAAAiQQUAAAAgElQAAAAAIkEFAAAAIBJUAAAAACJBBQAAACASVAAAAAAiQQUAAAAgElQAAAAAIkEFAAAAIBJUAAAAACJBBQAAACASVAAAAAAiQQUAAAAgElQAAAAAIkEFAAAAIBJUAAAAACJBBQAAACASVAAAAAAiQQUAAAAgElQAAAAAIkEFAAAAIBJUAAAAACJBBQAAACASVAAAAAAiQQUAAAAgElQAAAAAon0dAH7c/dvdev3X49jc7XFs7nQzNrdmdsD3Otj57Fa8g/dzX+C5WvHOF8MOgDPxQgUAAAAgElQAAAAAIkEFAAAAIBJUAAAAACJBBQAAACASVAAAAAAiQQUAAAAgElQAAAAAIkEFAAAAIBJUAAAAACJBBQAAACASVAAAAAAiQQUAAAAgElQAAAAAIkEFAAAAIBJUAAAAACJBBQAAACASVAAAAAAiQQUAAAAgElQAAAAAIkEFAAAAIBJUAAAAACJBBQAAACASVAAAAAAiQQUAAAAgElQAAAAAIkEFAAAAIBJUAAAAACJBBQAAACASVAAAAAAiQQUAAAAgElQAAAAAIkEFAAAAIBJUAAAAACJBBQAAACASVAAAAAAiQQUAAAAgElQAAAAAIkEFAAAAIBJUAAAAACJBBQAAACASVAAAAAAiQQUAAAAgElQAAAAAIkEFAAAAIBJUAAAAACJBBQAAACASVAAAAAAiQQUAAAAgElQAAAAAIkEFAAAAIBJUAAAAACJBBQAAACASVAAAAAAiQQUAAAAguri/PT7VIQAAAIAt80IFAAAAIBJUAAAAACJBBQAAACASVAAAAAAiQQUAAAAgElQAAAAAIkEFAAAAIBJUAAAAACJBBQAAACASVAAAAAAiQQUAAAAgElQAAAAAIkEFAAAAIBJUAAAAACJBBQAAACASVAAAAAAiQQUAAAAgElQAAAAAIkEFAAAAIBJUAAAAACJBBQAAACASVAAAAAAiQQUAAAAgElQAAAAAIkEFAAAAIBJUAAAAAKKL+7e7p90SHI595nTzM27Cz97b3+xufna3XHa3XHa3XHa3XHa3XHa3XHa3XHb3DS9UAAAAACJBBQAAACASVAAAAAAiQQUAAAAgElQAAAAAIkEFAAAAIBJUAAAAACJBBQAAACASVAAAAAAiQQUAAAAgElQAAAAAIkEFAAAAIBJUAAAAACJBBQAAACASVAAAAAAiQQUAAAAgElQAAAAAIkEFAAAAIBJUAAAAACJBBQAAACASVAAAAAAiQQUAAAAgElQAAAAAIkEFAAAAIBJUAAAAACJBBQAAACASVAAAAAAiQQUAAAAgElQAAAAAIkEFAAAAIBJUAAAAACJBBQAAACASVAAAAAAiQQUAAAAgElQAAAAAIkEFAAAAIBJUAAAAACJBBQAAACASVAAAAAAiQQUAAAAgElQAAAAAIkEFAAAAIBJUAAAAACJBBQAAACASVAAAAAAiQQUAAAAgElQAAAAAIkEFAAAAIBJUAAAAACJBBQAAACASVAAAAAAiQQUAAAAgElQAAAAAIkEFAAAAIBJUAAAAAKKL+9vjUx0CAAAA2DIvVAAAAAAiQQUAAAAgElQAAAAAIkEFAAAAIBJUAAAAACJBBQAAACASVAAAAAAiQQUAAAAgElQAAAAAIkEFAAAAIBJUAAAAACJBBQAAACASVAAAAAAiQQUAAAAgElQAAAAAIkEFAAAAIBJUAAAAACJBBQAAACASVAAAAAAiQQUAAAAgElQAAAAAIkEFAAAAIBJUAAAAACJBBQAAACASVAAAAAAiQQUAAAAgElQAAAAAoov7t7unOrR6h+PY3Onm3DfZLjvYHjufnx1sj53Pzw62x87nZwfbYt/L3cPp+e/ACxUAAACASFABAAAAiAQVAAAAgEhQAQAAAIgEFQAAAIBIUAEAAACIBBUAAACASFABAAAAiAQVAAAAgEhQAQAAAIgEFQAAAIBIUAEAAACIBBUAAACASFABAAAAiAQVAAAAgEhQAQAAAIgEFQAAAIBIUAEAAACIBBUAAACASFABAAAAiAQVAAAAgEhQAQAAAIgEFQAAAIBIUAEAAACIBBUAAACASFABAAAAiAQVAAAAgEhQAQAAAIgEFQAAAIBIUAEAAACIBBUAAACASFABAAAAiAQVAAAAgEhQAQAAAIgEFQAAAIBIUAEAAACIBBUAAACASFABAAAAiAQVAAAAgEhQAQAAAIgEFQAAAIBIUAEAAACIBBUAAACASFABAAAAiAQVAAAAgEhQAQAAAIgEFQAAAIBIUAEAAACIBBUAAACASFABAAAAiAQVAAAAgEhQAQAAAIgEFQAAAIBIUAEAAADYNf8LRHmgbIU/sWoAAAAASUVORK5CYII=;clipPath=inset(0% 0% 0% 0% round 49%);" vertex="1" parent="1">
          <mxGeometry x="5350" y="1650" width="500" height="500" as="geometry" />
        </mxCell>
      </root>
    </mxGraphModel>
  </diagram>
</mxfile>
